G04 #@! TF.FileFunction,Copper,L2,Bot,Signal*
%FSLAX46Y46*%
G04 Gerber Fmt 4.6, Leading zero omitted, Abs format (unit mm)*
G04 Created by KiCad (PCBNEW 4.0.7) date Sun Nov  5 18:25:08 2017*
%MOMM*%
%LPD*%
G01*
G04 APERTURE LIST*
%ADD10C,0.100000*%
%ADD11O,1.700000X1.700000*%
%ADD12C,1.700000*%
%ADD13C,4.400000*%
%ADD14R,1.700000X1.700000*%
%ADD15C,0.800000*%
%ADD16C,0.500000*%
%ADD17C,0.254000*%
G04 APERTURE END LIST*
D10*
D11*
X10750000Y-9342000D03*
X10750000Y-24582000D03*
X10750000Y-29662000D03*
X10750000Y-19502000D03*
X10750000Y-11882000D03*
X10750000Y-42362000D03*
X10750000Y-27122000D03*
X10750000Y-37282000D03*
X10750000Y-32202000D03*
X10750000Y-34742000D03*
D12*
X10750000Y-6802000D03*
D11*
X10750000Y-16962000D03*
X10750000Y-22042000D03*
X10750000Y-14422000D03*
X10750000Y-39822000D03*
D12*
X38690000Y-6802000D03*
D11*
X38690000Y-9342000D03*
X38690000Y-11882000D03*
X38690000Y-14422000D03*
X38690000Y-16962000D03*
X38690000Y-19502000D03*
X38690000Y-22042000D03*
X38690000Y-24582000D03*
X38690000Y-27122000D03*
X38690000Y-29662000D03*
X38690000Y-32202000D03*
X38690000Y-34742000D03*
X38690000Y-37282000D03*
X38690000Y-39822000D03*
X38690000Y-42362000D03*
X15830000Y-39822000D03*
X15830000Y-14422000D03*
X15830000Y-22042000D03*
X15830000Y-16962000D03*
D12*
X15830000Y-6802000D03*
D11*
X15830000Y-34742000D03*
X15830000Y-32202000D03*
X15830000Y-37282000D03*
X15830000Y-27122000D03*
X15830000Y-42362000D03*
X15830000Y-11882000D03*
X15830000Y-19502000D03*
X15830000Y-29662000D03*
X15830000Y-24582000D03*
X15830000Y-9342000D03*
D13*
X43000000Y-36000000D03*
D14*
X4000000Y-42800000D03*
D11*
X4000000Y-40260000D03*
X4000000Y-37720000D03*
D14*
X46040000Y-39820000D03*
D11*
X46040000Y-42360000D03*
X46040000Y-44900000D03*
X46040000Y-47440000D03*
X45989200Y-4310800D03*
X45989200Y-6850800D03*
D14*
X45989200Y-9390800D03*
X45989200Y-24580000D03*
D11*
X45989200Y-22040000D03*
X45989200Y-19500000D03*
X4000000Y-19540000D03*
X4000000Y-17000000D03*
D14*
X4000000Y-14460000D03*
X45989200Y-16909200D03*
D11*
X45989200Y-14369200D03*
X45989200Y-11829200D03*
X42484000Y-42360000D03*
D14*
X42484000Y-39820000D03*
X46040000Y-32200000D03*
D11*
X46040000Y-29660000D03*
X4000000Y-6800000D03*
D14*
X4000000Y-9340000D03*
X4000000Y-45916000D03*
D11*
X4000000Y-48456000D03*
D14*
X4000000Y-27193000D03*
D11*
X4000000Y-29733000D03*
X4000000Y-32273000D03*
X4000000Y-34813000D03*
D15*
X7600000Y-11300000D03*
D16*
X15830000Y-19502000D02*
X15998000Y-19502000D01*
X15998000Y-19502000D02*
X28698000Y-32202000D01*
X38690000Y-32202000D02*
X28698000Y-32202000D01*
X18538000Y-42362000D02*
X15830000Y-42362000D01*
X28698000Y-32202000D02*
X18538000Y-42362000D01*
X10750000Y-19502000D02*
X9002000Y-19502000D01*
X7600000Y-18100000D02*
X7600000Y-11300000D01*
X9002000Y-19502000D02*
X7600000Y-18100000D01*
D17*
G36*
X49265000Y-49265000D02*
X5240214Y-49265000D01*
X5401054Y-49024285D01*
X5514093Y-48456000D01*
X5401054Y-47887715D01*
X5340367Y-47796890D01*
X44598524Y-47796890D01*
X44768355Y-48206924D01*
X45158642Y-48635183D01*
X45683108Y-48881486D01*
X45913000Y-48760819D01*
X45913000Y-47567000D01*
X46167000Y-47567000D01*
X46167000Y-48760819D01*
X46396892Y-48881486D01*
X46921358Y-48635183D01*
X47311645Y-48206924D01*
X47481476Y-47796890D01*
X47360155Y-47567000D01*
X46167000Y-47567000D01*
X45913000Y-47567000D01*
X44719845Y-47567000D01*
X44598524Y-47796890D01*
X5340367Y-47796890D01*
X5079147Y-47405946D01*
X5035223Y-47376597D01*
X5209698Y-47304327D01*
X5388327Y-47125699D01*
X5485000Y-46892310D01*
X5485000Y-46201750D01*
X5326250Y-46043000D01*
X4127000Y-46043000D01*
X4127000Y-46063000D01*
X3873000Y-46063000D01*
X3873000Y-46043000D01*
X2673750Y-46043000D01*
X2515000Y-46201750D01*
X2515000Y-46892310D01*
X2611673Y-47125699D01*
X2790302Y-47304327D01*
X2964777Y-47376597D01*
X2920853Y-47405946D01*
X2598946Y-47887715D01*
X2485907Y-48456000D01*
X2598946Y-49024285D01*
X2759786Y-49265000D01*
X735000Y-49265000D01*
X735000Y-44939690D01*
X2515000Y-44939690D01*
X2515000Y-45630250D01*
X2673750Y-45789000D01*
X3873000Y-45789000D01*
X3873000Y-44589750D01*
X4127000Y-44589750D01*
X4127000Y-45789000D01*
X5326250Y-45789000D01*
X5485000Y-45630250D01*
X5485000Y-45256890D01*
X44598524Y-45256890D01*
X44768355Y-45666924D01*
X45158642Y-46095183D01*
X45317954Y-46170000D01*
X45158642Y-46244817D01*
X44768355Y-46673076D01*
X44598524Y-47083110D01*
X44719845Y-47313000D01*
X45913000Y-47313000D01*
X45913000Y-45027000D01*
X46167000Y-45027000D01*
X46167000Y-47313000D01*
X47360155Y-47313000D01*
X47481476Y-47083110D01*
X47311645Y-46673076D01*
X46921358Y-46244817D01*
X46762046Y-46170000D01*
X46921358Y-46095183D01*
X47311645Y-45666924D01*
X47481476Y-45256890D01*
X47360155Y-45027000D01*
X46167000Y-45027000D01*
X45913000Y-45027000D01*
X44719845Y-45027000D01*
X44598524Y-45256890D01*
X5485000Y-45256890D01*
X5485000Y-44939690D01*
X5388327Y-44706301D01*
X5209698Y-44527673D01*
X4976309Y-44431000D01*
X4285750Y-44431000D01*
X4127000Y-44589750D01*
X3873000Y-44589750D01*
X3714250Y-44431000D01*
X3023691Y-44431000D01*
X2790302Y-44527673D01*
X2611673Y-44706301D01*
X2515000Y-44939690D01*
X735000Y-44939690D01*
X735000Y-40260000D01*
X2485907Y-40260000D01*
X2598946Y-40828285D01*
X2920853Y-41310054D01*
X2962452Y-41337850D01*
X2914683Y-41346838D01*
X2698559Y-41485910D01*
X2553569Y-41698110D01*
X2502560Y-41950000D01*
X2502560Y-43650000D01*
X2546838Y-43885317D01*
X2685910Y-44101441D01*
X2898110Y-44246431D01*
X3150000Y-44297440D01*
X4850000Y-44297440D01*
X5085317Y-44253162D01*
X5301441Y-44114090D01*
X5446431Y-43901890D01*
X5497440Y-43650000D01*
X5497440Y-42362000D01*
X9235907Y-42362000D01*
X9348946Y-42930285D01*
X9670853Y-43412054D01*
X10152622Y-43733961D01*
X10720907Y-43847000D01*
X10779093Y-43847000D01*
X11347378Y-43733961D01*
X11829147Y-43412054D01*
X12151054Y-42930285D01*
X12264093Y-42362000D01*
X12151054Y-41793715D01*
X11829147Y-41311946D01*
X11488447Y-41084298D01*
X11631358Y-41017183D01*
X12021645Y-40588924D01*
X12191476Y-40178890D01*
X12070155Y-39949000D01*
X10877000Y-39949000D01*
X10877000Y-39969000D01*
X10623000Y-39969000D01*
X10623000Y-39949000D01*
X9429845Y-39949000D01*
X9308524Y-40178890D01*
X9478355Y-40588924D01*
X9868642Y-41017183D01*
X10011553Y-41084298D01*
X9670853Y-41311946D01*
X9348946Y-41793715D01*
X9235907Y-42362000D01*
X5497440Y-42362000D01*
X5497440Y-41950000D01*
X5453162Y-41714683D01*
X5314090Y-41498559D01*
X5101890Y-41353569D01*
X5034459Y-41339914D01*
X5079147Y-41310054D01*
X5401054Y-40828285D01*
X5514093Y-40260000D01*
X5401054Y-39691715D01*
X5079147Y-39209946D01*
X4738447Y-38982298D01*
X4881358Y-38915183D01*
X5271645Y-38486924D01*
X5441476Y-38076890D01*
X5320155Y-37847000D01*
X4127000Y-37847000D01*
X4127000Y-37867000D01*
X3873000Y-37867000D01*
X3873000Y-37847000D01*
X2679845Y-37847000D01*
X2558524Y-38076890D01*
X2728355Y-38486924D01*
X3118642Y-38915183D01*
X3261553Y-38982298D01*
X2920853Y-39209946D01*
X2598946Y-39691715D01*
X2485907Y-40260000D01*
X735000Y-40260000D01*
X735000Y-37363110D01*
X2558524Y-37363110D01*
X2679845Y-37593000D01*
X3873000Y-37593000D01*
X3873000Y-36399181D01*
X4127000Y-36399181D01*
X4127000Y-37593000D01*
X5320155Y-37593000D01*
X5441476Y-37363110D01*
X5271645Y-36953076D01*
X4881358Y-36524817D01*
X4356892Y-36278514D01*
X4127000Y-36399181D01*
X3873000Y-36399181D01*
X3643108Y-36278514D01*
X3118642Y-36524817D01*
X2728355Y-36953076D01*
X2558524Y-37363110D01*
X735000Y-37363110D01*
X735000Y-35169890D01*
X2558524Y-35169890D01*
X2728355Y-35579924D01*
X3118642Y-36008183D01*
X3643108Y-36254486D01*
X3873000Y-36133819D01*
X3873000Y-34940000D01*
X4127000Y-34940000D01*
X4127000Y-36133819D01*
X4356892Y-36254486D01*
X4881358Y-36008183D01*
X5271645Y-35579924D01*
X5441476Y-35169890D01*
X5320155Y-34940000D01*
X4127000Y-34940000D01*
X3873000Y-34940000D01*
X2679845Y-34940000D01*
X2558524Y-35169890D01*
X735000Y-35169890D01*
X735000Y-29733000D01*
X2485907Y-29733000D01*
X2598946Y-30301285D01*
X2920853Y-30783054D01*
X3250026Y-31003000D01*
X2920853Y-31222946D01*
X2598946Y-31704715D01*
X2485907Y-32273000D01*
X2598946Y-32841285D01*
X2920853Y-33323054D01*
X3261553Y-33550702D01*
X3118642Y-33617817D01*
X2728355Y-34046076D01*
X2558524Y-34456110D01*
X2679845Y-34686000D01*
X3873000Y-34686000D01*
X3873000Y-34666000D01*
X4127000Y-34666000D01*
X4127000Y-34686000D01*
X5320155Y-34686000D01*
X5441476Y-34456110D01*
X5271645Y-34046076D01*
X4881358Y-33617817D01*
X4738447Y-33550702D01*
X5079147Y-33323054D01*
X5401054Y-32841285D01*
X5514093Y-32273000D01*
X5401054Y-31704715D01*
X5079147Y-31222946D01*
X4749974Y-31003000D01*
X5079147Y-30783054D01*
X5401054Y-30301285D01*
X5514093Y-29733000D01*
X5401054Y-29164715D01*
X5079147Y-28682946D01*
X5037548Y-28655150D01*
X5085317Y-28646162D01*
X5301441Y-28507090D01*
X5446431Y-28294890D01*
X5497440Y-28043000D01*
X5497440Y-26343000D01*
X5453162Y-26107683D01*
X5314090Y-25891559D01*
X5101890Y-25746569D01*
X4850000Y-25695560D01*
X3150000Y-25695560D01*
X2914683Y-25739838D01*
X2698559Y-25878910D01*
X2553569Y-26091110D01*
X2502560Y-26343000D01*
X2502560Y-28043000D01*
X2546838Y-28278317D01*
X2685910Y-28494441D01*
X2898110Y-28639431D01*
X2965541Y-28653086D01*
X2920853Y-28682946D01*
X2598946Y-29164715D01*
X2485907Y-29733000D01*
X735000Y-29733000D01*
X735000Y-24582000D01*
X9235907Y-24582000D01*
X9348946Y-25150285D01*
X9670853Y-25632054D01*
X10000026Y-25852000D01*
X9670853Y-26071946D01*
X9348946Y-26553715D01*
X9235907Y-27122000D01*
X9348946Y-27690285D01*
X9670853Y-28172054D01*
X10000026Y-28392000D01*
X9670853Y-28611946D01*
X9348946Y-29093715D01*
X9235907Y-29662000D01*
X9348946Y-30230285D01*
X9670853Y-30712054D01*
X10000026Y-30932000D01*
X9670853Y-31151946D01*
X9348946Y-31633715D01*
X9235907Y-32202000D01*
X9348946Y-32770285D01*
X9670853Y-33252054D01*
X10000026Y-33472000D01*
X9670853Y-33691946D01*
X9348946Y-34173715D01*
X9235907Y-34742000D01*
X9348946Y-35310285D01*
X9670853Y-35792054D01*
X10000026Y-36012000D01*
X9670853Y-36231946D01*
X9348946Y-36713715D01*
X9235907Y-37282000D01*
X9348946Y-37850285D01*
X9670853Y-38332054D01*
X10011553Y-38559702D01*
X9868642Y-38626817D01*
X9478355Y-39055076D01*
X9308524Y-39465110D01*
X9429845Y-39695000D01*
X10623000Y-39695000D01*
X10623000Y-39675000D01*
X10877000Y-39675000D01*
X10877000Y-39695000D01*
X12070155Y-39695000D01*
X12191476Y-39465110D01*
X12021645Y-39055076D01*
X11631358Y-38626817D01*
X11488447Y-38559702D01*
X11829147Y-38332054D01*
X12151054Y-37850285D01*
X12264093Y-37282000D01*
X12151054Y-36713715D01*
X11829147Y-36231946D01*
X11499974Y-36012000D01*
X11829147Y-35792054D01*
X12151054Y-35310285D01*
X12264093Y-34742000D01*
X12151054Y-34173715D01*
X11829147Y-33691946D01*
X11499974Y-33472000D01*
X11829147Y-33252054D01*
X12151054Y-32770285D01*
X12264093Y-32202000D01*
X12151054Y-31633715D01*
X11829147Y-31151946D01*
X11499974Y-30932000D01*
X11829147Y-30712054D01*
X12151054Y-30230285D01*
X12264093Y-29662000D01*
X12151054Y-29093715D01*
X11829147Y-28611946D01*
X11499974Y-28392000D01*
X11829147Y-28172054D01*
X12151054Y-27690285D01*
X12264093Y-27122000D01*
X12151054Y-26553715D01*
X11829147Y-26071946D01*
X11499974Y-25852000D01*
X11829147Y-25632054D01*
X12151054Y-25150285D01*
X12264093Y-24582000D01*
X12151054Y-24013715D01*
X11829147Y-23531946D01*
X11488447Y-23304298D01*
X11631358Y-23237183D01*
X12021645Y-22808924D01*
X12191476Y-22398890D01*
X12070155Y-22169000D01*
X10877000Y-22169000D01*
X10877000Y-22189000D01*
X10623000Y-22189000D01*
X10623000Y-22169000D01*
X9429845Y-22169000D01*
X9308524Y-22398890D01*
X9478355Y-22808924D01*
X9868642Y-23237183D01*
X10011553Y-23304298D01*
X9670853Y-23531946D01*
X9348946Y-24013715D01*
X9235907Y-24582000D01*
X735000Y-24582000D01*
X735000Y-19896890D01*
X2558524Y-19896890D01*
X2728355Y-20306924D01*
X3118642Y-20735183D01*
X3643108Y-20981486D01*
X3873000Y-20860819D01*
X3873000Y-19667000D01*
X4127000Y-19667000D01*
X4127000Y-20860819D01*
X4356892Y-20981486D01*
X4881358Y-20735183D01*
X5271645Y-20306924D01*
X5441476Y-19896890D01*
X5320155Y-19667000D01*
X4127000Y-19667000D01*
X3873000Y-19667000D01*
X2679845Y-19667000D01*
X2558524Y-19896890D01*
X735000Y-19896890D01*
X735000Y-17000000D01*
X2485907Y-17000000D01*
X2598946Y-17568285D01*
X2920853Y-18050054D01*
X3261553Y-18277702D01*
X3118642Y-18344817D01*
X2728355Y-18773076D01*
X2558524Y-19183110D01*
X2679845Y-19413000D01*
X3873000Y-19413000D01*
X3873000Y-19393000D01*
X4127000Y-19393000D01*
X4127000Y-19413000D01*
X5320155Y-19413000D01*
X5441476Y-19183110D01*
X5271645Y-18773076D01*
X4881358Y-18344817D01*
X4738447Y-18277702D01*
X5079147Y-18050054D01*
X5401054Y-17568285D01*
X5514093Y-17000000D01*
X5401054Y-16431715D01*
X5079147Y-15949946D01*
X5037548Y-15922150D01*
X5085317Y-15913162D01*
X5301441Y-15774090D01*
X5446431Y-15561890D01*
X5497440Y-15310000D01*
X5497440Y-13610000D01*
X5453162Y-13374683D01*
X5314090Y-13158559D01*
X5101890Y-13013569D01*
X4850000Y-12962560D01*
X3150000Y-12962560D01*
X2914683Y-13006838D01*
X2698559Y-13145910D01*
X2553569Y-13358110D01*
X2502560Y-13610000D01*
X2502560Y-15310000D01*
X2546838Y-15545317D01*
X2685910Y-15761441D01*
X2898110Y-15906431D01*
X2965541Y-15920086D01*
X2920853Y-15949946D01*
X2598946Y-16431715D01*
X2485907Y-17000000D01*
X735000Y-17000000D01*
X735000Y-11504971D01*
X6564821Y-11504971D01*
X6715000Y-11868433D01*
X6715000Y-18099995D01*
X6714999Y-18100000D01*
X6755741Y-18304817D01*
X6782367Y-18438675D01*
X6946532Y-18684367D01*
X6974210Y-18725790D01*
X8376208Y-20127787D01*
X8376210Y-20127790D01*
X8584440Y-20266924D01*
X8663325Y-20319633D01*
X9002000Y-20387000D01*
X9560568Y-20387000D01*
X9670853Y-20552054D01*
X10011553Y-20779702D01*
X9868642Y-20846817D01*
X9478355Y-21275076D01*
X9308524Y-21685110D01*
X9429845Y-21915000D01*
X10623000Y-21915000D01*
X10623000Y-21895000D01*
X10877000Y-21895000D01*
X10877000Y-21915000D01*
X12070155Y-21915000D01*
X12191476Y-21685110D01*
X12021645Y-21275076D01*
X11631358Y-20846817D01*
X11488447Y-20779702D01*
X11829147Y-20552054D01*
X12151054Y-20070285D01*
X12264093Y-19502000D01*
X12151054Y-18933715D01*
X11829147Y-18451946D01*
X11499974Y-18232000D01*
X11829147Y-18012054D01*
X12151054Y-17530285D01*
X12264093Y-16962000D01*
X12151054Y-16393715D01*
X11829147Y-15911946D01*
X11499974Y-15692000D01*
X11829147Y-15472054D01*
X12151054Y-14990285D01*
X12264093Y-14422000D01*
X12151054Y-13853715D01*
X11829147Y-13371946D01*
X11499974Y-13152000D01*
X11829147Y-12932054D01*
X12151054Y-12450285D01*
X12264093Y-11882000D01*
X12151054Y-11313715D01*
X11829147Y-10831946D01*
X11499974Y-10612000D01*
X11829147Y-10392054D01*
X12151054Y-9910285D01*
X12264093Y-9342000D01*
X14315907Y-9342000D01*
X14428946Y-9910285D01*
X14750853Y-10392054D01*
X15080026Y-10612000D01*
X14750853Y-10831946D01*
X14428946Y-11313715D01*
X14315907Y-11882000D01*
X14428946Y-12450285D01*
X14750853Y-12932054D01*
X15080026Y-13152000D01*
X14750853Y-13371946D01*
X14428946Y-13853715D01*
X14315907Y-14422000D01*
X14428946Y-14990285D01*
X14750853Y-15472054D01*
X15080026Y-15692000D01*
X14750853Y-15911946D01*
X14428946Y-16393715D01*
X14315907Y-16962000D01*
X14428946Y-17530285D01*
X14750853Y-18012054D01*
X15080026Y-18232000D01*
X14750853Y-18451946D01*
X14428946Y-18933715D01*
X14315907Y-19502000D01*
X14428946Y-20070285D01*
X14750853Y-20552054D01*
X15091553Y-20779702D01*
X14948642Y-20846817D01*
X14558355Y-21275076D01*
X14388524Y-21685110D01*
X14509845Y-21915000D01*
X15703000Y-21915000D01*
X15703000Y-21895000D01*
X15957000Y-21895000D01*
X15957000Y-21915000D01*
X15977000Y-21915000D01*
X15977000Y-22169000D01*
X15957000Y-22169000D01*
X15957000Y-22189000D01*
X15703000Y-22189000D01*
X15703000Y-22169000D01*
X14509845Y-22169000D01*
X14388524Y-22398890D01*
X14558355Y-22808924D01*
X14948642Y-23237183D01*
X15091553Y-23304298D01*
X14750853Y-23531946D01*
X14428946Y-24013715D01*
X14315907Y-24582000D01*
X14428946Y-25150285D01*
X14750853Y-25632054D01*
X15080026Y-25852000D01*
X14750853Y-26071946D01*
X14428946Y-26553715D01*
X14315907Y-27122000D01*
X14428946Y-27690285D01*
X14750853Y-28172054D01*
X15080026Y-28392000D01*
X14750853Y-28611946D01*
X14428946Y-29093715D01*
X14315907Y-29662000D01*
X14428946Y-30230285D01*
X14750853Y-30712054D01*
X15080026Y-30932000D01*
X14750853Y-31151946D01*
X14428946Y-31633715D01*
X14315907Y-32202000D01*
X14428946Y-32770285D01*
X14750853Y-33252054D01*
X15080026Y-33472000D01*
X14750853Y-33691946D01*
X14428946Y-34173715D01*
X14315907Y-34742000D01*
X14428946Y-35310285D01*
X14750853Y-35792054D01*
X15080026Y-36012000D01*
X14750853Y-36231946D01*
X14428946Y-36713715D01*
X14315907Y-37282000D01*
X14428946Y-37850285D01*
X14750853Y-38332054D01*
X15091553Y-38559702D01*
X14948642Y-38626817D01*
X14558355Y-39055076D01*
X14388524Y-39465110D01*
X14509845Y-39695000D01*
X15703000Y-39695000D01*
X15703000Y-39675000D01*
X15957000Y-39675000D01*
X15957000Y-39695000D01*
X17150155Y-39695000D01*
X17271476Y-39465110D01*
X17101645Y-39055076D01*
X16711358Y-38626817D01*
X16568447Y-38559702D01*
X16909147Y-38332054D01*
X17231054Y-37850285D01*
X17344093Y-37282000D01*
X17231054Y-36713715D01*
X16909147Y-36231946D01*
X16579974Y-36012000D01*
X16909147Y-35792054D01*
X17231054Y-35310285D01*
X17344093Y-34742000D01*
X17231054Y-34173715D01*
X16909147Y-33691946D01*
X16579974Y-33472000D01*
X16909147Y-33252054D01*
X17231054Y-32770285D01*
X17344093Y-32202000D01*
X17231054Y-31633715D01*
X16909147Y-31151946D01*
X16579974Y-30932000D01*
X16909147Y-30712054D01*
X17231054Y-30230285D01*
X17344093Y-29662000D01*
X17231054Y-29093715D01*
X16909147Y-28611946D01*
X16579974Y-28392000D01*
X16909147Y-28172054D01*
X17231054Y-27690285D01*
X17344093Y-27122000D01*
X17231054Y-26553715D01*
X16909147Y-26071946D01*
X16579974Y-25852000D01*
X16909147Y-25632054D01*
X17231054Y-25150285D01*
X17344093Y-24582000D01*
X17231054Y-24013715D01*
X16909147Y-23531946D01*
X16568447Y-23304298D01*
X16711358Y-23237183D01*
X17101645Y-22808924D01*
X17271476Y-22398890D01*
X17150156Y-22169002D01*
X17315000Y-22169002D01*
X17315000Y-22070579D01*
X27446421Y-32202000D01*
X18171420Y-41477000D01*
X17019432Y-41477000D01*
X16909147Y-41311946D01*
X16568447Y-41084298D01*
X16711358Y-41017183D01*
X17101645Y-40588924D01*
X17271476Y-40178890D01*
X17150155Y-39949000D01*
X15957000Y-39949000D01*
X15957000Y-39969000D01*
X15703000Y-39969000D01*
X15703000Y-39949000D01*
X14509845Y-39949000D01*
X14388524Y-40178890D01*
X14558355Y-40588924D01*
X14948642Y-41017183D01*
X15091553Y-41084298D01*
X14750853Y-41311946D01*
X14428946Y-41793715D01*
X14315907Y-42362000D01*
X14428946Y-42930285D01*
X14750853Y-43412054D01*
X15232622Y-43733961D01*
X15800907Y-43847000D01*
X15859093Y-43847000D01*
X16427378Y-43733961D01*
X16909147Y-43412054D01*
X17019432Y-43247000D01*
X18537995Y-43247000D01*
X18538000Y-43247001D01*
X18820484Y-43190810D01*
X18876675Y-43179633D01*
X19163790Y-42987790D01*
X19789579Y-42362000D01*
X37175907Y-42362000D01*
X37288946Y-42930285D01*
X37610853Y-43412054D01*
X38092622Y-43733961D01*
X38660907Y-43847000D01*
X38719093Y-43847000D01*
X39287378Y-43733961D01*
X39769147Y-43412054D01*
X40091054Y-42930285D01*
X40204093Y-42362000D01*
X40091054Y-41793715D01*
X39769147Y-41311946D01*
X39428447Y-41084298D01*
X39571358Y-41017183D01*
X39961645Y-40588924D01*
X40131476Y-40178890D01*
X40010155Y-39949000D01*
X38817000Y-39949000D01*
X38817000Y-39969000D01*
X38563000Y-39969000D01*
X38563000Y-39949000D01*
X37369845Y-39949000D01*
X37248524Y-40178890D01*
X37418355Y-40588924D01*
X37808642Y-41017183D01*
X37951553Y-41084298D01*
X37610853Y-41311946D01*
X37288946Y-41793715D01*
X37175907Y-42362000D01*
X19789579Y-42362000D01*
X29064579Y-33087000D01*
X37500568Y-33087000D01*
X37610853Y-33252054D01*
X37940026Y-33472000D01*
X37610853Y-33691946D01*
X37288946Y-34173715D01*
X37175907Y-34742000D01*
X37288946Y-35310285D01*
X37610853Y-35792054D01*
X37940026Y-36012000D01*
X37610853Y-36231946D01*
X37288946Y-36713715D01*
X37175907Y-37282000D01*
X37288946Y-37850285D01*
X37610853Y-38332054D01*
X37951553Y-38559702D01*
X37808642Y-38626817D01*
X37418355Y-39055076D01*
X37248524Y-39465110D01*
X37369845Y-39695000D01*
X38563000Y-39695000D01*
X38563000Y-39675000D01*
X38817000Y-39675000D01*
X38817000Y-39695000D01*
X40010155Y-39695000D01*
X40131476Y-39465110D01*
X39961645Y-39055076D01*
X39571358Y-38626817D01*
X39428447Y-38559702D01*
X39769147Y-38332054D01*
X40091054Y-37850285D01*
X40204093Y-37282000D01*
X40091054Y-36713715D01*
X39989309Y-36561442D01*
X40164509Y-36561442D01*
X40595202Y-37603801D01*
X41373248Y-38383205D01*
X41182559Y-38505910D01*
X41037569Y-38718110D01*
X40986560Y-38970000D01*
X40986560Y-40670000D01*
X41030838Y-40905317D01*
X41169910Y-41121441D01*
X41382110Y-41266431D01*
X41449541Y-41280086D01*
X41404853Y-41309946D01*
X41082946Y-41791715D01*
X40969907Y-42360000D01*
X41082946Y-42928285D01*
X41404853Y-43410054D01*
X41886622Y-43731961D01*
X42454907Y-43845000D01*
X42513093Y-43845000D01*
X43081378Y-43731961D01*
X43563147Y-43410054D01*
X43885054Y-42928285D01*
X43998093Y-42360000D01*
X44525907Y-42360000D01*
X44638946Y-42928285D01*
X44960853Y-43410054D01*
X45301553Y-43637702D01*
X45158642Y-43704817D01*
X44768355Y-44133076D01*
X44598524Y-44543110D01*
X44719845Y-44773000D01*
X45913000Y-44773000D01*
X45913000Y-44753000D01*
X46167000Y-44753000D01*
X46167000Y-44773000D01*
X47360155Y-44773000D01*
X47481476Y-44543110D01*
X47311645Y-44133076D01*
X46921358Y-43704817D01*
X46778447Y-43637702D01*
X47119147Y-43410054D01*
X47441054Y-42928285D01*
X47554093Y-42360000D01*
X47441054Y-41791715D01*
X47119147Y-41309946D01*
X47077548Y-41282150D01*
X47125317Y-41273162D01*
X47341441Y-41134090D01*
X47486431Y-40921890D01*
X47537440Y-40670000D01*
X47537440Y-38970000D01*
X47493162Y-38734683D01*
X47354090Y-38518559D01*
X47141890Y-38373569D01*
X46890000Y-38322560D01*
X45190000Y-38322560D01*
X44954683Y-38366838D01*
X44738559Y-38505910D01*
X44593569Y-38718110D01*
X44542560Y-38970000D01*
X44542560Y-40670000D01*
X44586838Y-40905317D01*
X44725910Y-41121441D01*
X44938110Y-41266431D01*
X45005541Y-41280086D01*
X44960853Y-41309946D01*
X44638946Y-41791715D01*
X44525907Y-42360000D01*
X43998093Y-42360000D01*
X43885054Y-41791715D01*
X43563147Y-41309946D01*
X43521548Y-41282150D01*
X43569317Y-41273162D01*
X43785441Y-41134090D01*
X43930431Y-40921890D01*
X43981440Y-40670000D01*
X43981440Y-38970000D01*
X43937162Y-38734683D01*
X43909491Y-38691681D01*
X44603801Y-38404798D01*
X45401995Y-37607995D01*
X45834507Y-36566390D01*
X45835491Y-35438558D01*
X45404798Y-34396199D01*
X44607995Y-33598005D01*
X43566390Y-33165493D01*
X42438558Y-33164509D01*
X41396199Y-33595202D01*
X40598005Y-34392005D01*
X40165493Y-35433610D01*
X40164509Y-36561442D01*
X39989309Y-36561442D01*
X39769147Y-36231946D01*
X39439974Y-36012000D01*
X39769147Y-35792054D01*
X40091054Y-35310285D01*
X40204093Y-34742000D01*
X40091054Y-34173715D01*
X39769147Y-33691946D01*
X39439974Y-33472000D01*
X39769147Y-33252054D01*
X40091054Y-32770285D01*
X40204093Y-32202000D01*
X40091054Y-31633715D01*
X39901483Y-31350000D01*
X44542560Y-31350000D01*
X44542560Y-33050000D01*
X44586838Y-33285317D01*
X44725910Y-33501441D01*
X44938110Y-33646431D01*
X45190000Y-33697440D01*
X46890000Y-33697440D01*
X47125317Y-33653162D01*
X47341441Y-33514090D01*
X47486431Y-33301890D01*
X47537440Y-33050000D01*
X47537440Y-31350000D01*
X47493162Y-31114683D01*
X47354090Y-30898559D01*
X47141890Y-30753569D01*
X47033893Y-30731699D01*
X47311645Y-30426924D01*
X47481476Y-30016890D01*
X47360155Y-29787000D01*
X46167000Y-29787000D01*
X46167000Y-29807000D01*
X45913000Y-29807000D01*
X45913000Y-29787000D01*
X44719845Y-29787000D01*
X44598524Y-30016890D01*
X44768355Y-30426924D01*
X45044501Y-30729937D01*
X44954683Y-30746838D01*
X44738559Y-30885910D01*
X44593569Y-31098110D01*
X44542560Y-31350000D01*
X39901483Y-31350000D01*
X39769147Y-31151946D01*
X39428447Y-30924298D01*
X39571358Y-30857183D01*
X39961645Y-30428924D01*
X40131476Y-30018890D01*
X40010155Y-29789000D01*
X38817000Y-29789000D01*
X38817000Y-29809000D01*
X38563000Y-29809000D01*
X38563000Y-29789000D01*
X37369845Y-29789000D01*
X37248524Y-30018890D01*
X37418355Y-30428924D01*
X37808642Y-30857183D01*
X37951553Y-30924298D01*
X37610853Y-31151946D01*
X37500568Y-31317000D01*
X29064579Y-31317000D01*
X17328412Y-19580832D01*
X17344093Y-19502000D01*
X17231054Y-18933715D01*
X16909147Y-18451946D01*
X16579974Y-18232000D01*
X16909147Y-18012054D01*
X17231054Y-17530285D01*
X17344093Y-16962000D01*
X17231054Y-16393715D01*
X16909147Y-15911946D01*
X16579974Y-15692000D01*
X16909147Y-15472054D01*
X17231054Y-14990285D01*
X17344093Y-14422000D01*
X17231054Y-13853715D01*
X16909147Y-13371946D01*
X16579974Y-13152000D01*
X16909147Y-12932054D01*
X17231054Y-12450285D01*
X17344093Y-11882000D01*
X17231054Y-11313715D01*
X16909147Y-10831946D01*
X16579974Y-10612000D01*
X16909147Y-10392054D01*
X17231054Y-9910285D01*
X17344093Y-9342000D01*
X37175907Y-9342000D01*
X37288946Y-9910285D01*
X37610853Y-10392054D01*
X37940026Y-10612000D01*
X37610853Y-10831946D01*
X37288946Y-11313715D01*
X37175907Y-11882000D01*
X37288946Y-12450285D01*
X37610853Y-12932054D01*
X37940026Y-13152000D01*
X37610853Y-13371946D01*
X37288946Y-13853715D01*
X37175907Y-14422000D01*
X37288946Y-14990285D01*
X37610853Y-15472054D01*
X37940026Y-15692000D01*
X37610853Y-15911946D01*
X37288946Y-16393715D01*
X37175907Y-16962000D01*
X37288946Y-17530285D01*
X37610853Y-18012054D01*
X37940026Y-18232000D01*
X37610853Y-18451946D01*
X37288946Y-18933715D01*
X37175907Y-19502000D01*
X37288946Y-20070285D01*
X37610853Y-20552054D01*
X37940026Y-20772000D01*
X37610853Y-20991946D01*
X37288946Y-21473715D01*
X37175907Y-22042000D01*
X37288946Y-22610285D01*
X37610853Y-23092054D01*
X37940026Y-23312000D01*
X37610853Y-23531946D01*
X37288946Y-24013715D01*
X37175907Y-24582000D01*
X37288946Y-25150285D01*
X37610853Y-25632054D01*
X37940026Y-25852000D01*
X37610853Y-26071946D01*
X37288946Y-26553715D01*
X37175907Y-27122000D01*
X37288946Y-27690285D01*
X37610853Y-28172054D01*
X37951553Y-28399702D01*
X37808642Y-28466817D01*
X37418355Y-28895076D01*
X37248524Y-29305110D01*
X37369845Y-29535000D01*
X38563000Y-29535000D01*
X38563000Y-29515000D01*
X38817000Y-29515000D01*
X38817000Y-29535000D01*
X40010155Y-29535000D01*
X40131476Y-29305110D01*
X40130648Y-29303110D01*
X44598524Y-29303110D01*
X44719845Y-29533000D01*
X45913000Y-29533000D01*
X45913000Y-28339181D01*
X46167000Y-28339181D01*
X46167000Y-29533000D01*
X47360155Y-29533000D01*
X47481476Y-29303110D01*
X47311645Y-28893076D01*
X46921358Y-28464817D01*
X46396892Y-28218514D01*
X46167000Y-28339181D01*
X45913000Y-28339181D01*
X45683108Y-28218514D01*
X45158642Y-28464817D01*
X44768355Y-28893076D01*
X44598524Y-29303110D01*
X40130648Y-29303110D01*
X39961645Y-28895076D01*
X39571358Y-28466817D01*
X39428447Y-28399702D01*
X39769147Y-28172054D01*
X40091054Y-27690285D01*
X40204093Y-27122000D01*
X40091054Y-26553715D01*
X39769147Y-26071946D01*
X39439974Y-25852000D01*
X39769147Y-25632054D01*
X40091054Y-25150285D01*
X40204093Y-24582000D01*
X40091054Y-24013715D01*
X39769147Y-23531946D01*
X39439974Y-23312000D01*
X39769147Y-23092054D01*
X40091054Y-22610285D01*
X40204093Y-22042000D01*
X40203696Y-22040000D01*
X44475107Y-22040000D01*
X44588146Y-22608285D01*
X44910053Y-23090054D01*
X44951652Y-23117850D01*
X44903883Y-23126838D01*
X44687759Y-23265910D01*
X44542769Y-23478110D01*
X44491760Y-23730000D01*
X44491760Y-25430000D01*
X44536038Y-25665317D01*
X44675110Y-25881441D01*
X44887310Y-26026431D01*
X45139200Y-26077440D01*
X46839200Y-26077440D01*
X47074517Y-26033162D01*
X47290641Y-25894090D01*
X47435631Y-25681890D01*
X47486640Y-25430000D01*
X47486640Y-23730000D01*
X47442362Y-23494683D01*
X47303290Y-23278559D01*
X47091090Y-23133569D01*
X47023659Y-23119914D01*
X47068347Y-23090054D01*
X47390254Y-22608285D01*
X47503293Y-22040000D01*
X47390254Y-21471715D01*
X47068347Y-20989946D01*
X46727647Y-20762298D01*
X46870558Y-20695183D01*
X47260845Y-20266924D01*
X47430676Y-19856890D01*
X47309355Y-19627000D01*
X46116200Y-19627000D01*
X46116200Y-19647000D01*
X45862200Y-19647000D01*
X45862200Y-19627000D01*
X44669045Y-19627000D01*
X44547724Y-19856890D01*
X44717555Y-20266924D01*
X45107842Y-20695183D01*
X45250753Y-20762298D01*
X44910053Y-20989946D01*
X44588146Y-21471715D01*
X44475107Y-22040000D01*
X40203696Y-22040000D01*
X40091054Y-21473715D01*
X39769147Y-20991946D01*
X39439974Y-20772000D01*
X39769147Y-20552054D01*
X40091054Y-20070285D01*
X40204093Y-19502000D01*
X40091054Y-18933715D01*
X39769147Y-18451946D01*
X39439974Y-18232000D01*
X39769147Y-18012054D01*
X40091054Y-17530285D01*
X40204093Y-16962000D01*
X40091054Y-16393715D01*
X39769147Y-15911946D01*
X39439974Y-15692000D01*
X39769147Y-15472054D01*
X40091054Y-14990285D01*
X40204093Y-14422000D01*
X40193591Y-14369200D01*
X44475107Y-14369200D01*
X44588146Y-14937485D01*
X44910053Y-15419254D01*
X44951652Y-15447050D01*
X44903883Y-15456038D01*
X44687759Y-15595110D01*
X44542769Y-15807310D01*
X44491760Y-16059200D01*
X44491760Y-17759200D01*
X44536038Y-17994517D01*
X44675110Y-18210641D01*
X44887310Y-18355631D01*
X45034390Y-18385415D01*
X44717555Y-18733076D01*
X44547724Y-19143110D01*
X44669045Y-19373000D01*
X45862200Y-19373000D01*
X45862200Y-19353000D01*
X46116200Y-19353000D01*
X46116200Y-19373000D01*
X47309355Y-19373000D01*
X47430676Y-19143110D01*
X47260845Y-18733076D01*
X46945179Y-18386699D01*
X47074517Y-18362362D01*
X47290641Y-18223290D01*
X47435631Y-18011090D01*
X47486640Y-17759200D01*
X47486640Y-16059200D01*
X47442362Y-15823883D01*
X47303290Y-15607759D01*
X47091090Y-15462769D01*
X47023659Y-15449114D01*
X47068347Y-15419254D01*
X47390254Y-14937485D01*
X47503293Y-14369200D01*
X47390254Y-13800915D01*
X47068347Y-13319146D01*
X46727647Y-13091498D01*
X46870558Y-13024383D01*
X47260845Y-12596124D01*
X47430676Y-12186090D01*
X47309355Y-11956200D01*
X46116200Y-11956200D01*
X46116200Y-11976200D01*
X45862200Y-11976200D01*
X45862200Y-11956200D01*
X44669045Y-11956200D01*
X44547724Y-12186090D01*
X44717555Y-12596124D01*
X45107842Y-13024383D01*
X45250753Y-13091498D01*
X44910053Y-13319146D01*
X44588146Y-13800915D01*
X44475107Y-14369200D01*
X40193591Y-14369200D01*
X40091054Y-13853715D01*
X39769147Y-13371946D01*
X39439974Y-13152000D01*
X39769147Y-12932054D01*
X40091054Y-12450285D01*
X40204093Y-11882000D01*
X40091054Y-11313715D01*
X39769147Y-10831946D01*
X39439974Y-10612000D01*
X39769147Y-10392054D01*
X40091054Y-9910285D01*
X40204093Y-9342000D01*
X40091054Y-8773715D01*
X39769147Y-8291946D01*
X39464840Y-8088615D01*
X39530086Y-8061656D01*
X39948188Y-7644283D01*
X40174742Y-7098681D01*
X40174958Y-6850800D01*
X44475107Y-6850800D01*
X44588146Y-7419085D01*
X44910053Y-7900854D01*
X44951652Y-7928650D01*
X44903883Y-7937638D01*
X44687759Y-8076710D01*
X44542769Y-8288910D01*
X44491760Y-8540800D01*
X44491760Y-10240800D01*
X44536038Y-10476117D01*
X44675110Y-10692241D01*
X44887310Y-10837231D01*
X44917141Y-10843272D01*
X44717555Y-11062276D01*
X44547724Y-11472310D01*
X44669045Y-11702200D01*
X45862200Y-11702200D01*
X45862200Y-11682200D01*
X46116200Y-11682200D01*
X46116200Y-11702200D01*
X47309355Y-11702200D01*
X47430676Y-11472310D01*
X47260845Y-11062276D01*
X47063737Y-10845990D01*
X47074517Y-10843962D01*
X47290641Y-10704890D01*
X47435631Y-10492690D01*
X47486640Y-10240800D01*
X47486640Y-8540800D01*
X47442362Y-8305483D01*
X47303290Y-8089359D01*
X47091090Y-7944369D01*
X47023659Y-7930714D01*
X47068347Y-7900854D01*
X47390254Y-7419085D01*
X47503293Y-6850800D01*
X47390254Y-6282515D01*
X47068347Y-5800746D01*
X46727647Y-5573098D01*
X46870558Y-5505983D01*
X47260845Y-5077724D01*
X47430676Y-4667690D01*
X47309355Y-4437800D01*
X46116200Y-4437800D01*
X46116200Y-4457800D01*
X45862200Y-4457800D01*
X45862200Y-4437800D01*
X44669045Y-4437800D01*
X44547724Y-4667690D01*
X44717555Y-5077724D01*
X45107842Y-5505983D01*
X45250753Y-5573098D01*
X44910053Y-5800746D01*
X44588146Y-6282515D01*
X44475107Y-6850800D01*
X40174958Y-6850800D01*
X40175257Y-6507911D01*
X39949656Y-5961914D01*
X39532283Y-5543812D01*
X38986681Y-5317258D01*
X38395911Y-5316743D01*
X37849914Y-5542344D01*
X37431812Y-5959717D01*
X37205258Y-6505319D01*
X37204743Y-7096089D01*
X37430344Y-7642086D01*
X37847717Y-8060188D01*
X37915550Y-8088355D01*
X37610853Y-8291946D01*
X37288946Y-8773715D01*
X37175907Y-9342000D01*
X17344093Y-9342000D01*
X17231054Y-8773715D01*
X16909147Y-8291946D01*
X16604840Y-8088615D01*
X16670086Y-8061656D01*
X17088188Y-7644283D01*
X17314742Y-7098681D01*
X17315257Y-6507911D01*
X17089656Y-5961914D01*
X16672283Y-5543812D01*
X16126681Y-5317258D01*
X15535911Y-5316743D01*
X14989914Y-5542344D01*
X14571812Y-5959717D01*
X14345258Y-6505319D01*
X14344743Y-7096089D01*
X14570344Y-7642086D01*
X14987717Y-8060188D01*
X15055550Y-8088355D01*
X14750853Y-8291946D01*
X14428946Y-8773715D01*
X14315907Y-9342000D01*
X12264093Y-9342000D01*
X12151054Y-8773715D01*
X11829147Y-8291946D01*
X11524840Y-8088615D01*
X11590086Y-8061656D01*
X12008188Y-7644283D01*
X12234742Y-7098681D01*
X12235257Y-6507911D01*
X12009656Y-5961914D01*
X11592283Y-5543812D01*
X11046681Y-5317258D01*
X10455911Y-5316743D01*
X9909914Y-5542344D01*
X9491812Y-5959717D01*
X9265258Y-6505319D01*
X9264743Y-7096089D01*
X9490344Y-7642086D01*
X9907717Y-8060188D01*
X9975550Y-8088355D01*
X9670853Y-8291946D01*
X9348946Y-8773715D01*
X9235907Y-9342000D01*
X9348946Y-9910285D01*
X9670853Y-10392054D01*
X10000026Y-10612000D01*
X9670853Y-10831946D01*
X9348946Y-11313715D01*
X9235907Y-11882000D01*
X9348946Y-12450285D01*
X9670853Y-12932054D01*
X10000026Y-13152000D01*
X9670853Y-13371946D01*
X9348946Y-13853715D01*
X9235907Y-14422000D01*
X9348946Y-14990285D01*
X9670853Y-15472054D01*
X10000026Y-15692000D01*
X9670853Y-15911946D01*
X9348946Y-16393715D01*
X9235907Y-16962000D01*
X9348946Y-17530285D01*
X9670853Y-18012054D01*
X10000026Y-18232000D01*
X9670853Y-18451946D01*
X9560568Y-18617000D01*
X9368579Y-18617000D01*
X8485000Y-17733420D01*
X8485000Y-11867585D01*
X8634820Y-11506777D01*
X8635179Y-11095029D01*
X8477942Y-10714485D01*
X8187046Y-10423081D01*
X7806777Y-10265180D01*
X7395029Y-10264821D01*
X7014485Y-10422058D01*
X6723081Y-10712954D01*
X6565180Y-11093223D01*
X6564821Y-11504971D01*
X735000Y-11504971D01*
X735000Y-8490000D01*
X2502560Y-8490000D01*
X2502560Y-10190000D01*
X2546838Y-10425317D01*
X2685910Y-10641441D01*
X2898110Y-10786431D01*
X3150000Y-10837440D01*
X4850000Y-10837440D01*
X5085317Y-10793162D01*
X5301441Y-10654090D01*
X5446431Y-10441890D01*
X5497440Y-10190000D01*
X5497440Y-8490000D01*
X5453162Y-8254683D01*
X5314090Y-8038559D01*
X5101890Y-7893569D01*
X4993893Y-7871699D01*
X5271645Y-7566924D01*
X5441476Y-7156890D01*
X5320155Y-6927000D01*
X4127000Y-6927000D01*
X4127000Y-6947000D01*
X3873000Y-6947000D01*
X3873000Y-6927000D01*
X2679845Y-6927000D01*
X2558524Y-7156890D01*
X2728355Y-7566924D01*
X3004501Y-7869937D01*
X2914683Y-7886838D01*
X2698559Y-8025910D01*
X2553569Y-8238110D01*
X2502560Y-8490000D01*
X735000Y-8490000D01*
X735000Y-6443110D01*
X2558524Y-6443110D01*
X2679845Y-6673000D01*
X3873000Y-6673000D01*
X3873000Y-5479181D01*
X4127000Y-5479181D01*
X4127000Y-6673000D01*
X5320155Y-6673000D01*
X5441476Y-6443110D01*
X5271645Y-6033076D01*
X4881358Y-5604817D01*
X4356892Y-5358514D01*
X4127000Y-5479181D01*
X3873000Y-5479181D01*
X3643108Y-5358514D01*
X3118642Y-5604817D01*
X2728355Y-6033076D01*
X2558524Y-6443110D01*
X735000Y-6443110D01*
X735000Y-3953910D01*
X44547724Y-3953910D01*
X44669045Y-4183800D01*
X45862200Y-4183800D01*
X45862200Y-2989981D01*
X46116200Y-2989981D01*
X46116200Y-4183800D01*
X47309355Y-4183800D01*
X47430676Y-3953910D01*
X47260845Y-3543876D01*
X46870558Y-3115617D01*
X46346092Y-2869314D01*
X46116200Y-2989981D01*
X45862200Y-2989981D01*
X45632308Y-2869314D01*
X45107842Y-3115617D01*
X44717555Y-3543876D01*
X44547724Y-3953910D01*
X735000Y-3953910D01*
X735000Y-735000D01*
X49265000Y-735000D01*
X49265000Y-49265000D01*
X49265000Y-49265000D01*
G37*
X49265000Y-49265000D02*
X5240214Y-49265000D01*
X5401054Y-49024285D01*
X5514093Y-48456000D01*
X5401054Y-47887715D01*
X5340367Y-47796890D01*
X44598524Y-47796890D01*
X44768355Y-48206924D01*
X45158642Y-48635183D01*
X45683108Y-48881486D01*
X45913000Y-48760819D01*
X45913000Y-47567000D01*
X46167000Y-47567000D01*
X46167000Y-48760819D01*
X46396892Y-48881486D01*
X46921358Y-48635183D01*
X47311645Y-48206924D01*
X47481476Y-47796890D01*
X47360155Y-47567000D01*
X46167000Y-47567000D01*
X45913000Y-47567000D01*
X44719845Y-47567000D01*
X44598524Y-47796890D01*
X5340367Y-47796890D01*
X5079147Y-47405946D01*
X5035223Y-47376597D01*
X5209698Y-47304327D01*
X5388327Y-47125699D01*
X5485000Y-46892310D01*
X5485000Y-46201750D01*
X5326250Y-46043000D01*
X4127000Y-46043000D01*
X4127000Y-46063000D01*
X3873000Y-46063000D01*
X3873000Y-46043000D01*
X2673750Y-46043000D01*
X2515000Y-46201750D01*
X2515000Y-46892310D01*
X2611673Y-47125699D01*
X2790302Y-47304327D01*
X2964777Y-47376597D01*
X2920853Y-47405946D01*
X2598946Y-47887715D01*
X2485907Y-48456000D01*
X2598946Y-49024285D01*
X2759786Y-49265000D01*
X735000Y-49265000D01*
X735000Y-44939690D01*
X2515000Y-44939690D01*
X2515000Y-45630250D01*
X2673750Y-45789000D01*
X3873000Y-45789000D01*
X3873000Y-44589750D01*
X4127000Y-44589750D01*
X4127000Y-45789000D01*
X5326250Y-45789000D01*
X5485000Y-45630250D01*
X5485000Y-45256890D01*
X44598524Y-45256890D01*
X44768355Y-45666924D01*
X45158642Y-46095183D01*
X45317954Y-46170000D01*
X45158642Y-46244817D01*
X44768355Y-46673076D01*
X44598524Y-47083110D01*
X44719845Y-47313000D01*
X45913000Y-47313000D01*
X45913000Y-45027000D01*
X46167000Y-45027000D01*
X46167000Y-47313000D01*
X47360155Y-47313000D01*
X47481476Y-47083110D01*
X47311645Y-46673076D01*
X46921358Y-46244817D01*
X46762046Y-46170000D01*
X46921358Y-46095183D01*
X47311645Y-45666924D01*
X47481476Y-45256890D01*
X47360155Y-45027000D01*
X46167000Y-45027000D01*
X45913000Y-45027000D01*
X44719845Y-45027000D01*
X44598524Y-45256890D01*
X5485000Y-45256890D01*
X5485000Y-44939690D01*
X5388327Y-44706301D01*
X5209698Y-44527673D01*
X4976309Y-44431000D01*
X4285750Y-44431000D01*
X4127000Y-44589750D01*
X3873000Y-44589750D01*
X3714250Y-44431000D01*
X3023691Y-44431000D01*
X2790302Y-44527673D01*
X2611673Y-44706301D01*
X2515000Y-44939690D01*
X735000Y-44939690D01*
X735000Y-40260000D01*
X2485907Y-40260000D01*
X2598946Y-40828285D01*
X2920853Y-41310054D01*
X2962452Y-41337850D01*
X2914683Y-41346838D01*
X2698559Y-41485910D01*
X2553569Y-41698110D01*
X2502560Y-41950000D01*
X2502560Y-43650000D01*
X2546838Y-43885317D01*
X2685910Y-44101441D01*
X2898110Y-44246431D01*
X3150000Y-44297440D01*
X4850000Y-44297440D01*
X5085317Y-44253162D01*
X5301441Y-44114090D01*
X5446431Y-43901890D01*
X5497440Y-43650000D01*
X5497440Y-42362000D01*
X9235907Y-42362000D01*
X9348946Y-42930285D01*
X9670853Y-43412054D01*
X10152622Y-43733961D01*
X10720907Y-43847000D01*
X10779093Y-43847000D01*
X11347378Y-43733961D01*
X11829147Y-43412054D01*
X12151054Y-42930285D01*
X12264093Y-42362000D01*
X12151054Y-41793715D01*
X11829147Y-41311946D01*
X11488447Y-41084298D01*
X11631358Y-41017183D01*
X12021645Y-40588924D01*
X12191476Y-40178890D01*
X12070155Y-39949000D01*
X10877000Y-39949000D01*
X10877000Y-39969000D01*
X10623000Y-39969000D01*
X10623000Y-39949000D01*
X9429845Y-39949000D01*
X9308524Y-40178890D01*
X9478355Y-40588924D01*
X9868642Y-41017183D01*
X10011553Y-41084298D01*
X9670853Y-41311946D01*
X9348946Y-41793715D01*
X9235907Y-42362000D01*
X5497440Y-42362000D01*
X5497440Y-41950000D01*
X5453162Y-41714683D01*
X5314090Y-41498559D01*
X5101890Y-41353569D01*
X5034459Y-41339914D01*
X5079147Y-41310054D01*
X5401054Y-40828285D01*
X5514093Y-40260000D01*
X5401054Y-39691715D01*
X5079147Y-39209946D01*
X4738447Y-38982298D01*
X4881358Y-38915183D01*
X5271645Y-38486924D01*
X5441476Y-38076890D01*
X5320155Y-37847000D01*
X4127000Y-37847000D01*
X4127000Y-37867000D01*
X3873000Y-37867000D01*
X3873000Y-37847000D01*
X2679845Y-37847000D01*
X2558524Y-38076890D01*
X2728355Y-38486924D01*
X3118642Y-38915183D01*
X3261553Y-38982298D01*
X2920853Y-39209946D01*
X2598946Y-39691715D01*
X2485907Y-40260000D01*
X735000Y-40260000D01*
X735000Y-37363110D01*
X2558524Y-37363110D01*
X2679845Y-37593000D01*
X3873000Y-37593000D01*
X3873000Y-36399181D01*
X4127000Y-36399181D01*
X4127000Y-37593000D01*
X5320155Y-37593000D01*
X5441476Y-37363110D01*
X5271645Y-36953076D01*
X4881358Y-36524817D01*
X4356892Y-36278514D01*
X4127000Y-36399181D01*
X3873000Y-36399181D01*
X3643108Y-36278514D01*
X3118642Y-36524817D01*
X2728355Y-36953076D01*
X2558524Y-37363110D01*
X735000Y-37363110D01*
X735000Y-35169890D01*
X2558524Y-35169890D01*
X2728355Y-35579924D01*
X3118642Y-36008183D01*
X3643108Y-36254486D01*
X3873000Y-36133819D01*
X3873000Y-34940000D01*
X4127000Y-34940000D01*
X4127000Y-36133819D01*
X4356892Y-36254486D01*
X4881358Y-36008183D01*
X5271645Y-35579924D01*
X5441476Y-35169890D01*
X5320155Y-34940000D01*
X4127000Y-34940000D01*
X3873000Y-34940000D01*
X2679845Y-34940000D01*
X2558524Y-35169890D01*
X735000Y-35169890D01*
X735000Y-29733000D01*
X2485907Y-29733000D01*
X2598946Y-30301285D01*
X2920853Y-30783054D01*
X3250026Y-31003000D01*
X2920853Y-31222946D01*
X2598946Y-31704715D01*
X2485907Y-32273000D01*
X2598946Y-32841285D01*
X2920853Y-33323054D01*
X3261553Y-33550702D01*
X3118642Y-33617817D01*
X2728355Y-34046076D01*
X2558524Y-34456110D01*
X2679845Y-34686000D01*
X3873000Y-34686000D01*
X3873000Y-34666000D01*
X4127000Y-34666000D01*
X4127000Y-34686000D01*
X5320155Y-34686000D01*
X5441476Y-34456110D01*
X5271645Y-34046076D01*
X4881358Y-33617817D01*
X4738447Y-33550702D01*
X5079147Y-33323054D01*
X5401054Y-32841285D01*
X5514093Y-32273000D01*
X5401054Y-31704715D01*
X5079147Y-31222946D01*
X4749974Y-31003000D01*
X5079147Y-30783054D01*
X5401054Y-30301285D01*
X5514093Y-29733000D01*
X5401054Y-29164715D01*
X5079147Y-28682946D01*
X5037548Y-28655150D01*
X5085317Y-28646162D01*
X5301441Y-28507090D01*
X5446431Y-28294890D01*
X5497440Y-28043000D01*
X5497440Y-26343000D01*
X5453162Y-26107683D01*
X5314090Y-25891559D01*
X5101890Y-25746569D01*
X4850000Y-25695560D01*
X3150000Y-25695560D01*
X2914683Y-25739838D01*
X2698559Y-25878910D01*
X2553569Y-26091110D01*
X2502560Y-26343000D01*
X2502560Y-28043000D01*
X2546838Y-28278317D01*
X2685910Y-28494441D01*
X2898110Y-28639431D01*
X2965541Y-28653086D01*
X2920853Y-28682946D01*
X2598946Y-29164715D01*
X2485907Y-29733000D01*
X735000Y-29733000D01*
X735000Y-24582000D01*
X9235907Y-24582000D01*
X9348946Y-25150285D01*
X9670853Y-25632054D01*
X10000026Y-25852000D01*
X9670853Y-26071946D01*
X9348946Y-26553715D01*
X9235907Y-27122000D01*
X9348946Y-27690285D01*
X9670853Y-28172054D01*
X10000026Y-28392000D01*
X9670853Y-28611946D01*
X9348946Y-29093715D01*
X9235907Y-29662000D01*
X9348946Y-30230285D01*
X9670853Y-30712054D01*
X10000026Y-30932000D01*
X9670853Y-31151946D01*
X9348946Y-31633715D01*
X9235907Y-32202000D01*
X9348946Y-32770285D01*
X9670853Y-33252054D01*
X10000026Y-33472000D01*
X9670853Y-33691946D01*
X9348946Y-34173715D01*
X9235907Y-34742000D01*
X9348946Y-35310285D01*
X9670853Y-35792054D01*
X10000026Y-36012000D01*
X9670853Y-36231946D01*
X9348946Y-36713715D01*
X9235907Y-37282000D01*
X9348946Y-37850285D01*
X9670853Y-38332054D01*
X10011553Y-38559702D01*
X9868642Y-38626817D01*
X9478355Y-39055076D01*
X9308524Y-39465110D01*
X9429845Y-39695000D01*
X10623000Y-39695000D01*
X10623000Y-39675000D01*
X10877000Y-39675000D01*
X10877000Y-39695000D01*
X12070155Y-39695000D01*
X12191476Y-39465110D01*
X12021645Y-39055076D01*
X11631358Y-38626817D01*
X11488447Y-38559702D01*
X11829147Y-38332054D01*
X12151054Y-37850285D01*
X12264093Y-37282000D01*
X12151054Y-36713715D01*
X11829147Y-36231946D01*
X11499974Y-36012000D01*
X11829147Y-35792054D01*
X12151054Y-35310285D01*
X12264093Y-34742000D01*
X12151054Y-34173715D01*
X11829147Y-33691946D01*
X11499974Y-33472000D01*
X11829147Y-33252054D01*
X12151054Y-32770285D01*
X12264093Y-32202000D01*
X12151054Y-31633715D01*
X11829147Y-31151946D01*
X11499974Y-30932000D01*
X11829147Y-30712054D01*
X12151054Y-30230285D01*
X12264093Y-29662000D01*
X12151054Y-29093715D01*
X11829147Y-28611946D01*
X11499974Y-28392000D01*
X11829147Y-28172054D01*
X12151054Y-27690285D01*
X12264093Y-27122000D01*
X12151054Y-26553715D01*
X11829147Y-26071946D01*
X11499974Y-25852000D01*
X11829147Y-25632054D01*
X12151054Y-25150285D01*
X12264093Y-24582000D01*
X12151054Y-24013715D01*
X11829147Y-23531946D01*
X11488447Y-23304298D01*
X11631358Y-23237183D01*
X12021645Y-22808924D01*
X12191476Y-22398890D01*
X12070155Y-22169000D01*
X10877000Y-22169000D01*
X10877000Y-22189000D01*
X10623000Y-22189000D01*
X10623000Y-22169000D01*
X9429845Y-22169000D01*
X9308524Y-22398890D01*
X9478355Y-22808924D01*
X9868642Y-23237183D01*
X10011553Y-23304298D01*
X9670853Y-23531946D01*
X9348946Y-24013715D01*
X9235907Y-24582000D01*
X735000Y-24582000D01*
X735000Y-19896890D01*
X2558524Y-19896890D01*
X2728355Y-20306924D01*
X3118642Y-20735183D01*
X3643108Y-20981486D01*
X3873000Y-20860819D01*
X3873000Y-19667000D01*
X4127000Y-19667000D01*
X4127000Y-20860819D01*
X4356892Y-20981486D01*
X4881358Y-20735183D01*
X5271645Y-20306924D01*
X5441476Y-19896890D01*
X5320155Y-19667000D01*
X4127000Y-19667000D01*
X3873000Y-19667000D01*
X2679845Y-19667000D01*
X2558524Y-19896890D01*
X735000Y-19896890D01*
X735000Y-17000000D01*
X2485907Y-17000000D01*
X2598946Y-17568285D01*
X2920853Y-18050054D01*
X3261553Y-18277702D01*
X3118642Y-18344817D01*
X2728355Y-18773076D01*
X2558524Y-19183110D01*
X2679845Y-19413000D01*
X3873000Y-19413000D01*
X3873000Y-19393000D01*
X4127000Y-19393000D01*
X4127000Y-19413000D01*
X5320155Y-19413000D01*
X5441476Y-19183110D01*
X5271645Y-18773076D01*
X4881358Y-18344817D01*
X4738447Y-18277702D01*
X5079147Y-18050054D01*
X5401054Y-17568285D01*
X5514093Y-17000000D01*
X5401054Y-16431715D01*
X5079147Y-15949946D01*
X5037548Y-15922150D01*
X5085317Y-15913162D01*
X5301441Y-15774090D01*
X5446431Y-15561890D01*
X5497440Y-15310000D01*
X5497440Y-13610000D01*
X5453162Y-13374683D01*
X5314090Y-13158559D01*
X5101890Y-13013569D01*
X4850000Y-12962560D01*
X3150000Y-12962560D01*
X2914683Y-13006838D01*
X2698559Y-13145910D01*
X2553569Y-13358110D01*
X2502560Y-13610000D01*
X2502560Y-15310000D01*
X2546838Y-15545317D01*
X2685910Y-15761441D01*
X2898110Y-15906431D01*
X2965541Y-15920086D01*
X2920853Y-15949946D01*
X2598946Y-16431715D01*
X2485907Y-17000000D01*
X735000Y-17000000D01*
X735000Y-11504971D01*
X6564821Y-11504971D01*
X6715000Y-11868433D01*
X6715000Y-18099995D01*
X6714999Y-18100000D01*
X6755741Y-18304817D01*
X6782367Y-18438675D01*
X6946532Y-18684367D01*
X6974210Y-18725790D01*
X8376208Y-20127787D01*
X8376210Y-20127790D01*
X8584440Y-20266924D01*
X8663325Y-20319633D01*
X9002000Y-20387000D01*
X9560568Y-20387000D01*
X9670853Y-20552054D01*
X10011553Y-20779702D01*
X9868642Y-20846817D01*
X9478355Y-21275076D01*
X9308524Y-21685110D01*
X9429845Y-21915000D01*
X10623000Y-21915000D01*
X10623000Y-21895000D01*
X10877000Y-21895000D01*
X10877000Y-21915000D01*
X12070155Y-21915000D01*
X12191476Y-21685110D01*
X12021645Y-21275076D01*
X11631358Y-20846817D01*
X11488447Y-20779702D01*
X11829147Y-20552054D01*
X12151054Y-20070285D01*
X12264093Y-19502000D01*
X12151054Y-18933715D01*
X11829147Y-18451946D01*
X11499974Y-18232000D01*
X11829147Y-18012054D01*
X12151054Y-17530285D01*
X12264093Y-16962000D01*
X12151054Y-16393715D01*
X11829147Y-15911946D01*
X11499974Y-15692000D01*
X11829147Y-15472054D01*
X12151054Y-14990285D01*
X12264093Y-14422000D01*
X12151054Y-13853715D01*
X11829147Y-13371946D01*
X11499974Y-13152000D01*
X11829147Y-12932054D01*
X12151054Y-12450285D01*
X12264093Y-11882000D01*
X12151054Y-11313715D01*
X11829147Y-10831946D01*
X11499974Y-10612000D01*
X11829147Y-10392054D01*
X12151054Y-9910285D01*
X12264093Y-9342000D01*
X14315907Y-9342000D01*
X14428946Y-9910285D01*
X14750853Y-10392054D01*
X15080026Y-10612000D01*
X14750853Y-10831946D01*
X14428946Y-11313715D01*
X14315907Y-11882000D01*
X14428946Y-12450285D01*
X14750853Y-12932054D01*
X15080026Y-13152000D01*
X14750853Y-13371946D01*
X14428946Y-13853715D01*
X14315907Y-14422000D01*
X14428946Y-14990285D01*
X14750853Y-15472054D01*
X15080026Y-15692000D01*
X14750853Y-15911946D01*
X14428946Y-16393715D01*
X14315907Y-16962000D01*
X14428946Y-17530285D01*
X14750853Y-18012054D01*
X15080026Y-18232000D01*
X14750853Y-18451946D01*
X14428946Y-18933715D01*
X14315907Y-19502000D01*
X14428946Y-20070285D01*
X14750853Y-20552054D01*
X15091553Y-20779702D01*
X14948642Y-20846817D01*
X14558355Y-21275076D01*
X14388524Y-21685110D01*
X14509845Y-21915000D01*
X15703000Y-21915000D01*
X15703000Y-21895000D01*
X15957000Y-21895000D01*
X15957000Y-21915000D01*
X15977000Y-21915000D01*
X15977000Y-22169000D01*
X15957000Y-22169000D01*
X15957000Y-22189000D01*
X15703000Y-22189000D01*
X15703000Y-22169000D01*
X14509845Y-22169000D01*
X14388524Y-22398890D01*
X14558355Y-22808924D01*
X14948642Y-23237183D01*
X15091553Y-23304298D01*
X14750853Y-23531946D01*
X14428946Y-24013715D01*
X14315907Y-24582000D01*
X14428946Y-25150285D01*
X14750853Y-25632054D01*
X15080026Y-25852000D01*
X14750853Y-26071946D01*
X14428946Y-26553715D01*
X14315907Y-27122000D01*
X14428946Y-27690285D01*
X14750853Y-28172054D01*
X15080026Y-28392000D01*
X14750853Y-28611946D01*
X14428946Y-29093715D01*
X14315907Y-29662000D01*
X14428946Y-30230285D01*
X14750853Y-30712054D01*
X15080026Y-30932000D01*
X14750853Y-31151946D01*
X14428946Y-31633715D01*
X14315907Y-32202000D01*
X14428946Y-32770285D01*
X14750853Y-33252054D01*
X15080026Y-33472000D01*
X14750853Y-33691946D01*
X14428946Y-34173715D01*
X14315907Y-34742000D01*
X14428946Y-35310285D01*
X14750853Y-35792054D01*
X15080026Y-36012000D01*
X14750853Y-36231946D01*
X14428946Y-36713715D01*
X14315907Y-37282000D01*
X14428946Y-37850285D01*
X14750853Y-38332054D01*
X15091553Y-38559702D01*
X14948642Y-38626817D01*
X14558355Y-39055076D01*
X14388524Y-39465110D01*
X14509845Y-39695000D01*
X15703000Y-39695000D01*
X15703000Y-39675000D01*
X15957000Y-39675000D01*
X15957000Y-39695000D01*
X17150155Y-39695000D01*
X17271476Y-39465110D01*
X17101645Y-39055076D01*
X16711358Y-38626817D01*
X16568447Y-38559702D01*
X16909147Y-38332054D01*
X17231054Y-37850285D01*
X17344093Y-37282000D01*
X17231054Y-36713715D01*
X16909147Y-36231946D01*
X16579974Y-36012000D01*
X16909147Y-35792054D01*
X17231054Y-35310285D01*
X17344093Y-34742000D01*
X17231054Y-34173715D01*
X16909147Y-33691946D01*
X16579974Y-33472000D01*
X16909147Y-33252054D01*
X17231054Y-32770285D01*
X17344093Y-32202000D01*
X17231054Y-31633715D01*
X16909147Y-31151946D01*
X16579974Y-30932000D01*
X16909147Y-30712054D01*
X17231054Y-30230285D01*
X17344093Y-29662000D01*
X17231054Y-29093715D01*
X16909147Y-28611946D01*
X16579974Y-28392000D01*
X16909147Y-28172054D01*
X17231054Y-27690285D01*
X17344093Y-27122000D01*
X17231054Y-26553715D01*
X16909147Y-26071946D01*
X16579974Y-25852000D01*
X16909147Y-25632054D01*
X17231054Y-25150285D01*
X17344093Y-24582000D01*
X17231054Y-24013715D01*
X16909147Y-23531946D01*
X16568447Y-23304298D01*
X16711358Y-23237183D01*
X17101645Y-22808924D01*
X17271476Y-22398890D01*
X17150156Y-22169002D01*
X17315000Y-22169002D01*
X17315000Y-22070579D01*
X27446421Y-32202000D01*
X18171420Y-41477000D01*
X17019432Y-41477000D01*
X16909147Y-41311946D01*
X16568447Y-41084298D01*
X16711358Y-41017183D01*
X17101645Y-40588924D01*
X17271476Y-40178890D01*
X17150155Y-39949000D01*
X15957000Y-39949000D01*
X15957000Y-39969000D01*
X15703000Y-39969000D01*
X15703000Y-39949000D01*
X14509845Y-39949000D01*
X14388524Y-40178890D01*
X14558355Y-40588924D01*
X14948642Y-41017183D01*
X15091553Y-41084298D01*
X14750853Y-41311946D01*
X14428946Y-41793715D01*
X14315907Y-42362000D01*
X14428946Y-42930285D01*
X14750853Y-43412054D01*
X15232622Y-43733961D01*
X15800907Y-43847000D01*
X15859093Y-43847000D01*
X16427378Y-43733961D01*
X16909147Y-43412054D01*
X17019432Y-43247000D01*
X18537995Y-43247000D01*
X18538000Y-43247001D01*
X18820484Y-43190810D01*
X18876675Y-43179633D01*
X19163790Y-42987790D01*
X19789579Y-42362000D01*
X37175907Y-42362000D01*
X37288946Y-42930285D01*
X37610853Y-43412054D01*
X38092622Y-43733961D01*
X38660907Y-43847000D01*
X38719093Y-43847000D01*
X39287378Y-43733961D01*
X39769147Y-43412054D01*
X40091054Y-42930285D01*
X40204093Y-42362000D01*
X40091054Y-41793715D01*
X39769147Y-41311946D01*
X39428447Y-41084298D01*
X39571358Y-41017183D01*
X39961645Y-40588924D01*
X40131476Y-40178890D01*
X40010155Y-39949000D01*
X38817000Y-39949000D01*
X38817000Y-39969000D01*
X38563000Y-39969000D01*
X38563000Y-39949000D01*
X37369845Y-39949000D01*
X37248524Y-40178890D01*
X37418355Y-40588924D01*
X37808642Y-41017183D01*
X37951553Y-41084298D01*
X37610853Y-41311946D01*
X37288946Y-41793715D01*
X37175907Y-42362000D01*
X19789579Y-42362000D01*
X29064579Y-33087000D01*
X37500568Y-33087000D01*
X37610853Y-33252054D01*
X37940026Y-33472000D01*
X37610853Y-33691946D01*
X37288946Y-34173715D01*
X37175907Y-34742000D01*
X37288946Y-35310285D01*
X37610853Y-35792054D01*
X37940026Y-36012000D01*
X37610853Y-36231946D01*
X37288946Y-36713715D01*
X37175907Y-37282000D01*
X37288946Y-37850285D01*
X37610853Y-38332054D01*
X37951553Y-38559702D01*
X37808642Y-38626817D01*
X37418355Y-39055076D01*
X37248524Y-39465110D01*
X37369845Y-39695000D01*
X38563000Y-39695000D01*
X38563000Y-39675000D01*
X38817000Y-39675000D01*
X38817000Y-39695000D01*
X40010155Y-39695000D01*
X40131476Y-39465110D01*
X39961645Y-39055076D01*
X39571358Y-38626817D01*
X39428447Y-38559702D01*
X39769147Y-38332054D01*
X40091054Y-37850285D01*
X40204093Y-37282000D01*
X40091054Y-36713715D01*
X39989309Y-36561442D01*
X40164509Y-36561442D01*
X40595202Y-37603801D01*
X41373248Y-38383205D01*
X41182559Y-38505910D01*
X41037569Y-38718110D01*
X40986560Y-38970000D01*
X40986560Y-40670000D01*
X41030838Y-40905317D01*
X41169910Y-41121441D01*
X41382110Y-41266431D01*
X41449541Y-41280086D01*
X41404853Y-41309946D01*
X41082946Y-41791715D01*
X40969907Y-42360000D01*
X41082946Y-42928285D01*
X41404853Y-43410054D01*
X41886622Y-43731961D01*
X42454907Y-43845000D01*
X42513093Y-43845000D01*
X43081378Y-43731961D01*
X43563147Y-43410054D01*
X43885054Y-42928285D01*
X43998093Y-42360000D01*
X44525907Y-42360000D01*
X44638946Y-42928285D01*
X44960853Y-43410054D01*
X45301553Y-43637702D01*
X45158642Y-43704817D01*
X44768355Y-44133076D01*
X44598524Y-44543110D01*
X44719845Y-44773000D01*
X45913000Y-44773000D01*
X45913000Y-44753000D01*
X46167000Y-44753000D01*
X46167000Y-44773000D01*
X47360155Y-44773000D01*
X47481476Y-44543110D01*
X47311645Y-44133076D01*
X46921358Y-43704817D01*
X46778447Y-43637702D01*
X47119147Y-43410054D01*
X47441054Y-42928285D01*
X47554093Y-42360000D01*
X47441054Y-41791715D01*
X47119147Y-41309946D01*
X47077548Y-41282150D01*
X47125317Y-41273162D01*
X47341441Y-41134090D01*
X47486431Y-40921890D01*
X47537440Y-40670000D01*
X47537440Y-38970000D01*
X47493162Y-38734683D01*
X47354090Y-38518559D01*
X47141890Y-38373569D01*
X46890000Y-38322560D01*
X45190000Y-38322560D01*
X44954683Y-38366838D01*
X44738559Y-38505910D01*
X44593569Y-38718110D01*
X44542560Y-38970000D01*
X44542560Y-40670000D01*
X44586838Y-40905317D01*
X44725910Y-41121441D01*
X44938110Y-41266431D01*
X45005541Y-41280086D01*
X44960853Y-41309946D01*
X44638946Y-41791715D01*
X44525907Y-42360000D01*
X43998093Y-42360000D01*
X43885054Y-41791715D01*
X43563147Y-41309946D01*
X43521548Y-41282150D01*
X43569317Y-41273162D01*
X43785441Y-41134090D01*
X43930431Y-40921890D01*
X43981440Y-40670000D01*
X43981440Y-38970000D01*
X43937162Y-38734683D01*
X43909491Y-38691681D01*
X44603801Y-38404798D01*
X45401995Y-37607995D01*
X45834507Y-36566390D01*
X45835491Y-35438558D01*
X45404798Y-34396199D01*
X44607995Y-33598005D01*
X43566390Y-33165493D01*
X42438558Y-33164509D01*
X41396199Y-33595202D01*
X40598005Y-34392005D01*
X40165493Y-35433610D01*
X40164509Y-36561442D01*
X39989309Y-36561442D01*
X39769147Y-36231946D01*
X39439974Y-36012000D01*
X39769147Y-35792054D01*
X40091054Y-35310285D01*
X40204093Y-34742000D01*
X40091054Y-34173715D01*
X39769147Y-33691946D01*
X39439974Y-33472000D01*
X39769147Y-33252054D01*
X40091054Y-32770285D01*
X40204093Y-32202000D01*
X40091054Y-31633715D01*
X39901483Y-31350000D01*
X44542560Y-31350000D01*
X44542560Y-33050000D01*
X44586838Y-33285317D01*
X44725910Y-33501441D01*
X44938110Y-33646431D01*
X45190000Y-33697440D01*
X46890000Y-33697440D01*
X47125317Y-33653162D01*
X47341441Y-33514090D01*
X47486431Y-33301890D01*
X47537440Y-33050000D01*
X47537440Y-31350000D01*
X47493162Y-31114683D01*
X47354090Y-30898559D01*
X47141890Y-30753569D01*
X47033893Y-30731699D01*
X47311645Y-30426924D01*
X47481476Y-30016890D01*
X47360155Y-29787000D01*
X46167000Y-29787000D01*
X46167000Y-29807000D01*
X45913000Y-29807000D01*
X45913000Y-29787000D01*
X44719845Y-29787000D01*
X44598524Y-30016890D01*
X44768355Y-30426924D01*
X45044501Y-30729937D01*
X44954683Y-30746838D01*
X44738559Y-30885910D01*
X44593569Y-31098110D01*
X44542560Y-31350000D01*
X39901483Y-31350000D01*
X39769147Y-31151946D01*
X39428447Y-30924298D01*
X39571358Y-30857183D01*
X39961645Y-30428924D01*
X40131476Y-30018890D01*
X40010155Y-29789000D01*
X38817000Y-29789000D01*
X38817000Y-29809000D01*
X38563000Y-29809000D01*
X38563000Y-29789000D01*
X37369845Y-29789000D01*
X37248524Y-30018890D01*
X37418355Y-30428924D01*
X37808642Y-30857183D01*
X37951553Y-30924298D01*
X37610853Y-31151946D01*
X37500568Y-31317000D01*
X29064579Y-31317000D01*
X17328412Y-19580832D01*
X17344093Y-19502000D01*
X17231054Y-18933715D01*
X16909147Y-18451946D01*
X16579974Y-18232000D01*
X16909147Y-18012054D01*
X17231054Y-17530285D01*
X17344093Y-16962000D01*
X17231054Y-16393715D01*
X16909147Y-15911946D01*
X16579974Y-15692000D01*
X16909147Y-15472054D01*
X17231054Y-14990285D01*
X17344093Y-14422000D01*
X17231054Y-13853715D01*
X16909147Y-13371946D01*
X16579974Y-13152000D01*
X16909147Y-12932054D01*
X17231054Y-12450285D01*
X17344093Y-11882000D01*
X17231054Y-11313715D01*
X16909147Y-10831946D01*
X16579974Y-10612000D01*
X16909147Y-10392054D01*
X17231054Y-9910285D01*
X17344093Y-9342000D01*
X37175907Y-9342000D01*
X37288946Y-9910285D01*
X37610853Y-10392054D01*
X37940026Y-10612000D01*
X37610853Y-10831946D01*
X37288946Y-11313715D01*
X37175907Y-11882000D01*
X37288946Y-12450285D01*
X37610853Y-12932054D01*
X37940026Y-13152000D01*
X37610853Y-13371946D01*
X37288946Y-13853715D01*
X37175907Y-14422000D01*
X37288946Y-14990285D01*
X37610853Y-15472054D01*
X37940026Y-15692000D01*
X37610853Y-15911946D01*
X37288946Y-16393715D01*
X37175907Y-16962000D01*
X37288946Y-17530285D01*
X37610853Y-18012054D01*
X37940026Y-18232000D01*
X37610853Y-18451946D01*
X37288946Y-18933715D01*
X37175907Y-19502000D01*
X37288946Y-20070285D01*
X37610853Y-20552054D01*
X37940026Y-20772000D01*
X37610853Y-20991946D01*
X37288946Y-21473715D01*
X37175907Y-22042000D01*
X37288946Y-22610285D01*
X37610853Y-23092054D01*
X37940026Y-23312000D01*
X37610853Y-23531946D01*
X37288946Y-24013715D01*
X37175907Y-24582000D01*
X37288946Y-25150285D01*
X37610853Y-25632054D01*
X37940026Y-25852000D01*
X37610853Y-26071946D01*
X37288946Y-26553715D01*
X37175907Y-27122000D01*
X37288946Y-27690285D01*
X37610853Y-28172054D01*
X37951553Y-28399702D01*
X37808642Y-28466817D01*
X37418355Y-28895076D01*
X37248524Y-29305110D01*
X37369845Y-29535000D01*
X38563000Y-29535000D01*
X38563000Y-29515000D01*
X38817000Y-29515000D01*
X38817000Y-29535000D01*
X40010155Y-29535000D01*
X40131476Y-29305110D01*
X40130648Y-29303110D01*
X44598524Y-29303110D01*
X44719845Y-29533000D01*
X45913000Y-29533000D01*
X45913000Y-28339181D01*
X46167000Y-28339181D01*
X46167000Y-29533000D01*
X47360155Y-29533000D01*
X47481476Y-29303110D01*
X47311645Y-28893076D01*
X46921358Y-28464817D01*
X46396892Y-28218514D01*
X46167000Y-28339181D01*
X45913000Y-28339181D01*
X45683108Y-28218514D01*
X45158642Y-28464817D01*
X44768355Y-28893076D01*
X44598524Y-29303110D01*
X40130648Y-29303110D01*
X39961645Y-28895076D01*
X39571358Y-28466817D01*
X39428447Y-28399702D01*
X39769147Y-28172054D01*
X40091054Y-27690285D01*
X40204093Y-27122000D01*
X40091054Y-26553715D01*
X39769147Y-26071946D01*
X39439974Y-25852000D01*
X39769147Y-25632054D01*
X40091054Y-25150285D01*
X40204093Y-24582000D01*
X40091054Y-24013715D01*
X39769147Y-23531946D01*
X39439974Y-23312000D01*
X39769147Y-23092054D01*
X40091054Y-22610285D01*
X40204093Y-22042000D01*
X40203696Y-22040000D01*
X44475107Y-22040000D01*
X44588146Y-22608285D01*
X44910053Y-23090054D01*
X44951652Y-23117850D01*
X44903883Y-23126838D01*
X44687759Y-23265910D01*
X44542769Y-23478110D01*
X44491760Y-23730000D01*
X44491760Y-25430000D01*
X44536038Y-25665317D01*
X44675110Y-25881441D01*
X44887310Y-26026431D01*
X45139200Y-26077440D01*
X46839200Y-26077440D01*
X47074517Y-26033162D01*
X47290641Y-25894090D01*
X47435631Y-25681890D01*
X47486640Y-25430000D01*
X47486640Y-23730000D01*
X47442362Y-23494683D01*
X47303290Y-23278559D01*
X47091090Y-23133569D01*
X47023659Y-23119914D01*
X47068347Y-23090054D01*
X47390254Y-22608285D01*
X47503293Y-22040000D01*
X47390254Y-21471715D01*
X47068347Y-20989946D01*
X46727647Y-20762298D01*
X46870558Y-20695183D01*
X47260845Y-20266924D01*
X47430676Y-19856890D01*
X47309355Y-19627000D01*
X46116200Y-19627000D01*
X46116200Y-19647000D01*
X45862200Y-19647000D01*
X45862200Y-19627000D01*
X44669045Y-19627000D01*
X44547724Y-19856890D01*
X44717555Y-20266924D01*
X45107842Y-20695183D01*
X45250753Y-20762298D01*
X44910053Y-20989946D01*
X44588146Y-21471715D01*
X44475107Y-22040000D01*
X40203696Y-22040000D01*
X40091054Y-21473715D01*
X39769147Y-20991946D01*
X39439974Y-20772000D01*
X39769147Y-20552054D01*
X40091054Y-20070285D01*
X40204093Y-19502000D01*
X40091054Y-18933715D01*
X39769147Y-18451946D01*
X39439974Y-18232000D01*
X39769147Y-18012054D01*
X40091054Y-17530285D01*
X40204093Y-16962000D01*
X40091054Y-16393715D01*
X39769147Y-15911946D01*
X39439974Y-15692000D01*
X39769147Y-15472054D01*
X40091054Y-14990285D01*
X40204093Y-14422000D01*
X40193591Y-14369200D01*
X44475107Y-14369200D01*
X44588146Y-14937485D01*
X44910053Y-15419254D01*
X44951652Y-15447050D01*
X44903883Y-15456038D01*
X44687759Y-15595110D01*
X44542769Y-15807310D01*
X44491760Y-16059200D01*
X44491760Y-17759200D01*
X44536038Y-17994517D01*
X44675110Y-18210641D01*
X44887310Y-18355631D01*
X45034390Y-18385415D01*
X44717555Y-18733076D01*
X44547724Y-19143110D01*
X44669045Y-19373000D01*
X45862200Y-19373000D01*
X45862200Y-19353000D01*
X46116200Y-19353000D01*
X46116200Y-19373000D01*
X47309355Y-19373000D01*
X47430676Y-19143110D01*
X47260845Y-18733076D01*
X46945179Y-18386699D01*
X47074517Y-18362362D01*
X47290641Y-18223290D01*
X47435631Y-18011090D01*
X47486640Y-17759200D01*
X47486640Y-16059200D01*
X47442362Y-15823883D01*
X47303290Y-15607759D01*
X47091090Y-15462769D01*
X47023659Y-15449114D01*
X47068347Y-15419254D01*
X47390254Y-14937485D01*
X47503293Y-14369200D01*
X47390254Y-13800915D01*
X47068347Y-13319146D01*
X46727647Y-13091498D01*
X46870558Y-13024383D01*
X47260845Y-12596124D01*
X47430676Y-12186090D01*
X47309355Y-11956200D01*
X46116200Y-11956200D01*
X46116200Y-11976200D01*
X45862200Y-11976200D01*
X45862200Y-11956200D01*
X44669045Y-11956200D01*
X44547724Y-12186090D01*
X44717555Y-12596124D01*
X45107842Y-13024383D01*
X45250753Y-13091498D01*
X44910053Y-13319146D01*
X44588146Y-13800915D01*
X44475107Y-14369200D01*
X40193591Y-14369200D01*
X40091054Y-13853715D01*
X39769147Y-13371946D01*
X39439974Y-13152000D01*
X39769147Y-12932054D01*
X40091054Y-12450285D01*
X40204093Y-11882000D01*
X40091054Y-11313715D01*
X39769147Y-10831946D01*
X39439974Y-10612000D01*
X39769147Y-10392054D01*
X40091054Y-9910285D01*
X40204093Y-9342000D01*
X40091054Y-8773715D01*
X39769147Y-8291946D01*
X39464840Y-8088615D01*
X39530086Y-8061656D01*
X39948188Y-7644283D01*
X40174742Y-7098681D01*
X40174958Y-6850800D01*
X44475107Y-6850800D01*
X44588146Y-7419085D01*
X44910053Y-7900854D01*
X44951652Y-7928650D01*
X44903883Y-7937638D01*
X44687759Y-8076710D01*
X44542769Y-8288910D01*
X44491760Y-8540800D01*
X44491760Y-10240800D01*
X44536038Y-10476117D01*
X44675110Y-10692241D01*
X44887310Y-10837231D01*
X44917141Y-10843272D01*
X44717555Y-11062276D01*
X44547724Y-11472310D01*
X44669045Y-11702200D01*
X45862200Y-11702200D01*
X45862200Y-11682200D01*
X46116200Y-11682200D01*
X46116200Y-11702200D01*
X47309355Y-11702200D01*
X47430676Y-11472310D01*
X47260845Y-11062276D01*
X47063737Y-10845990D01*
X47074517Y-10843962D01*
X47290641Y-10704890D01*
X47435631Y-10492690D01*
X47486640Y-10240800D01*
X47486640Y-8540800D01*
X47442362Y-8305483D01*
X47303290Y-8089359D01*
X47091090Y-7944369D01*
X47023659Y-7930714D01*
X47068347Y-7900854D01*
X47390254Y-7419085D01*
X47503293Y-6850800D01*
X47390254Y-6282515D01*
X47068347Y-5800746D01*
X46727647Y-5573098D01*
X46870558Y-5505983D01*
X47260845Y-5077724D01*
X47430676Y-4667690D01*
X47309355Y-4437800D01*
X46116200Y-4437800D01*
X46116200Y-4457800D01*
X45862200Y-4457800D01*
X45862200Y-4437800D01*
X44669045Y-4437800D01*
X44547724Y-4667690D01*
X44717555Y-5077724D01*
X45107842Y-5505983D01*
X45250753Y-5573098D01*
X44910053Y-5800746D01*
X44588146Y-6282515D01*
X44475107Y-6850800D01*
X40174958Y-6850800D01*
X40175257Y-6507911D01*
X39949656Y-5961914D01*
X39532283Y-5543812D01*
X38986681Y-5317258D01*
X38395911Y-5316743D01*
X37849914Y-5542344D01*
X37431812Y-5959717D01*
X37205258Y-6505319D01*
X37204743Y-7096089D01*
X37430344Y-7642086D01*
X37847717Y-8060188D01*
X37915550Y-8088355D01*
X37610853Y-8291946D01*
X37288946Y-8773715D01*
X37175907Y-9342000D01*
X17344093Y-9342000D01*
X17231054Y-8773715D01*
X16909147Y-8291946D01*
X16604840Y-8088615D01*
X16670086Y-8061656D01*
X17088188Y-7644283D01*
X17314742Y-7098681D01*
X17315257Y-6507911D01*
X17089656Y-5961914D01*
X16672283Y-5543812D01*
X16126681Y-5317258D01*
X15535911Y-5316743D01*
X14989914Y-5542344D01*
X14571812Y-5959717D01*
X14345258Y-6505319D01*
X14344743Y-7096089D01*
X14570344Y-7642086D01*
X14987717Y-8060188D01*
X15055550Y-8088355D01*
X14750853Y-8291946D01*
X14428946Y-8773715D01*
X14315907Y-9342000D01*
X12264093Y-9342000D01*
X12151054Y-8773715D01*
X11829147Y-8291946D01*
X11524840Y-8088615D01*
X11590086Y-8061656D01*
X12008188Y-7644283D01*
X12234742Y-7098681D01*
X12235257Y-6507911D01*
X12009656Y-5961914D01*
X11592283Y-5543812D01*
X11046681Y-5317258D01*
X10455911Y-5316743D01*
X9909914Y-5542344D01*
X9491812Y-5959717D01*
X9265258Y-6505319D01*
X9264743Y-7096089D01*
X9490344Y-7642086D01*
X9907717Y-8060188D01*
X9975550Y-8088355D01*
X9670853Y-8291946D01*
X9348946Y-8773715D01*
X9235907Y-9342000D01*
X9348946Y-9910285D01*
X9670853Y-10392054D01*
X10000026Y-10612000D01*
X9670853Y-10831946D01*
X9348946Y-11313715D01*
X9235907Y-11882000D01*
X9348946Y-12450285D01*
X9670853Y-12932054D01*
X10000026Y-13152000D01*
X9670853Y-13371946D01*
X9348946Y-13853715D01*
X9235907Y-14422000D01*
X9348946Y-14990285D01*
X9670853Y-15472054D01*
X10000026Y-15692000D01*
X9670853Y-15911946D01*
X9348946Y-16393715D01*
X9235907Y-16962000D01*
X9348946Y-17530285D01*
X9670853Y-18012054D01*
X10000026Y-18232000D01*
X9670853Y-18451946D01*
X9560568Y-18617000D01*
X9368579Y-18617000D01*
X8485000Y-17733420D01*
X8485000Y-11867585D01*
X8634820Y-11506777D01*
X8635179Y-11095029D01*
X8477942Y-10714485D01*
X8187046Y-10423081D01*
X7806777Y-10265180D01*
X7395029Y-10264821D01*
X7014485Y-10422058D01*
X6723081Y-10712954D01*
X6565180Y-11093223D01*
X6564821Y-11504971D01*
X735000Y-11504971D01*
X735000Y-8490000D01*
X2502560Y-8490000D01*
X2502560Y-10190000D01*
X2546838Y-10425317D01*
X2685910Y-10641441D01*
X2898110Y-10786431D01*
X3150000Y-10837440D01*
X4850000Y-10837440D01*
X5085317Y-10793162D01*
X5301441Y-10654090D01*
X5446431Y-10441890D01*
X5497440Y-10190000D01*
X5497440Y-8490000D01*
X5453162Y-8254683D01*
X5314090Y-8038559D01*
X5101890Y-7893569D01*
X4993893Y-7871699D01*
X5271645Y-7566924D01*
X5441476Y-7156890D01*
X5320155Y-6927000D01*
X4127000Y-6927000D01*
X4127000Y-6947000D01*
X3873000Y-6947000D01*
X3873000Y-6927000D01*
X2679845Y-6927000D01*
X2558524Y-7156890D01*
X2728355Y-7566924D01*
X3004501Y-7869937D01*
X2914683Y-7886838D01*
X2698559Y-8025910D01*
X2553569Y-8238110D01*
X2502560Y-8490000D01*
X735000Y-8490000D01*
X735000Y-6443110D01*
X2558524Y-6443110D01*
X2679845Y-6673000D01*
X3873000Y-6673000D01*
X3873000Y-5479181D01*
X4127000Y-5479181D01*
X4127000Y-6673000D01*
X5320155Y-6673000D01*
X5441476Y-6443110D01*
X5271645Y-6033076D01*
X4881358Y-5604817D01*
X4356892Y-5358514D01*
X4127000Y-5479181D01*
X3873000Y-5479181D01*
X3643108Y-5358514D01*
X3118642Y-5604817D01*
X2728355Y-6033076D01*
X2558524Y-6443110D01*
X735000Y-6443110D01*
X735000Y-3953910D01*
X44547724Y-3953910D01*
X44669045Y-4183800D01*
X45862200Y-4183800D01*
X45862200Y-2989981D01*
X46116200Y-2989981D01*
X46116200Y-4183800D01*
X47309355Y-4183800D01*
X47430676Y-3953910D01*
X47260845Y-3543876D01*
X46870558Y-3115617D01*
X46346092Y-2869314D01*
X46116200Y-2989981D01*
X45862200Y-2989981D01*
X45632308Y-2869314D01*
X45107842Y-3115617D01*
X44717555Y-3543876D01*
X44547724Y-3953910D01*
X735000Y-3953910D01*
X735000Y-735000D01*
X49265000Y-735000D01*
X49265000Y-49265000D01*
M02*
