G04 #@! TF.FileFunction,Copper,L1,Top,Signal*
%FSLAX46Y46*%
G04 Gerber Fmt 4.6, Leading zero omitted, Abs format (unit mm)*
G04 Created by KiCad (PCBNEW 4.0.7) date Sun Nov  5 18:25:08 2017*
%MOMM*%
%LPD*%
G01*
G04 APERTURE LIST*
%ADD10C,0.100000*%
%ADD11O,1.700000X1.700000*%
%ADD12C,1.700000*%
%ADD13R,1.550000X0.600000*%
%ADD14C,4.400000*%
%ADD15R,1.700000X1.700000*%
%ADD16R,1.300000X0.700000*%
%ADD17R,1.000000X1.250000*%
%ADD18R,1.250000X1.000000*%
%ADD19R,0.700000X1.300000*%
%ADD20R,1.143000X0.508000*%
%ADD21R,3.800000X2.000000*%
%ADD22R,1.500000X2.000000*%
%ADD23C,0.800000*%
%ADD24C,1.000000*%
%ADD25C,0.400000*%
%ADD26C,0.500000*%
%ADD27C,0.750000*%
G04 APERTURE END LIST*
D10*
D11*
X10750000Y-9342000D03*
X10750000Y-24582000D03*
X10750000Y-29662000D03*
X10750000Y-19502000D03*
X10750000Y-11882000D03*
X10750000Y-42362000D03*
X10750000Y-27122000D03*
X10750000Y-37282000D03*
X10750000Y-32202000D03*
X10750000Y-34742000D03*
D12*
X10750000Y-6802000D03*
D11*
X10750000Y-16962000D03*
X10750000Y-22042000D03*
X10750000Y-14422000D03*
X10750000Y-39822000D03*
D12*
X38690000Y-6802000D03*
D11*
X38690000Y-9342000D03*
X38690000Y-11882000D03*
X38690000Y-14422000D03*
X38690000Y-16962000D03*
X38690000Y-19502000D03*
X38690000Y-22042000D03*
X38690000Y-24582000D03*
X38690000Y-27122000D03*
X38690000Y-29662000D03*
X38690000Y-32202000D03*
X38690000Y-34742000D03*
X38690000Y-37282000D03*
X38690000Y-39822000D03*
X38690000Y-42362000D03*
X15830000Y-39822000D03*
X15830000Y-14422000D03*
X15830000Y-22042000D03*
X15830000Y-16962000D03*
D12*
X15830000Y-6802000D03*
D11*
X15830000Y-34742000D03*
X15830000Y-32202000D03*
X15830000Y-37282000D03*
X15830000Y-27122000D03*
X15830000Y-42362000D03*
X15830000Y-11882000D03*
X15830000Y-19502000D03*
X15830000Y-29662000D03*
X15830000Y-24582000D03*
X15830000Y-9342000D03*
D13*
X27400000Y-45705000D03*
X27400000Y-44435000D03*
X27400000Y-43165000D03*
X27400000Y-41895000D03*
X22000000Y-41895000D03*
X22000000Y-43165000D03*
X22000000Y-44435000D03*
X22000000Y-45705000D03*
D14*
X43000000Y-36000000D03*
D15*
X4000000Y-42800000D03*
D11*
X4000000Y-40260000D03*
X4000000Y-37720000D03*
D15*
X46040000Y-39820000D03*
D11*
X46040000Y-42360000D03*
X46040000Y-44900000D03*
X46040000Y-47440000D03*
D16*
X7500000Y-15250000D03*
X7500000Y-13350000D03*
D17*
X25704000Y-31692000D03*
X23704000Y-31692000D03*
D18*
X29276000Y-12372000D03*
X29276000Y-10372000D03*
X35372000Y-39804000D03*
X35372000Y-37804000D03*
D11*
X45989200Y-4310800D03*
X45989200Y-6850800D03*
D15*
X45989200Y-9390800D03*
X45989200Y-24580000D03*
D11*
X45989200Y-22040000D03*
X45989200Y-19500000D03*
X4000000Y-19540000D03*
X4000000Y-17000000D03*
D15*
X4000000Y-14460000D03*
X45989200Y-16909200D03*
D11*
X45989200Y-14369200D03*
X45989200Y-11829200D03*
X42484000Y-42360000D03*
D15*
X42484000Y-39820000D03*
X46040000Y-32200000D03*
D11*
X46040000Y-29660000D03*
X4000000Y-6800000D03*
D15*
X4000000Y-9340000D03*
X4000000Y-45916000D03*
D11*
X4000000Y-48456000D03*
D15*
X4000000Y-27193000D03*
D11*
X4000000Y-29733000D03*
X4000000Y-32273000D03*
X4000000Y-34813000D03*
D16*
X20132000Y-21598000D03*
X20132000Y-23498000D03*
X7500000Y-18850000D03*
X7500000Y-16950000D03*
D19*
X8450000Y-11300000D03*
X6550000Y-11300000D03*
D16*
X24704000Y-10422000D03*
X24704000Y-12322000D03*
X32200000Y-13978000D03*
X32200000Y-15878000D03*
X7500000Y-23450000D03*
X7500000Y-21550000D03*
D19*
X33406000Y-22548000D03*
X35306000Y-22548000D03*
X18674000Y-37280000D03*
X20574000Y-37280000D03*
X18501000Y-11873000D03*
X20401000Y-11873000D03*
X20401000Y-16960000D03*
X18501000Y-16960000D03*
D16*
X18100000Y-22482000D03*
X18100000Y-20582000D03*
D19*
X20574000Y-34740000D03*
X18674000Y-34740000D03*
D20*
X22949000Y-14863000D03*
X22949000Y-16133000D03*
X22949000Y-17403000D03*
X22949000Y-18673000D03*
X22949000Y-19943000D03*
X22949000Y-21213000D03*
X22949000Y-22483000D03*
X29299000Y-22483000D03*
X29299000Y-21213000D03*
X29299000Y-18673000D03*
X29299000Y-17403000D03*
X29299000Y-16133000D03*
X29299000Y-14863000D03*
X29299000Y-19943000D03*
D21*
X30292000Y-31590000D03*
D22*
X30292000Y-37890000D03*
X32592000Y-37890000D03*
X27992000Y-37890000D03*
D23*
X7600000Y-11300000D03*
D24*
X15830000Y-22042000D02*
X10750000Y-22042000D01*
X10750000Y-39822000D02*
X9928000Y-39822000D01*
X9928000Y-39822000D02*
X8500000Y-41250000D01*
X7334000Y-45916000D02*
X4000000Y-45916000D01*
X8500000Y-44750000D02*
X7334000Y-45916000D01*
X8500000Y-41250000D02*
X8500000Y-44750000D01*
X15830000Y-39822000D02*
X10750000Y-39822000D01*
X4000000Y-37720000D02*
X4000000Y-34813000D01*
X2000000Y-39000000D02*
X3280000Y-37720000D01*
X3280000Y-37720000D02*
X4000000Y-37720000D01*
X2000000Y-45000000D02*
X2000000Y-39000000D01*
X2916000Y-45916000D02*
X2000000Y-45000000D01*
X4000000Y-45916000D02*
X2916000Y-45916000D01*
D25*
X19624000Y-27120000D02*
X19624000Y-36330000D01*
X19624000Y-36330000D02*
X20574000Y-37280000D01*
X22949000Y-23795000D02*
X19624000Y-27120000D01*
X22949000Y-22483000D02*
X22949000Y-23795000D01*
X41306999Y-10602999D02*
X42433200Y-11829200D01*
X42433200Y-11829200D02*
X45989200Y-11829200D01*
X37210999Y-10602999D02*
X41306999Y-10602999D01*
X36880000Y-10372000D02*
X37210999Y-10602999D01*
X29276000Y-10372000D02*
X36880000Y-10372000D01*
D24*
X4040000Y-19500000D02*
X4000000Y-19540000D01*
X43906400Y-11168800D02*
X43906400Y-8171600D01*
X44566800Y-11829200D02*
X43906400Y-11168800D01*
X45989200Y-11829200D02*
X44566800Y-11829200D01*
D25*
X47025199Y-8100801D02*
X44180399Y-8100801D01*
X47462400Y-7663600D02*
X47025199Y-8100801D01*
X47462400Y-5479200D02*
X47462400Y-7663600D01*
X46294000Y-4310800D02*
X47462400Y-5479200D01*
X45989200Y-4310800D02*
X46294000Y-4310800D01*
X47411600Y-15080400D02*
X47411600Y-13251600D01*
X47411600Y-13251600D02*
X45989200Y-11829200D01*
X46852800Y-15639200D02*
X47411600Y-15080400D01*
X44008000Y-15639200D02*
X46852800Y-15639200D01*
X43804800Y-15842400D02*
X44008000Y-15639200D01*
X43804800Y-16248800D02*
X43804800Y-15842400D01*
D24*
X43804800Y-18331600D02*
X43804800Y-16248800D01*
X44973200Y-19500000D02*
X43804800Y-18331600D01*
X45989200Y-19500000D02*
X44973200Y-19500000D01*
X43957200Y-23553200D02*
X43957200Y-29609200D01*
X43957200Y-29609200D02*
X44008000Y-29660000D01*
D25*
X47564000Y-22497200D02*
X47564000Y-21048000D01*
X47564000Y-21048000D02*
X45989200Y-19473200D01*
X46758001Y-23303199D02*
X47564000Y-22497200D01*
X44370401Y-23303199D02*
X46758001Y-23303199D01*
X27752000Y-11372000D02*
X28752000Y-10372000D01*
X28752000Y-10372000D02*
X29276000Y-10372000D01*
X29299000Y-16133000D02*
X28449000Y-16133000D01*
D24*
X29000000Y-41000000D02*
X35440000Y-47440000D01*
X35440000Y-47440000D02*
X46040000Y-47440000D01*
D26*
X27879000Y-41000000D02*
X27879000Y-38003000D01*
X27879000Y-41979000D02*
X27879000Y-41000000D01*
D24*
X27879000Y-41000000D02*
X29000000Y-41000000D01*
D26*
X27879000Y-38003000D02*
X27992000Y-37890000D01*
D24*
X20574000Y-37280000D02*
X22672000Y-37280000D01*
X22672000Y-37280000D02*
X23282000Y-37890000D01*
X46040000Y-44900000D02*
X46040000Y-47440000D01*
X27992000Y-37890000D02*
X23282000Y-37890000D01*
X23282000Y-37890000D02*
X23180000Y-37788000D01*
X23704000Y-33232000D02*
X27992000Y-37520000D01*
X27992000Y-37520000D02*
X27992000Y-37890000D01*
X23704000Y-31692000D02*
X23704000Y-33232000D01*
X46040000Y-29660000D02*
X44008000Y-29660000D01*
D25*
X20640000Y-14863000D02*
X22949000Y-14863000D01*
X22949000Y-18673000D02*
X19813000Y-18673000D01*
D24*
X20574000Y-37280000D02*
X20574000Y-39196000D01*
D26*
X24451000Y-18673000D02*
X24451000Y-20073000D01*
X24451000Y-20073000D02*
X24451000Y-21873000D01*
X29299000Y-19943000D02*
X24581000Y-19943000D01*
X24581000Y-19943000D02*
X24451000Y-20073000D01*
X22949000Y-18673000D02*
X24451000Y-18673000D01*
X24451000Y-21873000D02*
X23841000Y-22483000D01*
X23841000Y-22483000D02*
X22949000Y-22483000D01*
X22949000Y-14863000D02*
X23641000Y-14863000D01*
D25*
X27752000Y-15436000D02*
X27752000Y-11372000D01*
X28449000Y-16133000D02*
X27752000Y-15436000D01*
D24*
X38347000Y-29733000D02*
X36388000Y-31692000D01*
X38451000Y-29733000D02*
X38347000Y-29733000D01*
X44008000Y-29660000D02*
X38524000Y-29660000D01*
X15591000Y-39893000D02*
X17084000Y-39893000D01*
X17084000Y-39893000D02*
X19877000Y-39893000D01*
X19877000Y-39893000D02*
X20574000Y-39196000D01*
X38524000Y-29660000D02*
X38451000Y-29733000D01*
X36388000Y-38296000D02*
X37985000Y-39893000D01*
X37985000Y-39893000D02*
X38451000Y-39893000D01*
X36388000Y-31692000D02*
X36388000Y-38296000D01*
D25*
X15591000Y-22113000D02*
X15591000Y-22009000D01*
X19624000Y-14863000D02*
X20640000Y-14863000D01*
X20197000Y-14863000D02*
X20640000Y-14863000D01*
X19813000Y-18673000D02*
X19624000Y-18484000D01*
X19624000Y-15436000D02*
X19624000Y-14863000D01*
X19624000Y-18484000D02*
X19624000Y-15436000D01*
D26*
X7600000Y-11300000D02*
X8450000Y-11300000D01*
D24*
X15830000Y-19502000D02*
X10750000Y-19502000D01*
X15830000Y-42362000D02*
X10750000Y-42362000D01*
X46040000Y-32200000D02*
X38524000Y-32200000D01*
X38524000Y-32200000D02*
X38451000Y-32273000D01*
X42484000Y-42360000D02*
X46040000Y-42360000D01*
D25*
X42484000Y-42360000D02*
X40960000Y-42360000D01*
D24*
X25704000Y-31692000D02*
X30190000Y-31692000D01*
X30190000Y-31692000D02*
X30292000Y-31590000D01*
X30292000Y-27120000D02*
X30292000Y-31590000D01*
X30292000Y-31590000D02*
X30292000Y-37890000D01*
X30292000Y-37890000D02*
X30292000Y-39867000D01*
X30292000Y-39867000D02*
X32858000Y-42433000D01*
X32858000Y-42433000D02*
X38451000Y-42433000D01*
X34291000Y-24515000D02*
X32897000Y-24515000D01*
X32897000Y-24515000D02*
X30292000Y-27120000D01*
D25*
X34291000Y-20959000D02*
X34291000Y-24515000D01*
D24*
X34291000Y-14863000D02*
X34291000Y-20959000D01*
D25*
X29299000Y-14863000D02*
X34291000Y-14863000D01*
D26*
X29299000Y-14863000D02*
X29299000Y-12395000D01*
X29299000Y-12395000D02*
X29276000Y-12372000D01*
D24*
X42484000Y-42360000D02*
X38524000Y-42360000D01*
X38524000Y-42360000D02*
X38451000Y-42433000D01*
X15830000Y-14422000D02*
X10750000Y-14422000D01*
D26*
X7500000Y-16950000D02*
X10738000Y-16950000D01*
X10738000Y-16950000D02*
X10750000Y-16962000D01*
D24*
X15830000Y-16962000D02*
X10750000Y-16962000D01*
X15591000Y-17033000D02*
X18428000Y-17033000D01*
X15591000Y-17033000D02*
X12011000Y-17033000D01*
X12011000Y-17033000D02*
X12004000Y-17026000D01*
D26*
X15631000Y-17073000D02*
X15591000Y-17033000D01*
D24*
X18428000Y-17033000D02*
X18501000Y-16960000D01*
X15830000Y-6802000D02*
X10750000Y-6802000D01*
X10750000Y-34742000D02*
X9518000Y-34742000D01*
X9518000Y-34742000D02*
X4000000Y-40260000D01*
X15830000Y-34742000D02*
X10750000Y-34742000D01*
X15830000Y-32202000D02*
X10750000Y-32202000D01*
X10750000Y-32202000D02*
X10679000Y-32273000D01*
X10679000Y-32273000D02*
X4000000Y-32273000D01*
X10750000Y-37282000D02*
X9968000Y-37282000D01*
X9968000Y-37282000D02*
X7000000Y-40250000D01*
X5950000Y-42800000D02*
X4000000Y-42800000D01*
X7000000Y-41750000D02*
X5950000Y-42800000D01*
X7000000Y-40250000D02*
X7000000Y-41750000D01*
X15830000Y-37282000D02*
X10750000Y-37282000D01*
X15591000Y-37353000D02*
X18601000Y-37353000D01*
X18674000Y-37280000D02*
X18674000Y-34740000D01*
X18601000Y-37353000D02*
X18674000Y-37280000D01*
X15830000Y-27122000D02*
X10750000Y-27122000D01*
X10750000Y-27122000D02*
X10679000Y-27193000D01*
X10679000Y-27193000D02*
X4000000Y-27193000D01*
D26*
X7500000Y-13350000D02*
X9282000Y-13350000D01*
X9282000Y-13350000D02*
X10750000Y-11882000D01*
D24*
X15830000Y-11882000D02*
X10750000Y-11882000D01*
D26*
X15591000Y-11953000D02*
X18421000Y-11953000D01*
X18421000Y-11953000D02*
X18501000Y-11873000D01*
D24*
X15830000Y-29662000D02*
X10750000Y-29662000D01*
X10750000Y-29662000D02*
X10679000Y-29733000D01*
X10679000Y-29733000D02*
X4000000Y-29733000D01*
D26*
X7500000Y-23450000D02*
X9250000Y-23450000D01*
X9250000Y-23450000D02*
X10382000Y-24582000D01*
X10382000Y-24582000D02*
X10750000Y-24582000D01*
D24*
X15830000Y-24582000D02*
X10750000Y-24582000D01*
X18100000Y-23056000D02*
X16503000Y-24653000D01*
X16503000Y-24653000D02*
X15591000Y-24653000D01*
X15452000Y-24514000D02*
X15591000Y-24653000D01*
X18100000Y-22482000D02*
X18100000Y-23056000D01*
D26*
X6550000Y-11300000D02*
X4600000Y-11300000D01*
X4000000Y-10700000D02*
X4000000Y-9340000D01*
X4600000Y-11300000D02*
X4000000Y-10700000D01*
D24*
X10750000Y-9342000D02*
X4002000Y-9342000D01*
X4002000Y-9342000D02*
X4000000Y-9340000D01*
X15830000Y-9342000D02*
X10750000Y-9342000D01*
X15664000Y-9340000D02*
X15591000Y-9413000D01*
D26*
X15601000Y-9423000D02*
X15591000Y-9413000D01*
D24*
X4066000Y-9406000D02*
X4000000Y-9340000D01*
D27*
X27400000Y-44435000D02*
X27400000Y-43165000D01*
X27400000Y-45705000D02*
X27400000Y-44435000D01*
X27400000Y-45705000D02*
X31705000Y-45705000D01*
X31705000Y-45705000D02*
X31789000Y-45789000D01*
D24*
X35000000Y-49000000D02*
X31789000Y-45789000D01*
X41000000Y-49000000D02*
X47528000Y-49000000D01*
X39980000Y-49000000D02*
X41000000Y-49000000D01*
X41000000Y-49000000D02*
X35000000Y-49000000D01*
X48580000Y-47948000D02*
X47528000Y-49000000D01*
X48580000Y-41000000D02*
X48580000Y-47948000D01*
X48580000Y-41000000D02*
X48580000Y-47892000D01*
D25*
X34340000Y-39804000D02*
X32592000Y-38056000D01*
X32592000Y-38056000D02*
X32592000Y-37890000D01*
D24*
X1844000Y-9000000D02*
X1844000Y-5276000D01*
X1844000Y-11372000D02*
X1844000Y-9000000D01*
X1844000Y-9000000D02*
X1844000Y-12304000D01*
X1844000Y-12304000D02*
X4000000Y-14460000D01*
X47200000Y-800000D02*
X21656000Y-800000D01*
X21656000Y-800000D02*
X21200000Y-800000D01*
X1844000Y-5276000D02*
X6320000Y-800000D01*
X6320000Y-800000D02*
X21656000Y-800000D01*
X48580000Y-2180000D02*
X47200000Y-800000D01*
X48580000Y-9390800D02*
X48580000Y-6800000D01*
X48580000Y-6800000D02*
X48580000Y-2180000D01*
X48580000Y-16909200D02*
X48580000Y-9390800D01*
X45989200Y-9390800D02*
X48580000Y-9390800D01*
X48580000Y-18000000D02*
X48580000Y-16909200D01*
X45989200Y-16909200D02*
X48580000Y-16909200D01*
X48580000Y-28000000D02*
X48580000Y-24834000D01*
X48580000Y-24834000D02*
X48580000Y-18000000D01*
X45989200Y-24580000D02*
X48326000Y-24580000D01*
X48326000Y-24580000D02*
X48580000Y-24834000D01*
X48580000Y-28000000D02*
X48580000Y-38296000D01*
X48580000Y-26612000D02*
X48580000Y-28000000D01*
X48580000Y-38296000D02*
X48580000Y-41000000D01*
X46040000Y-39820000D02*
X47056000Y-39820000D01*
X47056000Y-39820000D02*
X48580000Y-38296000D01*
X42484000Y-39820000D02*
X46040000Y-39820000D01*
D25*
X37862000Y-41082999D02*
X41071001Y-41082999D01*
X37862000Y-41082999D02*
X36750999Y-41182999D01*
X36750999Y-41182999D02*
X35372000Y-39804000D01*
X35372000Y-39804000D02*
X34340000Y-39804000D01*
X41071001Y-41082999D02*
X42484000Y-39820000D01*
D27*
X22000000Y-43165000D02*
X22000000Y-44435000D01*
X22000000Y-41895000D02*
X22000000Y-43165000D01*
X22000000Y-45705000D02*
X22000000Y-41895000D01*
D24*
X4000000Y-48456000D02*
X14036000Y-48456000D01*
X14036000Y-48456000D02*
X16703000Y-45789000D01*
X16703000Y-45789000D02*
X21529000Y-45789000D01*
D26*
X22949000Y-16133000D02*
X21341000Y-16133000D01*
X21341000Y-16133000D02*
X20401000Y-17073000D01*
X24704000Y-12322000D02*
X24704000Y-16452000D01*
X24704000Y-16452000D02*
X23753000Y-17403000D01*
X23753000Y-17403000D02*
X22949000Y-17403000D01*
X22949000Y-19943000D02*
X18739000Y-19943000D01*
X18739000Y-19943000D02*
X18100000Y-20582000D01*
X22949000Y-21213000D02*
X20517000Y-21213000D01*
X20517000Y-21213000D02*
X20132000Y-21598000D01*
X29299000Y-22483000D02*
X33341000Y-22483000D01*
X33341000Y-22483000D02*
X33406000Y-22548000D01*
X29366000Y-22550000D02*
X29299000Y-22483000D01*
X29299000Y-21213000D02*
X28071000Y-21213000D01*
X28071000Y-21213000D02*
X21656000Y-27628000D01*
X21656000Y-27628000D02*
X21656000Y-33658000D01*
X21656000Y-33658000D02*
X20574000Y-34740000D01*
X32200000Y-17592000D02*
X31119000Y-18673000D01*
X32200000Y-17592000D02*
X32200000Y-15878000D01*
X31119000Y-18673000D02*
X29299000Y-18673000D01*
D25*
X26228000Y-15436000D02*
X26228000Y-11880000D01*
X26228000Y-11880000D02*
X25720000Y-11372000D01*
X28195000Y-17403000D02*
X26228000Y-15436000D01*
X22164000Y-11372000D02*
X25720000Y-11372000D01*
X21663000Y-11873000D02*
X22164000Y-11372000D01*
X29299000Y-17403000D02*
X28195000Y-17403000D01*
X29299000Y-17403000D02*
X28703000Y-17403000D01*
X20401000Y-11873000D02*
X21663000Y-11873000D01*
D26*
X20401000Y-11873000D02*
X20401000Y-12123000D01*
D24*
X40546999Y-13153001D02*
X40953001Y-13153001D01*
X40953001Y-13153001D02*
X42169200Y-14369200D01*
X42169200Y-14369200D02*
X45989200Y-14369200D01*
X36153001Y-13153001D02*
X32959989Y-13203001D01*
X32959989Y-13203001D02*
X32200000Y-13962990D01*
D25*
X40546999Y-13153001D02*
X36153001Y-13153001D01*
D24*
X45989200Y-14369200D02*
X43957200Y-14369200D01*
D25*
X32200000Y-13978000D02*
X33340000Y-12838000D01*
D24*
X36900000Y-23300000D02*
X36158000Y-23400000D01*
X36158000Y-23400000D02*
X35306000Y-22548000D01*
D25*
X40900000Y-23300000D02*
X36900000Y-23300000D01*
D24*
X42160000Y-22040000D02*
X40900000Y-23300000D01*
X45989200Y-22040000D02*
X42160000Y-22040000D01*
X44109600Y-22040000D02*
X45989200Y-22040000D01*
X28400000Y-8031600D02*
X26009600Y-10422000D01*
X41600000Y-4400000D02*
X32031600Y-4400000D01*
X32031600Y-4400000D02*
X28400000Y-8031600D01*
X44050800Y-6850800D02*
X41600000Y-4400000D01*
X45989200Y-6850800D02*
X44050800Y-6850800D01*
X26009600Y-10422000D02*
X24704000Y-10422000D01*
X45989200Y-6850800D02*
X45278000Y-6850800D01*
X2000000Y-21000000D02*
X6088000Y-25088000D01*
X6088000Y-25088000D02*
X8448000Y-25088000D01*
X2000000Y-18000000D02*
X2000000Y-21000000D01*
X3000000Y-17000000D02*
X2000000Y-18000000D01*
X4000000Y-17000000D02*
X3000000Y-17000000D01*
D25*
X9263001Y-25853001D02*
X8448000Y-25088000D01*
X18300999Y-25853001D02*
X9263001Y-25853001D01*
X20132000Y-24072000D02*
X18300999Y-25853001D01*
X20132000Y-23498000D02*
X20132000Y-24072000D01*
D26*
G36*
X1116117Y-21883883D02*
X4810540Y-25578307D01*
X3150000Y-25578307D01*
X2872067Y-25630604D01*
X2616802Y-25794862D01*
X2445554Y-26045492D01*
X2385307Y-26343000D01*
X2385307Y-28043000D01*
X2437604Y-28320933D01*
X2601862Y-28576198D01*
X2775158Y-28694606D01*
X2490447Y-29120707D01*
X2368654Y-29733000D01*
X2490447Y-30345293D01*
X2837283Y-30864371D01*
X3044756Y-31003000D01*
X2837283Y-31141629D01*
X2490447Y-31660707D01*
X2368654Y-32273000D01*
X2490447Y-32885293D01*
X2837283Y-33404371D01*
X3356361Y-33751207D01*
X3968654Y-33873000D01*
X4031346Y-33873000D01*
X4643639Y-33751207D01*
X4985176Y-33523000D01*
X9362153Y-33523000D01*
X9119010Y-33571365D01*
X9039645Y-33587151D01*
X8634116Y-33858117D01*
X3798360Y-38693874D01*
X3356361Y-38781793D01*
X2837283Y-39128629D01*
X2490447Y-39647707D01*
X2368654Y-40260000D01*
X2490447Y-40872293D01*
X2775891Y-41299491D01*
X2616802Y-41401862D01*
X2445554Y-41652492D01*
X2385307Y-41950000D01*
X2385307Y-43650000D01*
X2437604Y-43927933D01*
X2601862Y-44183198D01*
X2852492Y-44354446D01*
X3150000Y-44414693D01*
X4850000Y-44414693D01*
X5127933Y-44362396D01*
X5383198Y-44198138D01*
X5484416Y-44050000D01*
X5950000Y-44050000D01*
X6428354Y-43954849D01*
X6833883Y-43683883D01*
X7883883Y-42633884D01*
X8065549Y-42362000D01*
X9118654Y-42362000D01*
X9240447Y-42974293D01*
X9587283Y-43493371D01*
X10106361Y-43840207D01*
X10718654Y-43962000D01*
X10781346Y-43962000D01*
X11393639Y-43840207D01*
X11735176Y-43612000D01*
X14844824Y-43612000D01*
X15186361Y-43840207D01*
X15798654Y-43962000D01*
X15861346Y-43962000D01*
X16473639Y-43840207D01*
X16992717Y-43493371D01*
X17339553Y-42974293D01*
X17461346Y-42362000D01*
X17339553Y-41749707D01*
X16992717Y-41230629D01*
X16473639Y-40883793D01*
X15861346Y-40762000D01*
X15798654Y-40762000D01*
X15186361Y-40883793D01*
X14844824Y-41112000D01*
X11735176Y-41112000D01*
X11393639Y-40883793D01*
X10781346Y-40762000D01*
X10718654Y-40762000D01*
X10106361Y-40883793D01*
X9587283Y-41230629D01*
X9240447Y-41749707D01*
X9118654Y-42362000D01*
X8065549Y-42362000D01*
X8154849Y-42228354D01*
X8250000Y-41750000D01*
X8250000Y-40767766D01*
X10232474Y-38785293D01*
X10718654Y-38882000D01*
X10781346Y-38882000D01*
X11393639Y-38760207D01*
X11735176Y-38532000D01*
X14844824Y-38532000D01*
X15186361Y-38760207D01*
X15798654Y-38882000D01*
X15861346Y-38882000D01*
X16473639Y-38760207D01*
X16708916Y-38603000D01*
X17980469Y-38603000D01*
X18026492Y-38634446D01*
X18324000Y-38694693D01*
X19024000Y-38694693D01*
X19301933Y-38642396D01*
X19557198Y-38478138D01*
X19728446Y-38227508D01*
X19788693Y-37930000D01*
X19788693Y-37818452D01*
X19828849Y-37758354D01*
X19924000Y-37280000D01*
X19924000Y-36092743D01*
X19926492Y-36094446D01*
X20224000Y-36154693D01*
X20924000Y-36154693D01*
X21201933Y-36102396D01*
X21457198Y-35938138D01*
X21628446Y-35687508D01*
X21688693Y-35390000D01*
X21688693Y-35039521D01*
X22363107Y-34365107D01*
X22579880Y-34040684D01*
X22656000Y-33658000D01*
X22656000Y-28042214D01*
X27962807Y-22735407D01*
X27962807Y-22737000D01*
X28015104Y-23014933D01*
X28179362Y-23270198D01*
X28429992Y-23441446D01*
X28727500Y-23501693D01*
X29123146Y-23501693D01*
X29366000Y-23550000D01*
X29608854Y-23501693D01*
X29870500Y-23501693D01*
X29969844Y-23483000D01*
X32234789Y-23483000D01*
X32013116Y-23631117D01*
X29408117Y-26236117D01*
X29137151Y-26641646D01*
X29042000Y-27120000D01*
X29042000Y-29825307D01*
X28392000Y-29825307D01*
X28114067Y-29877604D01*
X27858802Y-30041862D01*
X27687554Y-30292492D01*
X27657278Y-30442000D01*
X26617781Y-30442000D01*
X26501508Y-30362554D01*
X26204000Y-30302307D01*
X25204000Y-30302307D01*
X24926067Y-30354604D01*
X24670802Y-30518862D01*
X24499554Y-30769492D01*
X24439307Y-31067000D01*
X24439307Y-32317000D01*
X24491604Y-32594933D01*
X24655862Y-32850198D01*
X24906492Y-33021446D01*
X25204000Y-33081693D01*
X26204000Y-33081693D01*
X26481933Y-33029396D01*
X26617751Y-32942000D01*
X27727265Y-32942000D01*
X27843862Y-33123198D01*
X28094492Y-33294446D01*
X28392000Y-33354693D01*
X29042000Y-33354693D01*
X29042000Y-36320500D01*
X29008802Y-36341862D01*
X28837554Y-36592492D01*
X28777307Y-36890000D01*
X28777307Y-38890000D01*
X28829604Y-39167933D01*
X28993862Y-39423198D01*
X29042000Y-39456089D01*
X29042000Y-39867000D01*
X29115563Y-40236824D01*
X29137151Y-40345354D01*
X29408117Y-40750883D01*
X31974117Y-43316883D01*
X32379646Y-43587849D01*
X32858000Y-43683000D01*
X37811084Y-43683000D01*
X38046361Y-43840207D01*
X38658654Y-43962000D01*
X38721346Y-43962000D01*
X39333639Y-43840207D01*
X39678169Y-43610000D01*
X41498824Y-43610000D01*
X41840361Y-43838207D01*
X42452654Y-43960000D01*
X42515346Y-43960000D01*
X43127639Y-43838207D01*
X43469176Y-43610000D01*
X45054824Y-43610000D01*
X45396361Y-43838207D01*
X46008654Y-43960000D01*
X46071346Y-43960000D01*
X46683639Y-43838207D01*
X47202717Y-43491371D01*
X47330000Y-43300878D01*
X47330000Y-47430233D01*
X47010234Y-47750000D01*
X35517767Y-47750000D01*
X32672883Y-44905117D01*
X32267354Y-44634151D01*
X31789000Y-44539001D01*
X31582883Y-44580000D01*
X28939693Y-44580000D01*
X28939693Y-44135000D01*
X28887396Y-43857067D01*
X28852204Y-43802377D01*
X28879446Y-43762508D01*
X28939693Y-43465000D01*
X28939693Y-42865000D01*
X28887396Y-42587067D01*
X28723138Y-42331802D01*
X28472508Y-42160554D01*
X28175000Y-42100307D01*
X27703182Y-42100307D01*
X27400000Y-42040000D01*
X27096818Y-42100307D01*
X26625000Y-42100307D01*
X26347067Y-42152604D01*
X26091802Y-42316862D01*
X25920554Y-42567492D01*
X25860307Y-42865000D01*
X25860307Y-43465000D01*
X25912604Y-43742933D01*
X25947796Y-43797623D01*
X25920554Y-43837492D01*
X25860307Y-44135000D01*
X25860307Y-44735000D01*
X25912604Y-45012933D01*
X25947796Y-45067623D01*
X25920554Y-45107492D01*
X25860307Y-45405000D01*
X25860307Y-46005000D01*
X25912604Y-46282933D01*
X26076862Y-46538198D01*
X26327492Y-46709446D01*
X26625000Y-46769693D01*
X27096818Y-46769693D01*
X27400000Y-46830000D01*
X31062234Y-46830000D01*
X33382233Y-49150000D01*
X15109766Y-49150000D01*
X17220767Y-47039000D01*
X21529000Y-47039000D01*
X22007354Y-46943849D01*
X22253082Y-46779659D01*
X22303182Y-46769693D01*
X22775000Y-46769693D01*
X23052933Y-46717396D01*
X23308198Y-46553138D01*
X23479446Y-46302508D01*
X23539693Y-46005000D01*
X23539693Y-45405000D01*
X23487396Y-45127067D01*
X23452204Y-45072377D01*
X23479446Y-45032508D01*
X23539693Y-44735000D01*
X23539693Y-44135000D01*
X23487396Y-43857067D01*
X23452204Y-43802377D01*
X23479446Y-43762508D01*
X23539693Y-43465000D01*
X23539693Y-42865000D01*
X23487396Y-42587067D01*
X23452204Y-42532377D01*
X23479446Y-42492508D01*
X23539693Y-42195000D01*
X23539693Y-41595000D01*
X23487396Y-41317067D01*
X23323138Y-41061802D01*
X23072508Y-40890554D01*
X22775000Y-40830307D01*
X22303182Y-40830307D01*
X22000000Y-40770000D01*
X21696818Y-40830307D01*
X21225000Y-40830307D01*
X20947067Y-40882604D01*
X20691802Y-41046862D01*
X20520554Y-41297492D01*
X20460307Y-41595000D01*
X20460307Y-42195000D01*
X20512604Y-42472933D01*
X20547796Y-42527623D01*
X20520554Y-42567492D01*
X20460307Y-42865000D01*
X20460307Y-43465000D01*
X20512604Y-43742933D01*
X20547796Y-43797623D01*
X20520554Y-43837492D01*
X20460307Y-44135000D01*
X20460307Y-44539000D01*
X16703000Y-44539000D01*
X16224646Y-44634151D01*
X15819117Y-44905116D01*
X13518234Y-47206000D01*
X4985176Y-47206000D01*
X4643639Y-46977793D01*
X4031346Y-46856000D01*
X3968654Y-46856000D01*
X3356361Y-46977793D01*
X2837283Y-47324629D01*
X2490447Y-47843707D01*
X2368654Y-48456000D01*
X2490447Y-49068293D01*
X2545042Y-49150000D01*
X850000Y-49150000D01*
X850000Y-21485611D01*
X1116117Y-21883883D01*
X1116117Y-21883883D01*
G37*
X1116117Y-21883883D02*
X4810540Y-25578307D01*
X3150000Y-25578307D01*
X2872067Y-25630604D01*
X2616802Y-25794862D01*
X2445554Y-26045492D01*
X2385307Y-26343000D01*
X2385307Y-28043000D01*
X2437604Y-28320933D01*
X2601862Y-28576198D01*
X2775158Y-28694606D01*
X2490447Y-29120707D01*
X2368654Y-29733000D01*
X2490447Y-30345293D01*
X2837283Y-30864371D01*
X3044756Y-31003000D01*
X2837283Y-31141629D01*
X2490447Y-31660707D01*
X2368654Y-32273000D01*
X2490447Y-32885293D01*
X2837283Y-33404371D01*
X3356361Y-33751207D01*
X3968654Y-33873000D01*
X4031346Y-33873000D01*
X4643639Y-33751207D01*
X4985176Y-33523000D01*
X9362153Y-33523000D01*
X9119010Y-33571365D01*
X9039645Y-33587151D01*
X8634116Y-33858117D01*
X3798360Y-38693874D01*
X3356361Y-38781793D01*
X2837283Y-39128629D01*
X2490447Y-39647707D01*
X2368654Y-40260000D01*
X2490447Y-40872293D01*
X2775891Y-41299491D01*
X2616802Y-41401862D01*
X2445554Y-41652492D01*
X2385307Y-41950000D01*
X2385307Y-43650000D01*
X2437604Y-43927933D01*
X2601862Y-44183198D01*
X2852492Y-44354446D01*
X3150000Y-44414693D01*
X4850000Y-44414693D01*
X5127933Y-44362396D01*
X5383198Y-44198138D01*
X5484416Y-44050000D01*
X5950000Y-44050000D01*
X6428354Y-43954849D01*
X6833883Y-43683883D01*
X7883883Y-42633884D01*
X8065549Y-42362000D01*
X9118654Y-42362000D01*
X9240447Y-42974293D01*
X9587283Y-43493371D01*
X10106361Y-43840207D01*
X10718654Y-43962000D01*
X10781346Y-43962000D01*
X11393639Y-43840207D01*
X11735176Y-43612000D01*
X14844824Y-43612000D01*
X15186361Y-43840207D01*
X15798654Y-43962000D01*
X15861346Y-43962000D01*
X16473639Y-43840207D01*
X16992717Y-43493371D01*
X17339553Y-42974293D01*
X17461346Y-42362000D01*
X17339553Y-41749707D01*
X16992717Y-41230629D01*
X16473639Y-40883793D01*
X15861346Y-40762000D01*
X15798654Y-40762000D01*
X15186361Y-40883793D01*
X14844824Y-41112000D01*
X11735176Y-41112000D01*
X11393639Y-40883793D01*
X10781346Y-40762000D01*
X10718654Y-40762000D01*
X10106361Y-40883793D01*
X9587283Y-41230629D01*
X9240447Y-41749707D01*
X9118654Y-42362000D01*
X8065549Y-42362000D01*
X8154849Y-42228354D01*
X8250000Y-41750000D01*
X8250000Y-40767766D01*
X10232474Y-38785293D01*
X10718654Y-38882000D01*
X10781346Y-38882000D01*
X11393639Y-38760207D01*
X11735176Y-38532000D01*
X14844824Y-38532000D01*
X15186361Y-38760207D01*
X15798654Y-38882000D01*
X15861346Y-38882000D01*
X16473639Y-38760207D01*
X16708916Y-38603000D01*
X17980469Y-38603000D01*
X18026492Y-38634446D01*
X18324000Y-38694693D01*
X19024000Y-38694693D01*
X19301933Y-38642396D01*
X19557198Y-38478138D01*
X19728446Y-38227508D01*
X19788693Y-37930000D01*
X19788693Y-37818452D01*
X19828849Y-37758354D01*
X19924000Y-37280000D01*
X19924000Y-36092743D01*
X19926492Y-36094446D01*
X20224000Y-36154693D01*
X20924000Y-36154693D01*
X21201933Y-36102396D01*
X21457198Y-35938138D01*
X21628446Y-35687508D01*
X21688693Y-35390000D01*
X21688693Y-35039521D01*
X22363107Y-34365107D01*
X22579880Y-34040684D01*
X22656000Y-33658000D01*
X22656000Y-28042214D01*
X27962807Y-22735407D01*
X27962807Y-22737000D01*
X28015104Y-23014933D01*
X28179362Y-23270198D01*
X28429992Y-23441446D01*
X28727500Y-23501693D01*
X29123146Y-23501693D01*
X29366000Y-23550000D01*
X29608854Y-23501693D01*
X29870500Y-23501693D01*
X29969844Y-23483000D01*
X32234789Y-23483000D01*
X32013116Y-23631117D01*
X29408117Y-26236117D01*
X29137151Y-26641646D01*
X29042000Y-27120000D01*
X29042000Y-29825307D01*
X28392000Y-29825307D01*
X28114067Y-29877604D01*
X27858802Y-30041862D01*
X27687554Y-30292492D01*
X27657278Y-30442000D01*
X26617781Y-30442000D01*
X26501508Y-30362554D01*
X26204000Y-30302307D01*
X25204000Y-30302307D01*
X24926067Y-30354604D01*
X24670802Y-30518862D01*
X24499554Y-30769492D01*
X24439307Y-31067000D01*
X24439307Y-32317000D01*
X24491604Y-32594933D01*
X24655862Y-32850198D01*
X24906492Y-33021446D01*
X25204000Y-33081693D01*
X26204000Y-33081693D01*
X26481933Y-33029396D01*
X26617751Y-32942000D01*
X27727265Y-32942000D01*
X27843862Y-33123198D01*
X28094492Y-33294446D01*
X28392000Y-33354693D01*
X29042000Y-33354693D01*
X29042000Y-36320500D01*
X29008802Y-36341862D01*
X28837554Y-36592492D01*
X28777307Y-36890000D01*
X28777307Y-38890000D01*
X28829604Y-39167933D01*
X28993862Y-39423198D01*
X29042000Y-39456089D01*
X29042000Y-39867000D01*
X29115563Y-40236824D01*
X29137151Y-40345354D01*
X29408117Y-40750883D01*
X31974117Y-43316883D01*
X32379646Y-43587849D01*
X32858000Y-43683000D01*
X37811084Y-43683000D01*
X38046361Y-43840207D01*
X38658654Y-43962000D01*
X38721346Y-43962000D01*
X39333639Y-43840207D01*
X39678169Y-43610000D01*
X41498824Y-43610000D01*
X41840361Y-43838207D01*
X42452654Y-43960000D01*
X42515346Y-43960000D01*
X43127639Y-43838207D01*
X43469176Y-43610000D01*
X45054824Y-43610000D01*
X45396361Y-43838207D01*
X46008654Y-43960000D01*
X46071346Y-43960000D01*
X46683639Y-43838207D01*
X47202717Y-43491371D01*
X47330000Y-43300878D01*
X47330000Y-47430233D01*
X47010234Y-47750000D01*
X35517767Y-47750000D01*
X32672883Y-44905117D01*
X32267354Y-44634151D01*
X31789000Y-44539001D01*
X31582883Y-44580000D01*
X28939693Y-44580000D01*
X28939693Y-44135000D01*
X28887396Y-43857067D01*
X28852204Y-43802377D01*
X28879446Y-43762508D01*
X28939693Y-43465000D01*
X28939693Y-42865000D01*
X28887396Y-42587067D01*
X28723138Y-42331802D01*
X28472508Y-42160554D01*
X28175000Y-42100307D01*
X27703182Y-42100307D01*
X27400000Y-42040000D01*
X27096818Y-42100307D01*
X26625000Y-42100307D01*
X26347067Y-42152604D01*
X26091802Y-42316862D01*
X25920554Y-42567492D01*
X25860307Y-42865000D01*
X25860307Y-43465000D01*
X25912604Y-43742933D01*
X25947796Y-43797623D01*
X25920554Y-43837492D01*
X25860307Y-44135000D01*
X25860307Y-44735000D01*
X25912604Y-45012933D01*
X25947796Y-45067623D01*
X25920554Y-45107492D01*
X25860307Y-45405000D01*
X25860307Y-46005000D01*
X25912604Y-46282933D01*
X26076862Y-46538198D01*
X26327492Y-46709446D01*
X26625000Y-46769693D01*
X27096818Y-46769693D01*
X27400000Y-46830000D01*
X31062234Y-46830000D01*
X33382233Y-49150000D01*
X15109766Y-49150000D01*
X17220767Y-47039000D01*
X21529000Y-47039000D01*
X22007354Y-46943849D01*
X22253082Y-46779659D01*
X22303182Y-46769693D01*
X22775000Y-46769693D01*
X23052933Y-46717396D01*
X23308198Y-46553138D01*
X23479446Y-46302508D01*
X23539693Y-46005000D01*
X23539693Y-45405000D01*
X23487396Y-45127067D01*
X23452204Y-45072377D01*
X23479446Y-45032508D01*
X23539693Y-44735000D01*
X23539693Y-44135000D01*
X23487396Y-43857067D01*
X23452204Y-43802377D01*
X23479446Y-43762508D01*
X23539693Y-43465000D01*
X23539693Y-42865000D01*
X23487396Y-42587067D01*
X23452204Y-42532377D01*
X23479446Y-42492508D01*
X23539693Y-42195000D01*
X23539693Y-41595000D01*
X23487396Y-41317067D01*
X23323138Y-41061802D01*
X23072508Y-40890554D01*
X22775000Y-40830307D01*
X22303182Y-40830307D01*
X22000000Y-40770000D01*
X21696818Y-40830307D01*
X21225000Y-40830307D01*
X20947067Y-40882604D01*
X20691802Y-41046862D01*
X20520554Y-41297492D01*
X20460307Y-41595000D01*
X20460307Y-42195000D01*
X20512604Y-42472933D01*
X20547796Y-42527623D01*
X20520554Y-42567492D01*
X20460307Y-42865000D01*
X20460307Y-43465000D01*
X20512604Y-43742933D01*
X20547796Y-43797623D01*
X20520554Y-43837492D01*
X20460307Y-44135000D01*
X20460307Y-44539000D01*
X16703000Y-44539000D01*
X16224646Y-44634151D01*
X15819117Y-44905116D01*
X13518234Y-47206000D01*
X4985176Y-47206000D01*
X4643639Y-46977793D01*
X4031346Y-46856000D01*
X3968654Y-46856000D01*
X3356361Y-46977793D01*
X2837283Y-47324629D01*
X2490447Y-47843707D01*
X2368654Y-48456000D01*
X2490447Y-49068293D01*
X2545042Y-49150000D01*
X850000Y-49150000D01*
X850000Y-21485611D01*
X1116117Y-21883883D01*
G36*
X44434754Y-23432492D02*
X44374507Y-23730000D01*
X44374507Y-25430000D01*
X44426804Y-25707933D01*
X44591062Y-25963198D01*
X44841692Y-26134446D01*
X45139200Y-26194693D01*
X46839200Y-26194693D01*
X47117133Y-26142396D01*
X47330000Y-26005420D01*
X47330000Y-30742915D01*
X47187508Y-30645554D01*
X46890000Y-30585307D01*
X45190000Y-30585307D01*
X44912067Y-30637604D01*
X44656802Y-30801862D01*
X44555584Y-30950000D01*
X39672183Y-30950000D01*
X39333639Y-30723793D01*
X38721346Y-30602000D01*
X38658654Y-30602000D01*
X38046361Y-30723793D01*
X37527283Y-31070629D01*
X37180447Y-31589707D01*
X37058654Y-32202000D01*
X37180447Y-32814293D01*
X37527283Y-33333371D01*
X37734756Y-33472000D01*
X37527283Y-33610629D01*
X37180447Y-34129707D01*
X37058654Y-34742000D01*
X37180447Y-35354293D01*
X37527283Y-35873371D01*
X37734756Y-36012000D01*
X37527283Y-36150629D01*
X37180447Y-36669707D01*
X37058654Y-37282000D01*
X37180447Y-37894293D01*
X37527283Y-38413371D01*
X38046361Y-38760207D01*
X38658654Y-38882000D01*
X38721346Y-38882000D01*
X39333639Y-38760207D01*
X39852717Y-38413371D01*
X40199553Y-37894293D01*
X40321346Y-37282000D01*
X40306066Y-37205181D01*
X40497653Y-37668858D01*
X41191246Y-38363663D01*
X41100802Y-38421862D01*
X40929554Y-38672492D01*
X40869307Y-38970000D01*
X40869307Y-39989093D01*
X40708310Y-40132999D01*
X37862000Y-40132999D01*
X37819710Y-40141411D01*
X37776835Y-40136824D01*
X37108484Y-40196982D01*
X36761693Y-39850190D01*
X36761693Y-39304000D01*
X36709396Y-39026067D01*
X36545138Y-38770802D01*
X36294508Y-38599554D01*
X35997000Y-38539307D01*
X34747000Y-38539307D01*
X34470784Y-38591281D01*
X34106693Y-38227191D01*
X34106693Y-36890000D01*
X34054396Y-36612067D01*
X33890138Y-36356802D01*
X33639508Y-36185554D01*
X33342000Y-36125307D01*
X31842000Y-36125307D01*
X31564067Y-36177604D01*
X31542000Y-36191804D01*
X31542000Y-33354693D01*
X32192000Y-33354693D01*
X32469933Y-33302396D01*
X32725198Y-33138138D01*
X32896446Y-32887508D01*
X32956693Y-32590000D01*
X32956693Y-30590000D01*
X32904396Y-30312067D01*
X32740138Y-30056802D01*
X32489508Y-29885554D01*
X32192000Y-29825307D01*
X31542000Y-29825307D01*
X31542000Y-27637766D01*
X33414767Y-25765000D01*
X34291000Y-25765000D01*
X34769354Y-25669849D01*
X35174883Y-25398883D01*
X35445849Y-24993354D01*
X35541000Y-24515000D01*
X35529535Y-24457360D01*
X35545260Y-24465055D01*
X35679646Y-24554849D01*
X35762395Y-24571309D01*
X35838177Y-24608392D01*
X35999485Y-24618469D01*
X36158000Y-24649999D01*
X36240747Y-24633540D01*
X36324954Y-24638800D01*
X37066954Y-24538800D01*
X37067268Y-24538692D01*
X37058654Y-24582000D01*
X37180447Y-25194293D01*
X37527283Y-25713371D01*
X37734756Y-25852000D01*
X37527283Y-25990629D01*
X37180447Y-26509707D01*
X37058654Y-27122000D01*
X37180447Y-27734293D01*
X37527283Y-28253371D01*
X38046361Y-28600207D01*
X38658654Y-28722000D01*
X38721346Y-28722000D01*
X39333639Y-28600207D01*
X39852717Y-28253371D01*
X40199553Y-27734293D01*
X40321346Y-27122000D01*
X40199553Y-26509707D01*
X39852717Y-25990629D01*
X39645244Y-25852000D01*
X39852717Y-25713371D01*
X40199553Y-25194293D01*
X40321346Y-24582000D01*
X40276803Y-24358068D01*
X40421646Y-24454849D01*
X40900000Y-24549999D01*
X41378354Y-24454849D01*
X41783883Y-24183883D01*
X42677767Y-23290000D01*
X44532115Y-23290000D01*
X44434754Y-23432492D01*
X44434754Y-23432492D01*
G37*
X44434754Y-23432492D02*
X44374507Y-23730000D01*
X44374507Y-25430000D01*
X44426804Y-25707933D01*
X44591062Y-25963198D01*
X44841692Y-26134446D01*
X45139200Y-26194693D01*
X46839200Y-26194693D01*
X47117133Y-26142396D01*
X47330000Y-26005420D01*
X47330000Y-30742915D01*
X47187508Y-30645554D01*
X46890000Y-30585307D01*
X45190000Y-30585307D01*
X44912067Y-30637604D01*
X44656802Y-30801862D01*
X44555584Y-30950000D01*
X39672183Y-30950000D01*
X39333639Y-30723793D01*
X38721346Y-30602000D01*
X38658654Y-30602000D01*
X38046361Y-30723793D01*
X37527283Y-31070629D01*
X37180447Y-31589707D01*
X37058654Y-32202000D01*
X37180447Y-32814293D01*
X37527283Y-33333371D01*
X37734756Y-33472000D01*
X37527283Y-33610629D01*
X37180447Y-34129707D01*
X37058654Y-34742000D01*
X37180447Y-35354293D01*
X37527283Y-35873371D01*
X37734756Y-36012000D01*
X37527283Y-36150629D01*
X37180447Y-36669707D01*
X37058654Y-37282000D01*
X37180447Y-37894293D01*
X37527283Y-38413371D01*
X38046361Y-38760207D01*
X38658654Y-38882000D01*
X38721346Y-38882000D01*
X39333639Y-38760207D01*
X39852717Y-38413371D01*
X40199553Y-37894293D01*
X40321346Y-37282000D01*
X40306066Y-37205181D01*
X40497653Y-37668858D01*
X41191246Y-38363663D01*
X41100802Y-38421862D01*
X40929554Y-38672492D01*
X40869307Y-38970000D01*
X40869307Y-39989093D01*
X40708310Y-40132999D01*
X37862000Y-40132999D01*
X37819710Y-40141411D01*
X37776835Y-40136824D01*
X37108484Y-40196982D01*
X36761693Y-39850190D01*
X36761693Y-39304000D01*
X36709396Y-39026067D01*
X36545138Y-38770802D01*
X36294508Y-38599554D01*
X35997000Y-38539307D01*
X34747000Y-38539307D01*
X34470784Y-38591281D01*
X34106693Y-38227191D01*
X34106693Y-36890000D01*
X34054396Y-36612067D01*
X33890138Y-36356802D01*
X33639508Y-36185554D01*
X33342000Y-36125307D01*
X31842000Y-36125307D01*
X31564067Y-36177604D01*
X31542000Y-36191804D01*
X31542000Y-33354693D01*
X32192000Y-33354693D01*
X32469933Y-33302396D01*
X32725198Y-33138138D01*
X32896446Y-32887508D01*
X32956693Y-32590000D01*
X32956693Y-30590000D01*
X32904396Y-30312067D01*
X32740138Y-30056802D01*
X32489508Y-29885554D01*
X32192000Y-29825307D01*
X31542000Y-29825307D01*
X31542000Y-27637766D01*
X33414767Y-25765000D01*
X34291000Y-25765000D01*
X34769354Y-25669849D01*
X35174883Y-25398883D01*
X35445849Y-24993354D01*
X35541000Y-24515000D01*
X35529535Y-24457360D01*
X35545260Y-24465055D01*
X35679646Y-24554849D01*
X35762395Y-24571309D01*
X35838177Y-24608392D01*
X35999485Y-24618469D01*
X36158000Y-24649999D01*
X36240747Y-24633540D01*
X36324954Y-24638800D01*
X37066954Y-24538800D01*
X37067268Y-24538692D01*
X37058654Y-24582000D01*
X37180447Y-25194293D01*
X37527283Y-25713371D01*
X37734756Y-25852000D01*
X37527283Y-25990629D01*
X37180447Y-26509707D01*
X37058654Y-27122000D01*
X37180447Y-27734293D01*
X37527283Y-28253371D01*
X38046361Y-28600207D01*
X38658654Y-28722000D01*
X38721346Y-28722000D01*
X39333639Y-28600207D01*
X39852717Y-28253371D01*
X40199553Y-27734293D01*
X40321346Y-27122000D01*
X40199553Y-26509707D01*
X39852717Y-25990629D01*
X39645244Y-25852000D01*
X39852717Y-25713371D01*
X40199553Y-25194293D01*
X40321346Y-24582000D01*
X40276803Y-24358068D01*
X40421646Y-24454849D01*
X40900000Y-24549999D01*
X41378354Y-24454849D01*
X41783883Y-24183883D01*
X42677767Y-23290000D01*
X44532115Y-23290000D01*
X44434754Y-23432492D01*
G36*
X27523249Y-18074751D02*
X27831450Y-18280686D01*
X27891767Y-18292683D01*
X27984646Y-18311158D01*
X27962807Y-18419000D01*
X27962807Y-18927000D01*
X28015104Y-19204933D01*
X28179362Y-19460198D01*
X28429992Y-19631446D01*
X28727500Y-19691693D01*
X29870500Y-19691693D01*
X29969844Y-19673000D01*
X31119000Y-19673000D01*
X31501684Y-19596880D01*
X31826107Y-19380107D01*
X32907107Y-18299107D01*
X33041000Y-18098722D01*
X33041000Y-20959000D01*
X33075672Y-21133307D01*
X33056000Y-21133307D01*
X32778067Y-21185604D01*
X32522802Y-21349862D01*
X32431833Y-21483000D01*
X30631953Y-21483000D01*
X30635193Y-21467000D01*
X30635193Y-20959000D01*
X30582896Y-20681067D01*
X30418638Y-20425802D01*
X30168008Y-20254554D01*
X29870500Y-20194307D01*
X28727500Y-20194307D01*
X28628156Y-20213000D01*
X28071000Y-20213000D01*
X27688316Y-20289120D01*
X27363893Y-20505893D01*
X20948893Y-26920893D01*
X20732120Y-27245316D01*
X20732120Y-27245317D01*
X20656000Y-27628000D01*
X20656000Y-33243786D01*
X20574479Y-33325307D01*
X20224000Y-33325307D01*
X19946067Y-33377604D01*
X19690802Y-33541862D01*
X19624740Y-33638548D01*
X19572138Y-33556802D01*
X19321508Y-33385554D01*
X19024000Y-33325307D01*
X18324000Y-33325307D01*
X18046067Y-33377604D01*
X17790802Y-33541862D01*
X17619554Y-33792492D01*
X17559307Y-34090000D01*
X17559307Y-34201548D01*
X17519151Y-34261646D01*
X17442474Y-34647125D01*
X17339553Y-34129707D01*
X16992717Y-33610629D01*
X16785244Y-33472000D01*
X16992717Y-33333371D01*
X17339553Y-32814293D01*
X17461346Y-32202000D01*
X17339553Y-31589707D01*
X16992717Y-31070629D01*
X16785244Y-30932000D01*
X16992717Y-30793371D01*
X17339553Y-30274293D01*
X17461346Y-29662000D01*
X17339553Y-29049707D01*
X16992717Y-28530629D01*
X16785244Y-28392000D01*
X16992717Y-28253371D01*
X17339553Y-27734293D01*
X17461346Y-27122000D01*
X17397893Y-26803001D01*
X18300999Y-26803001D01*
X18476469Y-26768098D01*
X18652366Y-26735635D01*
X18657984Y-26731993D01*
X18664548Y-26730687D01*
X18813253Y-26631325D01*
X18963388Y-26533986D01*
X20794389Y-24752985D01*
X20798186Y-24747470D01*
X20803751Y-24743751D01*
X20903118Y-24595038D01*
X20907179Y-24589139D01*
X21059933Y-24560396D01*
X21315198Y-24396138D01*
X21486446Y-24145508D01*
X21546693Y-23848000D01*
X21546693Y-23148000D01*
X21494396Y-22870067D01*
X21330138Y-22614802D01*
X21233452Y-22548740D01*
X21315198Y-22496138D01*
X21486446Y-22245508D01*
X21493029Y-22213000D01*
X22285191Y-22213000D01*
X22377500Y-22231693D01*
X23520500Y-22231693D01*
X23798433Y-22179396D01*
X24053698Y-22015138D01*
X24224946Y-21764508D01*
X24285193Y-21467000D01*
X24285193Y-20959000D01*
X24232896Y-20681067D01*
X24167217Y-20578998D01*
X24224946Y-20494508D01*
X24285193Y-20197000D01*
X24285193Y-19689000D01*
X24232896Y-19411067D01*
X24068638Y-19155802D01*
X23818008Y-18984554D01*
X23520500Y-18924307D01*
X22377500Y-18924307D01*
X22278156Y-18943000D01*
X18739000Y-18943000D01*
X18356317Y-19019120D01*
X18031893Y-19235893D01*
X18031891Y-19235896D01*
X17800480Y-19467307D01*
X17454445Y-19467307D01*
X17339553Y-18889707D01*
X16992717Y-18370629D01*
X16861571Y-18283000D01*
X17807469Y-18283000D01*
X17853492Y-18314446D01*
X18151000Y-18374693D01*
X18851000Y-18374693D01*
X19128933Y-18322396D01*
X19384198Y-18158138D01*
X19450260Y-18061452D01*
X19502862Y-18143198D01*
X19753492Y-18314446D01*
X20051000Y-18374693D01*
X20751000Y-18374693D01*
X21028933Y-18322396D01*
X21284198Y-18158138D01*
X21455446Y-17907508D01*
X21515693Y-17610000D01*
X21515693Y-17372521D01*
X21612807Y-17275407D01*
X21612807Y-17657000D01*
X21665104Y-17934933D01*
X21829362Y-18190198D01*
X22079992Y-18361446D01*
X22377500Y-18421693D01*
X23520500Y-18421693D01*
X23619844Y-18403000D01*
X23753000Y-18403000D01*
X24135684Y-18326880D01*
X24460107Y-18110107D01*
X25411107Y-17159107D01*
X25479413Y-17056880D01*
X25627880Y-16834683D01*
X25704000Y-16452000D01*
X25704000Y-16255502D01*
X27523249Y-18074751D01*
X27523249Y-18074751D01*
G37*
X27523249Y-18074751D02*
X27831450Y-18280686D01*
X27891767Y-18292683D01*
X27984646Y-18311158D01*
X27962807Y-18419000D01*
X27962807Y-18927000D01*
X28015104Y-19204933D01*
X28179362Y-19460198D01*
X28429992Y-19631446D01*
X28727500Y-19691693D01*
X29870500Y-19691693D01*
X29969844Y-19673000D01*
X31119000Y-19673000D01*
X31501684Y-19596880D01*
X31826107Y-19380107D01*
X32907107Y-18299107D01*
X33041000Y-18098722D01*
X33041000Y-20959000D01*
X33075672Y-21133307D01*
X33056000Y-21133307D01*
X32778067Y-21185604D01*
X32522802Y-21349862D01*
X32431833Y-21483000D01*
X30631953Y-21483000D01*
X30635193Y-21467000D01*
X30635193Y-20959000D01*
X30582896Y-20681067D01*
X30418638Y-20425802D01*
X30168008Y-20254554D01*
X29870500Y-20194307D01*
X28727500Y-20194307D01*
X28628156Y-20213000D01*
X28071000Y-20213000D01*
X27688316Y-20289120D01*
X27363893Y-20505893D01*
X20948893Y-26920893D01*
X20732120Y-27245316D01*
X20732120Y-27245317D01*
X20656000Y-27628000D01*
X20656000Y-33243786D01*
X20574479Y-33325307D01*
X20224000Y-33325307D01*
X19946067Y-33377604D01*
X19690802Y-33541862D01*
X19624740Y-33638548D01*
X19572138Y-33556802D01*
X19321508Y-33385554D01*
X19024000Y-33325307D01*
X18324000Y-33325307D01*
X18046067Y-33377604D01*
X17790802Y-33541862D01*
X17619554Y-33792492D01*
X17559307Y-34090000D01*
X17559307Y-34201548D01*
X17519151Y-34261646D01*
X17442474Y-34647125D01*
X17339553Y-34129707D01*
X16992717Y-33610629D01*
X16785244Y-33472000D01*
X16992717Y-33333371D01*
X17339553Y-32814293D01*
X17461346Y-32202000D01*
X17339553Y-31589707D01*
X16992717Y-31070629D01*
X16785244Y-30932000D01*
X16992717Y-30793371D01*
X17339553Y-30274293D01*
X17461346Y-29662000D01*
X17339553Y-29049707D01*
X16992717Y-28530629D01*
X16785244Y-28392000D01*
X16992717Y-28253371D01*
X17339553Y-27734293D01*
X17461346Y-27122000D01*
X17397893Y-26803001D01*
X18300999Y-26803001D01*
X18476469Y-26768098D01*
X18652366Y-26735635D01*
X18657984Y-26731993D01*
X18664548Y-26730687D01*
X18813253Y-26631325D01*
X18963388Y-26533986D01*
X20794389Y-24752985D01*
X20798186Y-24747470D01*
X20803751Y-24743751D01*
X20903118Y-24595038D01*
X20907179Y-24589139D01*
X21059933Y-24560396D01*
X21315198Y-24396138D01*
X21486446Y-24145508D01*
X21546693Y-23848000D01*
X21546693Y-23148000D01*
X21494396Y-22870067D01*
X21330138Y-22614802D01*
X21233452Y-22548740D01*
X21315198Y-22496138D01*
X21486446Y-22245508D01*
X21493029Y-22213000D01*
X22285191Y-22213000D01*
X22377500Y-22231693D01*
X23520500Y-22231693D01*
X23798433Y-22179396D01*
X24053698Y-22015138D01*
X24224946Y-21764508D01*
X24285193Y-21467000D01*
X24285193Y-20959000D01*
X24232896Y-20681067D01*
X24167217Y-20578998D01*
X24224946Y-20494508D01*
X24285193Y-20197000D01*
X24285193Y-19689000D01*
X24232896Y-19411067D01*
X24068638Y-19155802D01*
X23818008Y-18984554D01*
X23520500Y-18924307D01*
X22377500Y-18924307D01*
X22278156Y-18943000D01*
X18739000Y-18943000D01*
X18356317Y-19019120D01*
X18031893Y-19235893D01*
X18031891Y-19235896D01*
X17800480Y-19467307D01*
X17454445Y-19467307D01*
X17339553Y-18889707D01*
X16992717Y-18370629D01*
X16861571Y-18283000D01*
X17807469Y-18283000D01*
X17853492Y-18314446D01*
X18151000Y-18374693D01*
X18851000Y-18374693D01*
X19128933Y-18322396D01*
X19384198Y-18158138D01*
X19450260Y-18061452D01*
X19502862Y-18143198D01*
X19753492Y-18314446D01*
X20051000Y-18374693D01*
X20751000Y-18374693D01*
X21028933Y-18322396D01*
X21284198Y-18158138D01*
X21455446Y-17907508D01*
X21515693Y-17610000D01*
X21515693Y-17372521D01*
X21612807Y-17275407D01*
X21612807Y-17657000D01*
X21665104Y-17934933D01*
X21829362Y-18190198D01*
X22079992Y-18361446D01*
X22377500Y-18421693D01*
X23520500Y-18421693D01*
X23619844Y-18403000D01*
X23753000Y-18403000D01*
X24135684Y-18326880D01*
X24460107Y-18110107D01*
X25411107Y-17159107D01*
X25479413Y-17056880D01*
X25627880Y-16834683D01*
X25704000Y-16452000D01*
X25704000Y-16255502D01*
X27523249Y-18074751D01*
G36*
X3292893Y-11407107D02*
X3892893Y-12007107D01*
X4217317Y-12223880D01*
X4600000Y-12300000D01*
X5533978Y-12300000D01*
X5651862Y-12483198D01*
X5902492Y-12654446D01*
X6145325Y-12703621D01*
X6085307Y-13000000D01*
X6085307Y-13700000D01*
X6137604Y-13977933D01*
X6301862Y-14233198D01*
X6552492Y-14404446D01*
X6850000Y-14464693D01*
X8150000Y-14464693D01*
X8427933Y-14412396D01*
X8524899Y-14350000D01*
X9132976Y-14350000D01*
X9118654Y-14422000D01*
X9240447Y-15034293D01*
X9587283Y-15553371D01*
X9794756Y-15692000D01*
X9587283Y-15830629D01*
X9507522Y-15950000D01*
X8527192Y-15950000D01*
X8447508Y-15895554D01*
X8150000Y-15835307D01*
X6850000Y-15835307D01*
X6572067Y-15887604D01*
X6316802Y-16051862D01*
X6145554Y-16302492D01*
X6085307Y-16600000D01*
X6085307Y-17300000D01*
X6137604Y-17577933D01*
X6301862Y-17833198D01*
X6552492Y-18004446D01*
X6850000Y-18064693D01*
X8150000Y-18064693D01*
X8427933Y-18012396D01*
X8524899Y-17950000D01*
X9491486Y-17950000D01*
X9587283Y-18093371D01*
X9794756Y-18232000D01*
X9587283Y-18370629D01*
X9240447Y-18889707D01*
X9118654Y-19502000D01*
X9240447Y-20114293D01*
X9587283Y-20633371D01*
X10106361Y-20980207D01*
X10718654Y-21102000D01*
X10781346Y-21102000D01*
X11393639Y-20980207D01*
X11735176Y-20752000D01*
X14844824Y-20752000D01*
X15186361Y-20980207D01*
X15798654Y-21102000D01*
X15861346Y-21102000D01*
X16473639Y-20980207D01*
X16685307Y-20838775D01*
X16685307Y-20932000D01*
X16737604Y-21209933D01*
X16901862Y-21465198D01*
X16998548Y-21531260D01*
X16916802Y-21583862D01*
X16745554Y-21834492D01*
X16685307Y-22132000D01*
X16685307Y-22702926D01*
X16315831Y-23072403D01*
X15861346Y-22982000D01*
X15798654Y-22982000D01*
X15186361Y-23103793D01*
X14844824Y-23332000D01*
X11735176Y-23332000D01*
X11393639Y-23103793D01*
X10781346Y-22982000D01*
X10718654Y-22982000D01*
X10282893Y-23068679D01*
X9957107Y-22742893D01*
X9632684Y-22526120D01*
X9250000Y-22450000D01*
X8527192Y-22450000D01*
X8447508Y-22395554D01*
X8150000Y-22335307D01*
X6850000Y-22335307D01*
X6572067Y-22387604D01*
X6316802Y-22551862D01*
X6145554Y-22802492D01*
X6085307Y-23100000D01*
X6085307Y-23317540D01*
X3250000Y-20482234D01*
X3250000Y-18517766D01*
X3316316Y-18451450D01*
X3356361Y-18478207D01*
X3968654Y-18600000D01*
X4031346Y-18600000D01*
X4643639Y-18478207D01*
X5162717Y-18131371D01*
X5509553Y-17612293D01*
X5631346Y-17000000D01*
X5509553Y-16387707D01*
X5224109Y-15960509D01*
X5383198Y-15858138D01*
X5554446Y-15607508D01*
X5614693Y-15310000D01*
X5614693Y-13610000D01*
X5562396Y-13332067D01*
X5398138Y-13076802D01*
X5147508Y-12905554D01*
X4850000Y-12845307D01*
X4153074Y-12845307D01*
X3094000Y-11786234D01*
X3094000Y-11109443D01*
X3292893Y-11407107D01*
X3292893Y-11407107D01*
G37*
X3292893Y-11407107D02*
X3892893Y-12007107D01*
X4217317Y-12223880D01*
X4600000Y-12300000D01*
X5533978Y-12300000D01*
X5651862Y-12483198D01*
X5902492Y-12654446D01*
X6145325Y-12703621D01*
X6085307Y-13000000D01*
X6085307Y-13700000D01*
X6137604Y-13977933D01*
X6301862Y-14233198D01*
X6552492Y-14404446D01*
X6850000Y-14464693D01*
X8150000Y-14464693D01*
X8427933Y-14412396D01*
X8524899Y-14350000D01*
X9132976Y-14350000D01*
X9118654Y-14422000D01*
X9240447Y-15034293D01*
X9587283Y-15553371D01*
X9794756Y-15692000D01*
X9587283Y-15830629D01*
X9507522Y-15950000D01*
X8527192Y-15950000D01*
X8447508Y-15895554D01*
X8150000Y-15835307D01*
X6850000Y-15835307D01*
X6572067Y-15887604D01*
X6316802Y-16051862D01*
X6145554Y-16302492D01*
X6085307Y-16600000D01*
X6085307Y-17300000D01*
X6137604Y-17577933D01*
X6301862Y-17833198D01*
X6552492Y-18004446D01*
X6850000Y-18064693D01*
X8150000Y-18064693D01*
X8427933Y-18012396D01*
X8524899Y-17950000D01*
X9491486Y-17950000D01*
X9587283Y-18093371D01*
X9794756Y-18232000D01*
X9587283Y-18370629D01*
X9240447Y-18889707D01*
X9118654Y-19502000D01*
X9240447Y-20114293D01*
X9587283Y-20633371D01*
X10106361Y-20980207D01*
X10718654Y-21102000D01*
X10781346Y-21102000D01*
X11393639Y-20980207D01*
X11735176Y-20752000D01*
X14844824Y-20752000D01*
X15186361Y-20980207D01*
X15798654Y-21102000D01*
X15861346Y-21102000D01*
X16473639Y-20980207D01*
X16685307Y-20838775D01*
X16685307Y-20932000D01*
X16737604Y-21209933D01*
X16901862Y-21465198D01*
X16998548Y-21531260D01*
X16916802Y-21583862D01*
X16745554Y-21834492D01*
X16685307Y-22132000D01*
X16685307Y-22702926D01*
X16315831Y-23072403D01*
X15861346Y-22982000D01*
X15798654Y-22982000D01*
X15186361Y-23103793D01*
X14844824Y-23332000D01*
X11735176Y-23332000D01*
X11393639Y-23103793D01*
X10781346Y-22982000D01*
X10718654Y-22982000D01*
X10282893Y-23068679D01*
X9957107Y-22742893D01*
X9632684Y-22526120D01*
X9250000Y-22450000D01*
X8527192Y-22450000D01*
X8447508Y-22395554D01*
X8150000Y-22335307D01*
X6850000Y-22335307D01*
X6572067Y-22387604D01*
X6316802Y-22551862D01*
X6145554Y-22802492D01*
X6085307Y-23100000D01*
X6085307Y-23317540D01*
X3250000Y-20482234D01*
X3250000Y-18517766D01*
X3316316Y-18451450D01*
X3356361Y-18478207D01*
X3968654Y-18600000D01*
X4031346Y-18600000D01*
X4643639Y-18478207D01*
X5162717Y-18131371D01*
X5509553Y-17612293D01*
X5631346Y-17000000D01*
X5509553Y-16387707D01*
X5224109Y-15960509D01*
X5383198Y-15858138D01*
X5554446Y-15607508D01*
X5614693Y-15310000D01*
X5614693Y-13610000D01*
X5562396Y-13332067D01*
X5398138Y-13076802D01*
X5147508Y-12905554D01*
X4850000Y-12845307D01*
X4153074Y-12845307D01*
X3094000Y-11786234D01*
X3094000Y-11109443D01*
X3292893Y-11407107D01*
G36*
X40407483Y-14375249D02*
X41285316Y-15253083D01*
X41655709Y-15500571D01*
X41690846Y-15524049D01*
X42169200Y-15619200D01*
X44532115Y-15619200D01*
X44434754Y-15761692D01*
X44374507Y-16059200D01*
X44374507Y-17759200D01*
X44426804Y-18037133D01*
X44591062Y-18292398D01*
X44841692Y-18463646D01*
X45139200Y-18523893D01*
X46839200Y-18523893D01*
X47117133Y-18471596D01*
X47330000Y-18334620D01*
X47330000Y-21175150D01*
X47151917Y-20908629D01*
X46632839Y-20561793D01*
X46020546Y-20440000D01*
X45957854Y-20440000D01*
X45345561Y-20561793D01*
X45004024Y-20790000D01*
X42160000Y-20790000D01*
X41681646Y-20885151D01*
X41276116Y-21156117D01*
X40304241Y-22127993D01*
X40321346Y-22042000D01*
X40199553Y-21429707D01*
X39852717Y-20910629D01*
X39645244Y-20772000D01*
X39852717Y-20633371D01*
X40199553Y-20114293D01*
X40321346Y-19502000D01*
X40199553Y-18889707D01*
X39852717Y-18370629D01*
X39645244Y-18232000D01*
X39852717Y-18093371D01*
X40199553Y-17574293D01*
X40321346Y-16962000D01*
X40199553Y-16349707D01*
X39852717Y-15830629D01*
X39645244Y-15692000D01*
X39852717Y-15553371D01*
X40199553Y-15034293D01*
X40321346Y-14422000D01*
X40308115Y-14355484D01*
X40407483Y-14375249D01*
X40407483Y-14375249D01*
G37*
X40407483Y-14375249D02*
X41285316Y-15253083D01*
X41655709Y-15500571D01*
X41690846Y-15524049D01*
X42169200Y-15619200D01*
X44532115Y-15619200D01*
X44434754Y-15761692D01*
X44374507Y-16059200D01*
X44374507Y-17759200D01*
X44426804Y-18037133D01*
X44591062Y-18292398D01*
X44841692Y-18463646D01*
X45139200Y-18523893D01*
X46839200Y-18523893D01*
X47117133Y-18471596D01*
X47330000Y-18334620D01*
X47330000Y-21175150D01*
X47151917Y-20908629D01*
X46632839Y-20561793D01*
X46020546Y-20440000D01*
X45957854Y-20440000D01*
X45345561Y-20561793D01*
X45004024Y-20790000D01*
X42160000Y-20790000D01*
X41681646Y-20885151D01*
X41276116Y-21156117D01*
X40304241Y-22127993D01*
X40321346Y-22042000D01*
X40199553Y-21429707D01*
X39852717Y-20910629D01*
X39645244Y-20772000D01*
X39852717Y-20633371D01*
X40199553Y-20114293D01*
X40321346Y-19502000D01*
X40199553Y-18889707D01*
X39852717Y-18370629D01*
X39645244Y-18232000D01*
X39852717Y-18093371D01*
X40199553Y-17574293D01*
X40321346Y-16962000D01*
X40199553Y-16349707D01*
X39852717Y-15830629D01*
X39645244Y-15692000D01*
X39852717Y-15553371D01*
X40199553Y-15034293D01*
X40321346Y-14422000D01*
X40308115Y-14355484D01*
X40407483Y-14375249D01*
G36*
X37334377Y-5894489D02*
X37090278Y-6482344D01*
X37089723Y-7118863D01*
X37332795Y-7707143D01*
X37712117Y-8087127D01*
X37527283Y-8210629D01*
X37180447Y-8729707D01*
X37058654Y-9342000D01*
X37180447Y-9954293D01*
X37527283Y-10473371D01*
X37734756Y-10612000D01*
X37527283Y-10750629D01*
X37180447Y-11269707D01*
X37058654Y-11882000D01*
X37122505Y-12203001D01*
X36941813Y-12203001D01*
X36613214Y-11990804D01*
X36133429Y-11903154D01*
X33614483Y-11942599D01*
X33340000Y-11888001D01*
X33018607Y-11951930D01*
X32940417Y-11953154D01*
X32711379Y-12002453D01*
X32481635Y-12048152D01*
X32473352Y-12053687D01*
X32463612Y-12055783D01*
X32270915Y-12188950D01*
X32076106Y-12319117D01*
X31527725Y-12867498D01*
X31272067Y-12915604D01*
X31016802Y-13079862D01*
X30845554Y-13330492D01*
X30785307Y-13628000D01*
X30785307Y-13913000D01*
X30299000Y-13913000D01*
X30299000Y-13507135D01*
X30434198Y-13420138D01*
X30605446Y-13169508D01*
X30665693Y-12872000D01*
X30665693Y-11872000D01*
X30613396Y-11594067D01*
X30449138Y-11338802D01*
X30198508Y-11167554D01*
X29901000Y-11107307D01*
X28651000Y-11107307D01*
X28373067Y-11159604D01*
X28117802Y-11323862D01*
X27946554Y-11574492D01*
X27886307Y-11872000D01*
X27886307Y-12872000D01*
X27938604Y-13149933D01*
X28102862Y-13405198D01*
X28299000Y-13539213D01*
X28299000Y-13993491D01*
X28194302Y-14060862D01*
X28023054Y-14311492D01*
X27962807Y-14609000D01*
X27962807Y-15117000D01*
X28015104Y-15394933D01*
X28179362Y-15650198D01*
X28429992Y-15821446D01*
X28727500Y-15881693D01*
X29870500Y-15881693D01*
X30148433Y-15829396D01*
X30173913Y-15813000D01*
X30785307Y-15813000D01*
X30785307Y-16228000D01*
X30837604Y-16505933D01*
X31001862Y-16761198D01*
X31200000Y-16896580D01*
X31200000Y-17177786D01*
X30704786Y-17673000D01*
X30631953Y-17673000D01*
X30635193Y-17657000D01*
X30635193Y-17149000D01*
X30582896Y-16871067D01*
X30418638Y-16615802D01*
X30168008Y-16444554D01*
X29870500Y-16384307D01*
X28727500Y-16384307D01*
X28552700Y-16417198D01*
X27178000Y-15042498D01*
X27178000Y-11880000D01*
X27105686Y-11516451D01*
X27024535Y-11395000D01*
X26936347Y-11263019D01*
X29283883Y-8915484D01*
X29283885Y-8915481D01*
X32549366Y-5650000D01*
X37579293Y-5650000D01*
X37334377Y-5894489D01*
X37334377Y-5894489D01*
G37*
X37334377Y-5894489D02*
X37090278Y-6482344D01*
X37089723Y-7118863D01*
X37332795Y-7707143D01*
X37712117Y-8087127D01*
X37527283Y-8210629D01*
X37180447Y-8729707D01*
X37058654Y-9342000D01*
X37180447Y-9954293D01*
X37527283Y-10473371D01*
X37734756Y-10612000D01*
X37527283Y-10750629D01*
X37180447Y-11269707D01*
X37058654Y-11882000D01*
X37122505Y-12203001D01*
X36941813Y-12203001D01*
X36613214Y-11990804D01*
X36133429Y-11903154D01*
X33614483Y-11942599D01*
X33340000Y-11888001D01*
X33018607Y-11951930D01*
X32940417Y-11953154D01*
X32711379Y-12002453D01*
X32481635Y-12048152D01*
X32473352Y-12053687D01*
X32463612Y-12055783D01*
X32270915Y-12188950D01*
X32076106Y-12319117D01*
X31527725Y-12867498D01*
X31272067Y-12915604D01*
X31016802Y-13079862D01*
X30845554Y-13330492D01*
X30785307Y-13628000D01*
X30785307Y-13913000D01*
X30299000Y-13913000D01*
X30299000Y-13507135D01*
X30434198Y-13420138D01*
X30605446Y-13169508D01*
X30665693Y-12872000D01*
X30665693Y-11872000D01*
X30613396Y-11594067D01*
X30449138Y-11338802D01*
X30198508Y-11167554D01*
X29901000Y-11107307D01*
X28651000Y-11107307D01*
X28373067Y-11159604D01*
X28117802Y-11323862D01*
X27946554Y-11574492D01*
X27886307Y-11872000D01*
X27886307Y-12872000D01*
X27938604Y-13149933D01*
X28102862Y-13405198D01*
X28299000Y-13539213D01*
X28299000Y-13993491D01*
X28194302Y-14060862D01*
X28023054Y-14311492D01*
X27962807Y-14609000D01*
X27962807Y-15117000D01*
X28015104Y-15394933D01*
X28179362Y-15650198D01*
X28429992Y-15821446D01*
X28727500Y-15881693D01*
X29870500Y-15881693D01*
X30148433Y-15829396D01*
X30173913Y-15813000D01*
X30785307Y-15813000D01*
X30785307Y-16228000D01*
X30837604Y-16505933D01*
X31001862Y-16761198D01*
X31200000Y-16896580D01*
X31200000Y-17177786D01*
X30704786Y-17673000D01*
X30631953Y-17673000D01*
X30635193Y-17657000D01*
X30635193Y-17149000D01*
X30582896Y-16871067D01*
X30418638Y-16615802D01*
X30168008Y-16444554D01*
X29870500Y-16384307D01*
X28727500Y-16384307D01*
X28552700Y-16417198D01*
X27178000Y-15042498D01*
X27178000Y-11880000D01*
X27105686Y-11516451D01*
X27024535Y-11395000D01*
X26936347Y-11263019D01*
X29283883Y-8915484D01*
X29283885Y-8915481D01*
X32549366Y-5650000D01*
X37579293Y-5650000D01*
X37334377Y-5894489D01*
G36*
X23289307Y-12672000D02*
X23341604Y-12949933D01*
X23505862Y-13205198D01*
X23704000Y-13340580D01*
X23704000Y-15151467D01*
X23520500Y-15114307D01*
X22377500Y-15114307D01*
X22278156Y-15133000D01*
X21341000Y-15133000D01*
X20958316Y-15209120D01*
X20633893Y-15425893D01*
X20514479Y-15545307D01*
X20051000Y-15545307D01*
X19773067Y-15597604D01*
X19517802Y-15761862D01*
X19451740Y-15858548D01*
X19399138Y-15776802D01*
X19148508Y-15605554D01*
X18851000Y-15545307D01*
X18151000Y-15545307D01*
X17873067Y-15597604D01*
X17617802Y-15761862D01*
X17603359Y-15783000D01*
X16921435Y-15783000D01*
X16785244Y-15692000D01*
X16992717Y-15553371D01*
X17339553Y-15034293D01*
X17461346Y-14422000D01*
X17339553Y-13809707D01*
X16992717Y-13290629D01*
X16785244Y-13152000D01*
X16992717Y-13013371D01*
X17033056Y-12953000D01*
X17536456Y-12953000D01*
X17602862Y-13056198D01*
X17853492Y-13227446D01*
X18151000Y-13287693D01*
X18851000Y-13287693D01*
X19128933Y-13235396D01*
X19384198Y-13071138D01*
X19450260Y-12974452D01*
X19502862Y-13056198D01*
X19753492Y-13227446D01*
X20051000Y-13287693D01*
X20751000Y-13287693D01*
X21028933Y-13235396D01*
X21284198Y-13071138D01*
X21453743Y-12823000D01*
X21663000Y-12823000D01*
X21966233Y-12762683D01*
X22026550Y-12750686D01*
X22334751Y-12544751D01*
X22557502Y-12322000D01*
X23289307Y-12322000D01*
X23289307Y-12672000D01*
X23289307Y-12672000D01*
G37*
X23289307Y-12672000D02*
X23341604Y-12949933D01*
X23505862Y-13205198D01*
X23704000Y-13340580D01*
X23704000Y-15151467D01*
X23520500Y-15114307D01*
X22377500Y-15114307D01*
X22278156Y-15133000D01*
X21341000Y-15133000D01*
X20958316Y-15209120D01*
X20633893Y-15425893D01*
X20514479Y-15545307D01*
X20051000Y-15545307D01*
X19773067Y-15597604D01*
X19517802Y-15761862D01*
X19451740Y-15858548D01*
X19399138Y-15776802D01*
X19148508Y-15605554D01*
X18851000Y-15545307D01*
X18151000Y-15545307D01*
X17873067Y-15597604D01*
X17617802Y-15761862D01*
X17603359Y-15783000D01*
X16921435Y-15783000D01*
X16785244Y-15692000D01*
X16992717Y-15553371D01*
X17339553Y-15034293D01*
X17461346Y-14422000D01*
X17339553Y-13809707D01*
X16992717Y-13290629D01*
X16785244Y-13152000D01*
X16992717Y-13013371D01*
X17033056Y-12953000D01*
X17536456Y-12953000D01*
X17602862Y-13056198D01*
X17853492Y-13227446D01*
X18151000Y-13287693D01*
X18851000Y-13287693D01*
X19128933Y-13235396D01*
X19384198Y-13071138D01*
X19450260Y-12974452D01*
X19502862Y-13056198D01*
X19753492Y-13227446D01*
X20051000Y-13287693D01*
X20751000Y-13287693D01*
X21028933Y-13235396D01*
X21284198Y-13071138D01*
X21453743Y-12823000D01*
X21663000Y-12823000D01*
X21966233Y-12762683D01*
X22026550Y-12750686D01*
X22334751Y-12544751D01*
X22557502Y-12322000D01*
X23289307Y-12322000D01*
X23289307Y-12672000D01*
G36*
X43166917Y-7734684D02*
X43537309Y-7982171D01*
X43572446Y-8005649D01*
X44050800Y-8100800D01*
X44532115Y-8100800D01*
X44434754Y-8243292D01*
X44374507Y-8540800D01*
X44374507Y-10240800D01*
X44426804Y-10518733D01*
X44591062Y-10773998D01*
X44841692Y-10945246D01*
X45139200Y-11005493D01*
X46839200Y-11005493D01*
X47117133Y-10953196D01*
X47330000Y-10816220D01*
X47330000Y-13504350D01*
X47151917Y-13237829D01*
X46632839Y-12890993D01*
X46020546Y-12769200D01*
X45957854Y-12769200D01*
X45345561Y-12890993D01*
X45004024Y-13119200D01*
X42686967Y-13119200D01*
X41836884Y-12269118D01*
X41431355Y-11998152D01*
X41394414Y-11990804D01*
X40953001Y-11903001D01*
X40546999Y-11903001D01*
X40307700Y-11950601D01*
X40321346Y-11882000D01*
X40199553Y-11269707D01*
X39852717Y-10750629D01*
X39645244Y-10612000D01*
X39852717Y-10473371D01*
X40199553Y-9954293D01*
X40321346Y-9342000D01*
X40199553Y-8729707D01*
X39852717Y-8210629D01*
X39667562Y-8086913D01*
X40045623Y-7709511D01*
X40289722Y-7121656D01*
X40290277Y-6485137D01*
X40047205Y-5896857D01*
X39800779Y-5650000D01*
X41082234Y-5650000D01*
X43166917Y-7734684D01*
X43166917Y-7734684D01*
G37*
X43166917Y-7734684D02*
X43537309Y-7982171D01*
X43572446Y-8005649D01*
X44050800Y-8100800D01*
X44532115Y-8100800D01*
X44434754Y-8243292D01*
X44374507Y-8540800D01*
X44374507Y-10240800D01*
X44426804Y-10518733D01*
X44591062Y-10773998D01*
X44841692Y-10945246D01*
X45139200Y-11005493D01*
X46839200Y-11005493D01*
X47117133Y-10953196D01*
X47330000Y-10816220D01*
X47330000Y-13504350D01*
X47151917Y-13237829D01*
X46632839Y-12890993D01*
X46020546Y-12769200D01*
X45957854Y-12769200D01*
X45345561Y-12890993D01*
X45004024Y-13119200D01*
X42686967Y-13119200D01*
X41836884Y-12269118D01*
X41431355Y-11998152D01*
X41394414Y-11990804D01*
X40953001Y-11903001D01*
X40546999Y-11903001D01*
X40307700Y-11950601D01*
X40321346Y-11882000D01*
X40199553Y-11269707D01*
X39852717Y-10750629D01*
X39645244Y-10612000D01*
X39852717Y-10473371D01*
X40199553Y-9954293D01*
X40321346Y-9342000D01*
X40199553Y-8729707D01*
X39852717Y-8210629D01*
X39667562Y-8086913D01*
X40045623Y-7709511D01*
X40289722Y-7121656D01*
X40290277Y-6485137D01*
X40047205Y-5896857D01*
X39800779Y-5650000D01*
X41082234Y-5650000D01*
X43166917Y-7734684D01*
G36*
X47330000Y-2697767D02*
X47330000Y-5985950D01*
X47151917Y-5719429D01*
X46632839Y-5372593D01*
X46020546Y-5250800D01*
X45957854Y-5250800D01*
X45345561Y-5372593D01*
X45004024Y-5600800D01*
X44568567Y-5600800D01*
X42483883Y-3516117D01*
X42078354Y-3245151D01*
X41600000Y-3150000D01*
X32031600Y-3150000D01*
X31553246Y-3245151D01*
X31147717Y-3516117D01*
X27516119Y-7147715D01*
X27516116Y-7147717D01*
X25491834Y-9172000D01*
X24704000Y-9172000D01*
X24225646Y-9267151D01*
X24165548Y-9307307D01*
X24054000Y-9307307D01*
X23776067Y-9359604D01*
X23520802Y-9523862D01*
X23349554Y-9774492D01*
X23289307Y-10072000D01*
X23289307Y-10422000D01*
X22164000Y-10422000D01*
X21860767Y-10482317D01*
X21800450Y-10494314D01*
X21492249Y-10700249D01*
X21378838Y-10813660D01*
X21299138Y-10689802D01*
X21048508Y-10518554D01*
X20751000Y-10458307D01*
X20051000Y-10458307D01*
X19773067Y-10510604D01*
X19517802Y-10674862D01*
X19451740Y-10771548D01*
X19399138Y-10689802D01*
X19148508Y-10518554D01*
X18851000Y-10458307D01*
X18151000Y-10458307D01*
X17873067Y-10510604D01*
X17617802Y-10674862D01*
X17446554Y-10925492D01*
X17440983Y-10953000D01*
X17127937Y-10953000D01*
X16992717Y-10750629D01*
X16785244Y-10612000D01*
X16992717Y-10473371D01*
X17339553Y-9954293D01*
X17461346Y-9342000D01*
X17339553Y-8729707D01*
X16992717Y-8210629D01*
X16807562Y-8086913D01*
X17185623Y-7709511D01*
X17429722Y-7121656D01*
X17430277Y-6485137D01*
X17187205Y-5896857D01*
X16737511Y-5446377D01*
X16149656Y-5202278D01*
X15513137Y-5201723D01*
X14924857Y-5444795D01*
X14817465Y-5552000D01*
X11762950Y-5552000D01*
X11657511Y-5446377D01*
X11069656Y-5202278D01*
X10433137Y-5201723D01*
X9844857Y-5444795D01*
X9394377Y-5894489D01*
X9150278Y-6482344D01*
X9149723Y-7118863D01*
X9392795Y-7707143D01*
X9772117Y-8087127D01*
X9764824Y-8092000D01*
X5485135Y-8092000D01*
X5398138Y-7956802D01*
X5147508Y-7785554D01*
X4850000Y-7725307D01*
X3150000Y-7725307D01*
X3094000Y-7735844D01*
X3094000Y-5793766D01*
X6837767Y-2050000D01*
X46682234Y-2050000D01*
X47330000Y-2697767D01*
X47330000Y-2697767D01*
G37*
X47330000Y-2697767D02*
X47330000Y-5985950D01*
X47151917Y-5719429D01*
X46632839Y-5372593D01*
X46020546Y-5250800D01*
X45957854Y-5250800D01*
X45345561Y-5372593D01*
X45004024Y-5600800D01*
X44568567Y-5600800D01*
X42483883Y-3516117D01*
X42078354Y-3245151D01*
X41600000Y-3150000D01*
X32031600Y-3150000D01*
X31553246Y-3245151D01*
X31147717Y-3516117D01*
X27516119Y-7147715D01*
X27516116Y-7147717D01*
X25491834Y-9172000D01*
X24704000Y-9172000D01*
X24225646Y-9267151D01*
X24165548Y-9307307D01*
X24054000Y-9307307D01*
X23776067Y-9359604D01*
X23520802Y-9523862D01*
X23349554Y-9774492D01*
X23289307Y-10072000D01*
X23289307Y-10422000D01*
X22164000Y-10422000D01*
X21860767Y-10482317D01*
X21800450Y-10494314D01*
X21492249Y-10700249D01*
X21378838Y-10813660D01*
X21299138Y-10689802D01*
X21048508Y-10518554D01*
X20751000Y-10458307D01*
X20051000Y-10458307D01*
X19773067Y-10510604D01*
X19517802Y-10674862D01*
X19451740Y-10771548D01*
X19399138Y-10689802D01*
X19148508Y-10518554D01*
X18851000Y-10458307D01*
X18151000Y-10458307D01*
X17873067Y-10510604D01*
X17617802Y-10674862D01*
X17446554Y-10925492D01*
X17440983Y-10953000D01*
X17127937Y-10953000D01*
X16992717Y-10750629D01*
X16785244Y-10612000D01*
X16992717Y-10473371D01*
X17339553Y-9954293D01*
X17461346Y-9342000D01*
X17339553Y-8729707D01*
X16992717Y-8210629D01*
X16807562Y-8086913D01*
X17185623Y-7709511D01*
X17429722Y-7121656D01*
X17430277Y-6485137D01*
X17187205Y-5896857D01*
X16737511Y-5446377D01*
X16149656Y-5202278D01*
X15513137Y-5201723D01*
X14924857Y-5444795D01*
X14817465Y-5552000D01*
X11762950Y-5552000D01*
X11657511Y-5446377D01*
X11069656Y-5202278D01*
X10433137Y-5201723D01*
X9844857Y-5444795D01*
X9394377Y-5894489D01*
X9150278Y-6482344D01*
X9149723Y-7118863D01*
X9392795Y-7707143D01*
X9772117Y-8087127D01*
X9764824Y-8092000D01*
X5485135Y-8092000D01*
X5398138Y-7956802D01*
X5147508Y-7785554D01*
X4850000Y-7725307D01*
X3150000Y-7725307D01*
X3094000Y-7735844D01*
X3094000Y-5793766D01*
X6837767Y-2050000D01*
X46682234Y-2050000D01*
X47330000Y-2697767D01*
M02*
