G04 #@! TF.FileFunction,Soldermask,Top*
%FSLAX46Y46*%
G04 Gerber Fmt 4.6, Leading zero omitted, Abs format (unit mm)*
G04 Created by KiCad (PCBNEW 4.0.7) date Sun Nov  5 18:25:08 2017*
%MOMM*%
%LPD*%
G01*
G04 APERTURE LIST*
%ADD10C,0.100000*%
%ADD11O,2.100000X2.100000*%
%ADD12C,2.100000*%
%ADD13R,1.950000X1.000000*%
%ADD14C,4.800000*%
%ADD15R,2.100000X2.100000*%
%ADD16R,1.700000X1.100000*%
%ADD17R,1.400000X1.650000*%
%ADD18R,1.650000X1.400000*%
%ADD19R,1.100000X1.700000*%
%ADD20R,1.543000X0.908000*%
%ADD21R,4.200000X2.400000*%
%ADD22R,1.900000X2.400000*%
G04 APERTURE END LIST*
D10*
D11*
X10750000Y-9342000D03*
X10750000Y-24582000D03*
X10750000Y-29662000D03*
X10750000Y-19502000D03*
X10750000Y-11882000D03*
X10750000Y-42362000D03*
X10750000Y-27122000D03*
X10750000Y-37282000D03*
X10750000Y-32202000D03*
X10750000Y-34742000D03*
D12*
X10750000Y-6802000D03*
D11*
X10750000Y-16962000D03*
X10750000Y-22042000D03*
X10750000Y-14422000D03*
X10750000Y-39822000D03*
D12*
X38690000Y-6802000D03*
D11*
X38690000Y-9342000D03*
X38690000Y-11882000D03*
X38690000Y-14422000D03*
X38690000Y-16962000D03*
X38690000Y-19502000D03*
X38690000Y-22042000D03*
X38690000Y-24582000D03*
X38690000Y-27122000D03*
X38690000Y-29662000D03*
X38690000Y-32202000D03*
X38690000Y-34742000D03*
X38690000Y-37282000D03*
X38690000Y-39822000D03*
X38690000Y-42362000D03*
X15830000Y-39822000D03*
X15830000Y-14422000D03*
X15830000Y-22042000D03*
X15830000Y-16962000D03*
D12*
X15830000Y-6802000D03*
D11*
X15830000Y-34742000D03*
X15830000Y-32202000D03*
X15830000Y-37282000D03*
X15830000Y-27122000D03*
X15830000Y-42362000D03*
X15830000Y-11882000D03*
X15830000Y-19502000D03*
X15830000Y-29662000D03*
X15830000Y-24582000D03*
X15830000Y-9342000D03*
D13*
X27400000Y-45705000D03*
X27400000Y-44435000D03*
X27400000Y-43165000D03*
X27400000Y-41895000D03*
X22000000Y-41895000D03*
X22000000Y-43165000D03*
X22000000Y-44435000D03*
X22000000Y-45705000D03*
D14*
X43000000Y-36000000D03*
D15*
X4000000Y-42800000D03*
D11*
X4000000Y-40260000D03*
X4000000Y-37720000D03*
D15*
X46040000Y-39820000D03*
D11*
X46040000Y-42360000D03*
X46040000Y-44900000D03*
X46040000Y-47440000D03*
D16*
X7500000Y-15250000D03*
X7500000Y-13350000D03*
D17*
X25704000Y-31692000D03*
X23704000Y-31692000D03*
D18*
X29276000Y-12372000D03*
X29276000Y-10372000D03*
X35372000Y-39804000D03*
X35372000Y-37804000D03*
D11*
X45989200Y-4310800D03*
X45989200Y-6850800D03*
D15*
X45989200Y-9390800D03*
X45989200Y-24580000D03*
D11*
X45989200Y-22040000D03*
X45989200Y-19500000D03*
X4000000Y-19540000D03*
X4000000Y-17000000D03*
D15*
X4000000Y-14460000D03*
X45989200Y-16909200D03*
D11*
X45989200Y-14369200D03*
X45989200Y-11829200D03*
X42484000Y-42360000D03*
D15*
X42484000Y-39820000D03*
X46040000Y-32200000D03*
D11*
X46040000Y-29660000D03*
X4000000Y-6800000D03*
D15*
X4000000Y-9340000D03*
X4000000Y-45916000D03*
D11*
X4000000Y-48456000D03*
D15*
X4000000Y-27193000D03*
D11*
X4000000Y-29733000D03*
X4000000Y-32273000D03*
X4000000Y-34813000D03*
D16*
X20132000Y-21598000D03*
X20132000Y-23498000D03*
X7500000Y-18850000D03*
X7500000Y-16950000D03*
D19*
X8450000Y-11300000D03*
X6550000Y-11300000D03*
D16*
X24704000Y-10422000D03*
X24704000Y-12322000D03*
X32200000Y-13978000D03*
X32200000Y-15878000D03*
X7500000Y-23450000D03*
X7500000Y-21550000D03*
D19*
X33406000Y-22548000D03*
X35306000Y-22548000D03*
X18674000Y-37280000D03*
X20574000Y-37280000D03*
X18501000Y-11873000D03*
X20401000Y-11873000D03*
X20401000Y-16960000D03*
X18501000Y-16960000D03*
D16*
X18100000Y-22482000D03*
X18100000Y-20582000D03*
D19*
X20574000Y-34740000D03*
X18674000Y-34740000D03*
D20*
X22949000Y-14863000D03*
X22949000Y-16133000D03*
X22949000Y-17403000D03*
X22949000Y-18673000D03*
X22949000Y-19943000D03*
X22949000Y-21213000D03*
X22949000Y-22483000D03*
X29299000Y-22483000D03*
X29299000Y-21213000D03*
X29299000Y-18673000D03*
X29299000Y-17403000D03*
X29299000Y-16133000D03*
X29299000Y-14863000D03*
X29299000Y-19943000D03*
D21*
X30292000Y-31590000D03*
D22*
X30292000Y-37890000D03*
X32592000Y-37890000D03*
X27992000Y-37890000D03*
M02*
