M48
;DRILL file {KiCad 4.0.7} date Sun Nov  5 18:25:13 2017
;FORMAT={3:3/ absolute / metric / suppress leading zeros}
FMAT,2
METRIC,TZ
T1C0.400
T2C1.000
T3C2.200
%
G90
G05
M71
T1
X27600Y-51300
T2
X24000Y-46800
X24000Y-49340
X24000Y-54460
X24000Y-57000
X24000Y-59540
X24000Y-67193
X24000Y-69733
X24000Y-72273
X24000Y-74813
X24000Y-77720
X24000Y-80260
X24000Y-82800
X24000Y-85916
X24000Y-88456
X30750Y-46802
X30750Y-49342
X30750Y-51882
X30750Y-54422
X30750Y-56962
X30750Y-59502
X30750Y-62042
X30750Y-64582
X30750Y-67122
X30750Y-69662
X30750Y-72202
X30750Y-74742
X30750Y-77282
X30750Y-79822
X30750Y-82362
X35830Y-46802
X35830Y-49342
X35830Y-51882
X35830Y-54422
X35830Y-56962
X35830Y-59502
X35830Y-62042
X35830Y-64582
X35830Y-67122
X35830Y-69662
X35830Y-72202
X35830Y-74742
X35830Y-77282
X35830Y-79822
X35830Y-82362
X58690Y-46802
X58690Y-49342
X58690Y-51882
X58690Y-54422
X58690Y-56962
X58690Y-59502
X58690Y-62042
X58690Y-64582
X58690Y-67122
X58690Y-69662
X58690Y-72202
X58690Y-74742
X58690Y-77282
X58690Y-79822
X58690Y-82362
X62484Y-79820
X62484Y-82360
X65989Y-44311
X65989Y-46851
X65989Y-49391
X65989Y-51829
X65989Y-54369
X65989Y-56909
X65989Y-59500
X65989Y-62040
X65989Y-64580
X66040Y-69660
X66040Y-72200
X66040Y-79820
X66040Y-82360
X66040Y-84900
X66040Y-87440
T3
X63000Y-76000
T0
M30
