G04 #@! TF.FileFunction,Legend,Bot*
%FSLAX46Y46*%
G04 Gerber Fmt 4.6, Leading zero omitted, Abs format (unit mm)*
G04 Created by KiCad (PCBNEW 4.0.7) date Sun Nov  5 18:25:08 2017*
%MOMM*%
%LPD*%
G01*
G04 APERTURE LIST*
%ADD10C,0.100000*%
%ADD11C,0.120000*%
%ADD12C,0.150000*%
%ADD13C,0.050000*%
G04 APERTURE END LIST*
D10*
D11*
X12080000Y-5532000D02*
X12080000Y-43692000D01*
X12080000Y-43692000D02*
X9420000Y-43692000D01*
X9480000Y-5532000D02*
X12020000Y-5532000D01*
X9420000Y-43692000D02*
X9420000Y-5532000D01*
X40020000Y-5532000D02*
X40020000Y-43692000D01*
X40020000Y-43692000D02*
X37360000Y-43692000D01*
X37360000Y-43692000D02*
X37360000Y-5532000D01*
X37420000Y-5532000D02*
X39960000Y-5532000D01*
X14500000Y-43692000D02*
X14500000Y-5532000D01*
X14560000Y-5532000D02*
X17100000Y-5532000D01*
X17160000Y-43692000D02*
X14500000Y-43692000D01*
X17160000Y-5532000D02*
X17160000Y-43692000D01*
D12*
X40260000Y198000D02*
X14260000Y198000D01*
D13*
X19640000Y5898000D02*
X19640000Y5898000D01*
D12*
X40260000Y198000D02*
X40260000Y-49362000D01*
D13*
X10242000Y-5532000D02*
X10242000Y-5532000D01*
D12*
X14260000Y198000D02*
X14260000Y-49362000D01*
X40260000Y-49362000D02*
X14260000Y-49362000D01*
D11*
X2610000Y-41530000D02*
X2610000Y-36330000D01*
X2610000Y-36330000D02*
X5390000Y-36330000D01*
X5390000Y-36330000D02*
X5390000Y-41530000D01*
X5390000Y-41530000D02*
X2610000Y-41530000D01*
X2610000Y-42800000D02*
X2610000Y-44190000D01*
X2610000Y-44190000D02*
X4000000Y-44190000D01*
X47430000Y-41090000D02*
X47430000Y-48830000D01*
X47430000Y-48830000D02*
X44650000Y-48830000D01*
X44650000Y-48830000D02*
X44650000Y-41090000D01*
X44650000Y-41090000D02*
X47430000Y-41090000D01*
X47430000Y-39820000D02*
X47430000Y-38430000D01*
X47430000Y-38430000D02*
X46040000Y-38430000D01*
X44719200Y-10660800D02*
X45989200Y-10660800D01*
X44719200Y-9390800D02*
X44719200Y-10660800D01*
X46959200Y-3870800D02*
X47269200Y-3870800D01*
X46959200Y-4750800D02*
X47269200Y-4750800D01*
X56009200Y-4750800D02*
X50009200Y-4750800D01*
X56009200Y-3870800D02*
X56009200Y-4750800D01*
X50009200Y-3870800D02*
X56009200Y-3870800D01*
X50009200Y-4750800D02*
X50009200Y-3870800D01*
X50009200Y-5580800D02*
X47269200Y-5580800D01*
X50009200Y-2920800D02*
X50009200Y-5580800D01*
X47269200Y-2920800D02*
X50009200Y-2920800D01*
X47269200Y-5580800D02*
X47269200Y-2920800D01*
X46959200Y-6410800D02*
X47269200Y-6410800D01*
X46959200Y-7290800D02*
X47269200Y-7290800D01*
X56009200Y-7290800D02*
X50009200Y-7290800D01*
X56009200Y-6410800D02*
X56009200Y-7290800D01*
X50009200Y-6410800D02*
X56009200Y-6410800D01*
X50009200Y-7290800D02*
X50009200Y-6410800D01*
X50009200Y-8120800D02*
X47269200Y-8120800D01*
X50009200Y-5580800D02*
X50009200Y-8120800D01*
X47269200Y-5580800D02*
X50009200Y-5580800D01*
X47269200Y-8120800D02*
X47269200Y-5580800D01*
X50009200Y-8990800D02*
X56009200Y-8990800D01*
X50009200Y-9110800D02*
X56009200Y-9110800D01*
X50009200Y-9230800D02*
X56009200Y-9230800D01*
X50009200Y-9350800D02*
X56009200Y-9350800D01*
X50009200Y-9470800D02*
X56009200Y-9470800D01*
X50009200Y-9590800D02*
X56009200Y-9590800D01*
X50009200Y-9710800D02*
X56009200Y-9710800D01*
X46959200Y-8950800D02*
X47269200Y-8950800D01*
X46959200Y-9830800D02*
X47269200Y-9830800D01*
X56009200Y-9830800D02*
X50009200Y-9830800D01*
X56009200Y-8950800D02*
X56009200Y-9830800D01*
X50009200Y-8950800D02*
X56009200Y-8950800D01*
X50009200Y-9830800D02*
X50009200Y-8950800D01*
X50009200Y-10780800D02*
X47269200Y-10780800D01*
X50009200Y-8120800D02*
X50009200Y-10780800D01*
X47269200Y-8120800D02*
X50009200Y-8120800D01*
X47269200Y-10780800D02*
X47269200Y-8120800D01*
X47269200Y-25970000D02*
X47269200Y-23310000D01*
X47269200Y-23310000D02*
X50009200Y-23310000D01*
X50009200Y-23310000D02*
X50009200Y-25970000D01*
X50009200Y-25970000D02*
X47269200Y-25970000D01*
X50009200Y-25020000D02*
X50009200Y-24140000D01*
X50009200Y-24140000D02*
X56009200Y-24140000D01*
X56009200Y-24140000D02*
X56009200Y-25020000D01*
X56009200Y-25020000D02*
X50009200Y-25020000D01*
X46959200Y-25020000D02*
X47269200Y-25020000D01*
X46959200Y-24140000D02*
X47269200Y-24140000D01*
X50009200Y-24900000D02*
X56009200Y-24900000D01*
X50009200Y-24780000D02*
X56009200Y-24780000D01*
X50009200Y-24660000D02*
X56009200Y-24660000D01*
X50009200Y-24540000D02*
X56009200Y-24540000D01*
X50009200Y-24420000D02*
X56009200Y-24420000D01*
X50009200Y-24300000D02*
X56009200Y-24300000D01*
X50009200Y-24180000D02*
X56009200Y-24180000D01*
X47269200Y-23310000D02*
X47269200Y-20770000D01*
X47269200Y-20770000D02*
X50009200Y-20770000D01*
X50009200Y-20770000D02*
X50009200Y-23310000D01*
X50009200Y-23310000D02*
X47269200Y-23310000D01*
X50009200Y-22480000D02*
X50009200Y-21600000D01*
X50009200Y-21600000D02*
X56009200Y-21600000D01*
X56009200Y-21600000D02*
X56009200Y-22480000D01*
X56009200Y-22480000D02*
X50009200Y-22480000D01*
X46959200Y-22480000D02*
X47269200Y-22480000D01*
X46959200Y-21600000D02*
X47269200Y-21600000D01*
X47269200Y-20770000D02*
X47269200Y-18110000D01*
X47269200Y-18110000D02*
X50009200Y-18110000D01*
X50009200Y-18110000D02*
X50009200Y-20770000D01*
X50009200Y-20770000D02*
X47269200Y-20770000D01*
X50009200Y-19940000D02*
X50009200Y-19060000D01*
X50009200Y-19060000D02*
X56009200Y-19060000D01*
X56009200Y-19060000D02*
X56009200Y-19940000D01*
X56009200Y-19940000D02*
X50009200Y-19940000D01*
X46959200Y-19940000D02*
X47269200Y-19940000D01*
X46959200Y-19060000D02*
X47269200Y-19060000D01*
X44719200Y-24580000D02*
X44719200Y-25850000D01*
X44719200Y-25850000D02*
X45989200Y-25850000D01*
X5270000Y-13190000D02*
X4000000Y-13190000D01*
X5270000Y-14460000D02*
X5270000Y-13190000D01*
X3030000Y-19980000D02*
X2720000Y-19980000D01*
X3030000Y-19100000D02*
X2720000Y-19100000D01*
X-6020000Y-19100000D02*
X-20000Y-19100000D01*
X-6020000Y-19980000D02*
X-6020000Y-19100000D01*
X-20000Y-19980000D02*
X-6020000Y-19980000D01*
X-20000Y-19100000D02*
X-20000Y-19980000D01*
X-20000Y-18270000D02*
X2720000Y-18270000D01*
X-20000Y-20930000D02*
X-20000Y-18270000D01*
X2720000Y-20930000D02*
X-20000Y-20930000D01*
X2720000Y-18270000D02*
X2720000Y-20930000D01*
X3030000Y-17440000D02*
X2720000Y-17440000D01*
X3030000Y-16560000D02*
X2720000Y-16560000D01*
X-6020000Y-16560000D02*
X-20000Y-16560000D01*
X-6020000Y-17440000D02*
X-6020000Y-16560000D01*
X-20000Y-17440000D02*
X-6020000Y-17440000D01*
X-20000Y-16560000D02*
X-20000Y-17440000D01*
X-20000Y-15730000D02*
X2720000Y-15730000D01*
X-20000Y-18270000D02*
X-20000Y-15730000D01*
X2720000Y-18270000D02*
X-20000Y-18270000D01*
X2720000Y-15730000D02*
X2720000Y-18270000D01*
X-20000Y-14860000D02*
X-6020000Y-14860000D01*
X-20000Y-14740000D02*
X-6020000Y-14740000D01*
X-20000Y-14620000D02*
X-6020000Y-14620000D01*
X-20000Y-14500000D02*
X-6020000Y-14500000D01*
X-20000Y-14380000D02*
X-6020000Y-14380000D01*
X-20000Y-14260000D02*
X-6020000Y-14260000D01*
X-20000Y-14140000D02*
X-6020000Y-14140000D01*
X3030000Y-14900000D02*
X2720000Y-14900000D01*
X3030000Y-14020000D02*
X2720000Y-14020000D01*
X-6020000Y-14020000D02*
X-20000Y-14020000D01*
X-6020000Y-14900000D02*
X-6020000Y-14020000D01*
X-20000Y-14900000D02*
X-6020000Y-14900000D01*
X-20000Y-14020000D02*
X-20000Y-14900000D01*
X-20000Y-13070000D02*
X2720000Y-13070000D01*
X-20000Y-15730000D02*
X-20000Y-13070000D01*
X2720000Y-15730000D02*
X-20000Y-15730000D01*
X2720000Y-13070000D02*
X2720000Y-15730000D01*
X47269200Y-18299200D02*
X47269200Y-15639200D01*
X47269200Y-15639200D02*
X50009200Y-15639200D01*
X50009200Y-15639200D02*
X50009200Y-18299200D01*
X50009200Y-18299200D02*
X47269200Y-18299200D01*
X50009200Y-17349200D02*
X50009200Y-16469200D01*
X50009200Y-16469200D02*
X56009200Y-16469200D01*
X56009200Y-16469200D02*
X56009200Y-17349200D01*
X56009200Y-17349200D02*
X50009200Y-17349200D01*
X46959200Y-17349200D02*
X47269200Y-17349200D01*
X46959200Y-16469200D02*
X47269200Y-16469200D01*
X50009200Y-17229200D02*
X56009200Y-17229200D01*
X50009200Y-17109200D02*
X56009200Y-17109200D01*
X50009200Y-16989200D02*
X56009200Y-16989200D01*
X50009200Y-16869200D02*
X56009200Y-16869200D01*
X50009200Y-16749200D02*
X56009200Y-16749200D01*
X50009200Y-16629200D02*
X56009200Y-16629200D01*
X50009200Y-16509200D02*
X56009200Y-16509200D01*
X47269200Y-15639200D02*
X47269200Y-13099200D01*
X47269200Y-13099200D02*
X50009200Y-13099200D01*
X50009200Y-13099200D02*
X50009200Y-15639200D01*
X50009200Y-15639200D02*
X47269200Y-15639200D01*
X50009200Y-14809200D02*
X50009200Y-13929200D01*
X50009200Y-13929200D02*
X56009200Y-13929200D01*
X56009200Y-13929200D02*
X56009200Y-14809200D01*
X56009200Y-14809200D02*
X50009200Y-14809200D01*
X46959200Y-14809200D02*
X47269200Y-14809200D01*
X46959200Y-13929200D02*
X47269200Y-13929200D01*
X47269200Y-13099200D02*
X47269200Y-10439200D01*
X47269200Y-10439200D02*
X50009200Y-10439200D01*
X50009200Y-10439200D02*
X50009200Y-13099200D01*
X50009200Y-13099200D02*
X47269200Y-13099200D01*
X50009200Y-12269200D02*
X50009200Y-11389200D01*
X50009200Y-11389200D02*
X56009200Y-11389200D01*
X56009200Y-11389200D02*
X56009200Y-12269200D01*
X56009200Y-12269200D02*
X50009200Y-12269200D01*
X46959200Y-12269200D02*
X47269200Y-12269200D01*
X46959200Y-11389200D02*
X47269200Y-11389200D01*
X44719200Y-16909200D02*
X44719200Y-18179200D01*
X44719200Y-18179200D02*
X45989200Y-18179200D01*
X43874000Y-38430000D02*
X42484000Y-38430000D01*
X43874000Y-39820000D02*
X43874000Y-38430000D01*
X41094000Y-41090000D02*
X43874000Y-41090000D01*
X41094000Y-43750000D02*
X41094000Y-41090000D01*
X43874000Y-43750000D02*
X41094000Y-43750000D01*
X43874000Y-41090000D02*
X43874000Y-43750000D01*
X44650000Y-30930000D02*
X44650000Y-28270000D01*
X44650000Y-28270000D02*
X47430000Y-28270000D01*
X47430000Y-28270000D02*
X47430000Y-30930000D01*
X47430000Y-30930000D02*
X44650000Y-30930000D01*
X44650000Y-32200000D02*
X44650000Y-33590000D01*
X44650000Y-33590000D02*
X46040000Y-33590000D01*
X2610000Y-10730000D02*
X4000000Y-10730000D01*
X2610000Y-9340000D02*
X2610000Y-10730000D01*
X5390000Y-8070000D02*
X2610000Y-8070000D01*
X5390000Y-5410000D02*
X5390000Y-8070000D01*
X2610000Y-5410000D02*
X5390000Y-5410000D01*
X2610000Y-8070000D02*
X2610000Y-5410000D01*
X5390000Y-47186000D02*
X5390000Y-49846000D01*
X5390000Y-49846000D02*
X2610000Y-49846000D01*
X2610000Y-49846000D02*
X2610000Y-47186000D01*
X2610000Y-47186000D02*
X5390000Y-47186000D01*
X5390000Y-45916000D02*
X5390000Y-44526000D01*
X5390000Y-44526000D02*
X4000000Y-44526000D01*
X5390000Y-28463000D02*
X5390000Y-36203000D01*
X5390000Y-36203000D02*
X2610000Y-36203000D01*
X2610000Y-36203000D02*
X2610000Y-28463000D01*
X2610000Y-28463000D02*
X5390000Y-28463000D01*
X5390000Y-27193000D02*
X5390000Y-25803000D01*
X5390000Y-25803000D02*
X4000000Y-25803000D01*
D12*
X28021905Y-1174381D02*
X28021905Y-1983905D01*
X27974286Y-2079143D01*
X27926667Y-2126762D01*
X27831429Y-2174381D01*
X27640952Y-2174381D01*
X27545714Y-2126762D01*
X27498095Y-2079143D01*
X27450476Y-1983905D01*
X27450476Y-1174381D01*
X27069524Y-1174381D02*
X26450476Y-1174381D01*
X26783810Y-1555333D01*
X26640952Y-1555333D01*
X26545714Y-1602952D01*
X26498095Y-1650571D01*
X26450476Y-1745810D01*
X26450476Y-1983905D01*
X26498095Y-2079143D01*
X26545714Y-2126762D01*
X26640952Y-2174381D01*
X26926667Y-2174381D01*
X27021905Y-2126762D01*
X27069524Y-2079143D01*
X4333333Y-44642381D02*
X4333333Y-45356667D01*
X4380953Y-45499524D01*
X4476191Y-45594762D01*
X4619048Y-45642381D01*
X4714286Y-45642381D01*
X3904762Y-44737619D02*
X3857143Y-44690000D01*
X3761905Y-44642381D01*
X3523809Y-44642381D01*
X3428571Y-44690000D01*
X3380952Y-44737619D01*
X3333333Y-44832857D01*
X3333333Y-44928095D01*
X3380952Y-45070952D01*
X3952381Y-45642381D01*
X3333333Y-45642381D01*
X46373333Y-36882381D02*
X46373333Y-37596667D01*
X46420953Y-37739524D01*
X46516191Y-37834762D01*
X46659048Y-37882381D01*
X46754286Y-37882381D01*
X45373333Y-37882381D02*
X45944762Y-37882381D01*
X45659048Y-37882381D02*
X45659048Y-36882381D01*
X45754286Y-37025238D01*
X45849524Y-37120476D01*
X45944762Y-37168095D01*
X50637533Y-11113181D02*
X50637533Y-11827467D01*
X50685153Y-11970324D01*
X50780391Y-12065562D01*
X50923248Y-12113181D01*
X51018486Y-12113181D01*
X50256581Y-11113181D02*
X49637533Y-11113181D01*
X49970867Y-11494133D01*
X49828009Y-11494133D01*
X49732771Y-11541752D01*
X49685152Y-11589371D01*
X49637533Y-11684610D01*
X49637533Y-11922705D01*
X49685152Y-12017943D01*
X49732771Y-12065562D01*
X49828009Y-12113181D01*
X50113724Y-12113181D01*
X50208962Y-12065562D01*
X50256581Y-12017943D01*
X50637533Y-26302381D02*
X50637533Y-27016667D01*
X50685153Y-27159524D01*
X50780391Y-27254762D01*
X50923248Y-27302381D01*
X51018486Y-27302381D01*
X49732771Y-26635714D02*
X49732771Y-27302381D01*
X49970867Y-26254762D02*
X50208962Y-26969048D01*
X49589914Y-26969048D01*
X18333Y-11642381D02*
X18333Y-12356667D01*
X65953Y-12499524D01*
X161191Y-12594762D01*
X304048Y-12642381D01*
X399286Y-12642381D01*
X-505476Y-12642381D02*
X-695952Y-12642381D01*
X-791191Y-12594762D01*
X-838810Y-12547143D01*
X-934048Y-12404286D01*
X-981667Y-12213810D01*
X-981667Y-11832857D01*
X-934048Y-11737619D01*
X-886429Y-11690000D01*
X-791191Y-11642381D01*
X-600714Y-11642381D01*
X-505476Y-11690000D01*
X-457857Y-11737619D01*
X-410238Y-11832857D01*
X-410238Y-12070952D01*
X-457857Y-12166190D01*
X-505476Y-12213810D01*
X-600714Y-12261429D01*
X-791191Y-12261429D01*
X-886429Y-12213810D01*
X-934048Y-12166190D01*
X-981667Y-12070952D01*
X51113723Y-18631581D02*
X51113723Y-19345867D01*
X51161343Y-19488724D01*
X51256581Y-19583962D01*
X51399438Y-19631581D01*
X51494676Y-19631581D01*
X50113723Y-19631581D02*
X50685152Y-19631581D01*
X50399438Y-19631581D02*
X50399438Y-18631581D01*
X50494676Y-18774438D01*
X50589914Y-18869676D01*
X50685152Y-18917295D01*
X49494676Y-18631581D02*
X49399437Y-18631581D01*
X49304199Y-18679200D01*
X49256580Y-18726819D01*
X49208961Y-18822057D01*
X49161342Y-19012533D01*
X49161342Y-19250629D01*
X49208961Y-19441105D01*
X49256580Y-19536343D01*
X49304199Y-19583962D01*
X49399437Y-19631581D01*
X49494676Y-19631581D01*
X49589914Y-19583962D01*
X49637533Y-19536343D01*
X49685152Y-19441105D01*
X49732771Y-19250629D01*
X49732771Y-19012533D01*
X49685152Y-18822057D01*
X49637533Y-18726819D01*
X49589914Y-18679200D01*
X49494676Y-18631581D01*
X43317333Y-36882381D02*
X43317333Y-37596667D01*
X43364953Y-37739524D01*
X43460191Y-37834762D01*
X43603048Y-37882381D01*
X43698286Y-37882381D01*
X42841143Y-37882381D02*
X42841143Y-36882381D01*
X42460190Y-36882381D01*
X42364952Y-36930000D01*
X42317333Y-36977619D01*
X42269714Y-37072857D01*
X42269714Y-37215714D01*
X42317333Y-37310952D01*
X42364952Y-37358571D01*
X42460190Y-37406190D01*
X42841143Y-37406190D01*
X41317333Y-37882381D02*
X41888762Y-37882381D01*
X41603048Y-37882381D02*
X41603048Y-36882381D01*
X41698286Y-37025238D01*
X41793524Y-37120476D01*
X41888762Y-37168095D01*
X46849523Y-34042381D02*
X46849523Y-34756667D01*
X46897143Y-34899524D01*
X46992381Y-34994762D01*
X47135238Y-35042381D01*
X47230476Y-35042381D01*
X45849523Y-35042381D02*
X46420952Y-35042381D01*
X46135238Y-35042381D02*
X46135238Y-34042381D01*
X46230476Y-34185238D01*
X46325714Y-34280476D01*
X46420952Y-34328095D01*
X44897142Y-35042381D02*
X45468571Y-35042381D01*
X45182857Y-35042381D02*
X45182857Y-34042381D01*
X45278095Y-34185238D01*
X45373333Y-34280476D01*
X45468571Y-34328095D01*
X4333333Y-11182381D02*
X4333333Y-11896667D01*
X4380953Y-12039524D01*
X4476191Y-12134762D01*
X4619048Y-12182381D01*
X4714286Y-12182381D01*
X3952381Y-11182381D02*
X3285714Y-11182381D01*
X3714286Y-12182381D01*
X4333333Y-42978381D02*
X4333333Y-43692667D01*
X4380953Y-43835524D01*
X4476191Y-43930762D01*
X4619048Y-43978381D01*
X4714286Y-43978381D01*
X3714286Y-43406952D02*
X3809524Y-43359333D01*
X3857143Y-43311714D01*
X3904762Y-43216476D01*
X3904762Y-43168857D01*
X3857143Y-43073619D01*
X3809524Y-43026000D01*
X3714286Y-42978381D01*
X3523809Y-42978381D01*
X3428571Y-43026000D01*
X3380952Y-43073619D01*
X3333333Y-43168857D01*
X3333333Y-43216476D01*
X3380952Y-43311714D01*
X3428571Y-43359333D01*
X3523809Y-43406952D01*
X3714286Y-43406952D01*
X3809524Y-43454571D01*
X3857143Y-43502190D01*
X3904762Y-43597429D01*
X3904762Y-43787905D01*
X3857143Y-43883143D01*
X3809524Y-43930762D01*
X3714286Y-43978381D01*
X3523809Y-43978381D01*
X3428571Y-43930762D01*
X3380952Y-43883143D01*
X3333333Y-43787905D01*
X3333333Y-43597429D01*
X3380952Y-43502190D01*
X3428571Y-43454571D01*
X3523809Y-43406952D01*
X4333333Y-24255381D02*
X4333333Y-24969667D01*
X4380953Y-25112524D01*
X4476191Y-25207762D01*
X4619048Y-25255381D01*
X4714286Y-25255381D01*
X3380952Y-24255381D02*
X3857143Y-24255381D01*
X3904762Y-24731571D01*
X3857143Y-24683952D01*
X3761905Y-24636333D01*
X3523809Y-24636333D01*
X3428571Y-24683952D01*
X3380952Y-24731571D01*
X3333333Y-24826810D01*
X3333333Y-25064905D01*
X3380952Y-25160143D01*
X3428571Y-25207762D01*
X3523809Y-25255381D01*
X3761905Y-25255381D01*
X3857143Y-25207762D01*
X3904762Y-25160143D01*
M02*
