G04 #@! TF.FileFunction,Paste,Top*
%FSLAX46Y46*%
G04 Gerber Fmt 4.6, Leading zero omitted, Abs format (unit mm)*
G04 Created by KiCad (PCBNEW 4.0.7) date Sun Nov  5 18:25:08 2017*
%MOMM*%
%LPD*%
G01*
G04 APERTURE LIST*
%ADD10C,0.100000*%
%ADD11R,1.550000X0.600000*%
%ADD12R,1.300000X0.700000*%
%ADD13R,1.000000X1.250000*%
%ADD14R,1.250000X1.000000*%
%ADD15R,0.700000X1.300000*%
%ADD16R,1.143000X0.508000*%
%ADD17R,3.800000X2.000000*%
%ADD18R,1.500000X2.000000*%
G04 APERTURE END LIST*
D10*
D11*
X27400000Y-45705000D03*
X27400000Y-44435000D03*
X27400000Y-43165000D03*
X27400000Y-41895000D03*
X22000000Y-41895000D03*
X22000000Y-43165000D03*
X22000000Y-44435000D03*
X22000000Y-45705000D03*
D12*
X7500000Y-15250000D03*
X7500000Y-13350000D03*
D13*
X25704000Y-31692000D03*
X23704000Y-31692000D03*
D14*
X29276000Y-12372000D03*
X29276000Y-10372000D03*
X35372000Y-39804000D03*
X35372000Y-37804000D03*
D12*
X20132000Y-21598000D03*
X20132000Y-23498000D03*
X7500000Y-18850000D03*
X7500000Y-16950000D03*
D15*
X8450000Y-11300000D03*
X6550000Y-11300000D03*
D12*
X24704000Y-10422000D03*
X24704000Y-12322000D03*
X32200000Y-13978000D03*
X32200000Y-15878000D03*
X7500000Y-23450000D03*
X7500000Y-21550000D03*
D15*
X33406000Y-22548000D03*
X35306000Y-22548000D03*
X18674000Y-37280000D03*
X20574000Y-37280000D03*
X18501000Y-11873000D03*
X20401000Y-11873000D03*
X20401000Y-16960000D03*
X18501000Y-16960000D03*
D12*
X18100000Y-22482000D03*
X18100000Y-20582000D03*
D15*
X20574000Y-34740000D03*
X18674000Y-34740000D03*
D16*
X22949000Y-14863000D03*
X22949000Y-16133000D03*
X22949000Y-17403000D03*
X22949000Y-18673000D03*
X22949000Y-19943000D03*
X22949000Y-21213000D03*
X22949000Y-22483000D03*
X29299000Y-22483000D03*
X29299000Y-21213000D03*
X29299000Y-18673000D03*
X29299000Y-17403000D03*
X29299000Y-16133000D03*
X29299000Y-14863000D03*
X29299000Y-19943000D03*
D17*
X30292000Y-31590000D03*
D18*
X30292000Y-37890000D03*
X32592000Y-37890000D03*
X27992000Y-37890000D03*
M02*
